<svg xmlns="http://www.w3.org/2000/svg" xmlns:xlink="http://www.w3.org/1999/xlink" width="272" height="102" viewBox="0 0 272 102">
  <defs>
    <style>
      .cls-1 {
        fill: none;
      }

      .cls-2 {
        clip-path: url(#clip-path);
      }

      .cls-10, .cls-11, .cls-3 {
        fill: #fff;
      }

      .cls-4 {
        fill: url(#pattern);
      }

      .cls-5, .cls-6 {
        fill: #515c6f;
      }

      .cls-5, .cls-6, .cls-7, .cls-8 {
        font-size: 15px;
      }

      .cls-5 {
        font-family: SegoeUI-Light, Segoe UI;
        font-weight: 300;
      }

      .cls-6, .cls-7, .cls-8 {
        font-family: SegoeUI, Segoe UI;
      }

      .cls-7 {
        fill: #ff6969;
      }

      .cls-8, .cls-9 {
        fill: #727c8e;
      }

      .cls-9 {
        opacity: 0.2;
      }

      .cls-11 {
        stroke: #727c8e;
      }

      .cls-12, .cls-13 {
        stroke: none;
      }

      .cls-13 {
        fill: #727c8e;
      }

      .cls-14 {
        filter: url(#Rectangle_3);
      }
    </style>
    <clipPath id="clip-path">
      <rect class="cls-1" width="272" height="102"/>
    </clipPath>
    <filter id="Rectangle_3" x="-22.5" y="-14.5" width="145" height="145" filterUnits="userSpaceOnUse">
      <feOffset dy="8" input="SourceAlpha"/>
      <feGaussianBlur stdDeviation="7.5" result="blur"/>
      <feFlood flood-color="#e7eaf0"/>
      <feComposite operator="in" in2="blur"/>
      <feComposite in="SourceGraphic"/>
    </filter>
    <pattern id="pattern" preserveAspectRatio="xMidYMid slice" width="100%" height="100%" viewBox="0 0 75 69">
      <image width="75" height="69" xlink:href="1-image.png"/>
    </pattern>
  </defs>
  <g id="_1" data-name="1" class="cls-2">
    <g id="_1-2" data-name="1" class="cls-2">
      <g id="_1-3" data-name="1" transform="translate(-25 -126)">
        <g id="item" transform="translate(0 -380)">
          <g class="cls-14" transform="matrix(1, 0, 0, 1, 25, 506)">
            <rect id="Rectangle_3-2" data-name="Rectangle 3" class="cls-3" width="100" height="100" rx="50"/>
          </g>
          <rect id="women_shoes_PNG7464" class="cls-4" width="64.751" height="59" transform="translate(44 526)"/>
        </g>
        <text id="_7_Hot_Pink" data-name="7, Hot Pink" class="cls-5" transform="translate(145 161)"><tspan x="0" y="0">7, Hot Pink</tspan></text>
        <text id="Faux_Sued_Ankle_Boots" data-name="Faux Sued Ankle Boots" class="cls-6" transform="translate(145 141)"><tspan x="0" y="0">Faux Sued Ankle Boots</tspan></text>
        <text id="_49.99" data-name="$49.99" class="cls-7" transform="translate(145 192)"><tspan x="0" y="0">$49.99</tspan></text>
        <g id="qty" transform="translate(-74 55)">
          <text id="_1-4" data-name="1" class="cls-8" transform="translate(257 170)"><tspan x="-8.086" y="0">1</tspan></text>
          <g id="Group_29" data-name="Group 29" transform="translate(-65 -9)">
            <circle id="Ellipse_11" data-name="Ellipse 11" class="cls-9" cx="9" cy="9" r="9" transform="translate(337 164)"/>
            <g id="Union_1" data-name="Union 1" class="cls-10" transform="translate(1736 168)">
              <path class="cls-12" d="M -1389.999633789062 9.499899864196777 C -1390.275756835938 9.499899864196777 -1390.50048828125 9.275650024414062 -1390.50048828125 9 L -1390.50048828125 6.00029993057251 L -1390.50048828125 5.50029993057251 L -1391.00048828125 5.50029993057251 L -1394.000122070312 5.50029993057251 C -1394.275756835938 5.50029993057251 -1394.5 5.276050090789795 -1394.5 5.000400066375732 C -1394.5 4.724259853363037 -1394.275756835938 4.499599933624268 -1394.000122070312 4.499599933624268 L -1391.00048828125 4.499599933624268 L -1390.50048828125 4.499599933624268 L -1390.50048828125 3.999599933624268 L -1390.50048828125 0.9998999238014221 C -1390.50048828125 0.7242499589920044 -1390.275756835938 0.4999999403953552 -1389.999633789062 0.4999999403953552 C -1389.723999023438 0.4999999403953552 -1389.499755859375 0.7242499589920044 -1389.499755859375 0.9998999238014221 L -1389.499755859375 3.999599933624268 L -1389.499755859375 4.499599933624268 L -1388.999755859375 4.499599933624268 L -1386 4.499599933624268 C -1385.724365234375 4.499599933624268 -1385.500122070312 4.724259853363037 -1385.500122070312 5.000400066375732 C -1385.500122070312 5.276050090789795 -1385.724365234375 5.50029993057251 -1386 5.50029993057251 L -1388.999755859375 5.50029993057251 L -1389.499755859375 5.50029993057251 L -1389.499755859375 6.00029993057251 L -1389.499755859375 9 C -1389.499755859375 9.275650024414062 -1389.723999023438 9.499899864196777 -1389.999633789062 9.499899864196777 Z"/>
              <path class="cls-13" d="M -1389.999755859375 8.999898910522461 L -1389.999755859375 5.00029993057251 L -1386 4.999599933624268 L -1389.999755859375 4.999599933624268 L -1390.00048828125 0.9998999238014221 L -1390.00048828125 4.999599933624268 L -1394.000122070312 5.00029993057251 L -1390.00048828125 5.00029993057251 L -1390.001220703125 8.99983024597168 C -1390.001220703125 8.99983024597168 -1390.000732421875 8.999893188476562 -1389.999755859375 8.999898910522461 M -1389.999633789062 9.999899864196777 C -1390.55224609375 9.999899864196777 -1391.00048828125 9.552599906921387 -1391.00048828125 9 L -1391.00048828125 6.00029993057251 L -1394.000122070312 6.00029993057251 C -1394.551879882812 6.00029993057251 -1395 5.552099704742432 -1395 5.000400066375732 C -1395 4.447800159454346 -1394.551879882812 3.999599933624268 -1394.000122070312 3.999599933624268 L -1391.00048828125 3.999599933624268 L -1391.00048828125 0.9998999238014221 C -1391.00048828125 0.4472999274730682 -1390.55224609375 -6.790160966829717e-08 -1389.999633789062 -6.790160966829717e-08 C -1389.447875976562 -6.790160966829717e-08 -1388.999755859375 0.4472999274730682 -1388.999755859375 0.9998999238014221 L -1388.999755859375 3.999599933624268 L -1386 3.999599933624268 C -1385.447387695312 3.999599933624268 -1385.000122070312 4.447800159454346 -1385.000122070312 5.000400066375732 C -1385.000122070312 5.552099704742432 -1385.447387695312 6.00029993057251 -1386 6.00029993057251 L -1388.999755859375 6.00029993057251 L -1388.999755859375 9 C -1388.999755859375 9.552599906921387 -1389.447875976562 9.999899864196777 -1389.999633789062 9.999899864196777 Z"/>
            </g>
          </g>
          <g id="Group_30" data-name="Group 30" transform="translate(-118 -9)">
            <circle id="Ellipse_11-2" data-name="Ellipse 11" class="cls-9" cx="9" cy="9" r="9" transform="translate(337 164)"/>
            <g id="Rectangle_17" data-name="Rectangle 17" class="cls-11" transform="translate(351 172) rotate(90)">
              <rect class="cls-12" width="2" height="10" rx="1"/>
              <rect class="cls-1" x="0.5" y="0.5" width="1" height="9" rx="0.5"/>
            </g>
          </g>
        </g>
      </g>
    </g>
  </g>
</svg>
