<svg xmlns="http://www.w3.org/2000/svg" xmlns:xlink="http://www.w3.org/1999/xlink" width="195" height="76" viewBox="0 0 195 76">
  <defs>
    <style>
      .cls-1, .cls-4 {
        fill: #ff6969;
      }

      .cls-2, .cls-3 {
        fill: #fff;
      }

      .cls-2 {
        font-size: 12px;
        font-family: SegoeUI-Bold, Segoe UI;
        font-weight: 700;
        letter-spacing: 0.06em;
      }

      .cls-4 {
        stroke: #ff6969;
      }

      .cls-5 {
        filter: url(#base);
      }
    </style>
    <filter id="base" x="0" y="0" width="195" height="76" filterUnits="userSpaceOnUse">
      <feOffset dy="5" input="SourceAlpha"/>
      <feGaussianBlur stdDeviation="5" result="blur"/>
      <feFlood flood-color="#ff6969" flood-opacity="0.396"/>
      <feComposite operator="in" in2="blur"/>
      <feComposite in="SourceGraphic"/>
    </filter>
  </defs>
  <g id="add_to_cart" data-name="add to cart" transform="translate(-5 -591)">
    <g class="cls-5" transform="matrix(1, 0, 0, 1, 5, 591)">
      <rect id="base-2" data-name="base" class="cls-1" width="165" height="46" rx="23" transform="translate(15 10)"/>
    </g>
    <text id="ADD_TO_CART-2" data-name="ADD TO CART" class="cls-2" transform="translate(87 629)"><tspan x="-43.095" y="0">ADD TO CART</tspan></text>
    <g id="icon" transform="translate(13.734 219.063)">
      <rect id="Rectangle_2" data-name="Rectangle 2" class="cls-3" width="28.797" height="29.62" rx="14.399" transform="translate(134.266 389.937)"/>
      <path id="Path_11" data-name="Path 11" class="cls-4" d="M26.582,16.758v0a.82.82,0,0,0-.252-.592h0l-4.937-4.937,0,0a.822.822,0,1,0-1.105,1.218L24.6,16.758,20.23,21.125h0a.823.823,0,0,0,1.163,1.163h0l4.937-4.937h0a.82.82,0,0,0,.252-.592Z" transform="translate(125.785 387.987)"/>
    </g>
  </g>
</svg>
