<svg xmlns="http://www.w3.org/2000/svg" xmlns:xlink="http://www.w3.org/1999/xlink" width="26" height="26" viewBox="0 0 26 26">
  <defs>
    <style>
      .cls-1 {
        fill: none;
      }

      .cls-2 {
        clip-path: url(#clip-path);
      }

      .cls-3 {
        fill: #727c8e;
        opacity: 0.2;
      }

      .cls-4 {
        fill: #fff;
      }

      .cls-5, .cls-6 {
        stroke: none;
      }

      .cls-6 {
        fill: #727c8e;
      }
    </style>
    <clipPath id="clip-path">
      <rect class="cls-1" width="26" height="26"/>
    </clipPath>
  </defs>
  <g id="add" class="cls-2">
    <circle id="Ellipse_11" data-name="Ellipse 11" class="cls-3" cx="13" cy="13" r="13"/>
    <g id="Union_1" data-name="Union 1" class="cls-4" transform="translate(7.078 7.078)">
      <path class="cls-5" d="M 6.106400012969971 10.8439998626709 L 5.737499713897705 10.8439998626709 L 5.737599849700928 7.106400012969971 L 5.737599849700928 6.106400012969971 L 4.737599849700928 6.106400012969971 L 0.9998999238014221 6.106400012969971 L 0.9999999403953552 5.737499713897705 L 4.737599849700928 5.737599849700928 L 5.737599849700928 5.737599849700928 L 5.737599849700928 4.737599849700928 L 5.737599849700928 0.9998999238014221 L 6.106500148773193 0.9999999403953552 L 6.106400012969971 4.737599849700928 L 6.106400012969971 5.737599849700928 L 7.106400012969971 5.737599849700928 L 10.84409999847412 5.737599849700928 L 10.8439998626709 6.106500148773193 L 7.106400012969971 6.106400012969971 L 6.106400012969971 6.106400012969971 L 6.106400012969971 7.106400012969971 L 6.106400012969971 10.84409999847412 L 6.106400012969971 10.8439998626709 Z"/>
      <path class="cls-6" d="M 6.106500148773193 11.8439998626709 L 5.737499713897705 11.8439998626709 C 5.184899806976318 11.8439998626709 4.737599849700928 11.39579963684082 4.737599849700928 10.84409999847412 L 4.737599849700928 7.106400012969971 L 0.9998999238014221 7.106400012969971 C 0.4472999274730682 7.106400012969971 -6.866454782539222e-08 6.658199787139893 -6.866454782539222e-08 6.106500148773193 L -6.866454782539222e-08 5.737499713897705 C -6.866454782539222e-08 5.184899806976318 0.4472999274730682 4.737599849700928 0.9998999238014221 4.737599849700928 L 4.737599849700928 4.737599849700928 L 4.737599849700928 0.9998999238014221 C 4.737599849700928 0.4472999274730682 5.184899806976318 -6.866454782539222e-08 5.737499713897705 -6.866454782539222e-08 L 6.106500148773193 -6.866454782539222e-08 C 6.658199787139893 -6.866454782539222e-08 7.106400012969971 0.4472999274730682 7.106400012969971 0.9998999238014221 L 7.106400012969971 4.737599849700928 L 10.84409999847412 4.737599849700928 C 11.39579963684082 4.737599849700928 11.8439998626709 5.184899806976318 11.8439998626709 5.737499713897705 L 11.8439998626709 6.106500148773193 C 11.8439998626709 6.658199787139893 11.39579963684082 7.106400012969971 10.84409999847412 7.106400012969971 L 7.106400012969971 7.106400012969971 L 7.106400012969971 10.84409999847412 C 7.106400012969971 11.39579963684082 6.658199787139893 11.8439998626709 6.106500148773193 11.8439998626709 Z"/>
    </g>
  </g>
</svg>
