<svg xmlns="http://www.w3.org/2000/svg" xmlns:xlink="http://www.w3.org/1999/xlink" width="325" height="184" viewBox="0 0 325 184">
  <defs>
    <style>
      .cls-1 {
        fill: none;
      }

      .cls-2 {
        clip-path: url(#clip-path);
      }

      .cls-3 {
        fill: url(#pattern);
      }

      .cls-4, .cls-7, .cls-8 {
        fill: #fff;
      }

      .cls-5 {
        fill: #ff6969;
      }

      .cls-6 {
        fill: #727c8e;
        font-size: 12px;
        font-family: SegoeUI, Segoe UI;
        letter-spacing: 0.06em;
      }

      .cls-7 {
        stroke: #fff;
      }

      .cls-8 {
        font-size: 18px;
        font-family: SegoeUI-Light, Segoe UI;
        font-weight: 300;
        letter-spacing: -0.02em;
      }

      .cls-9 {
        filter: url(#Rectangle_1);
      }

      .cls-10 {
        filter: url(#Base);
      }
    </style>
    <clipPath id="clip-path">
      <rect class="cls-1" width="325" height="184"/>
    </clipPath>
    <pattern id="pattern" preserveAspectRatio="xMidYMid slice" width="100%" height="100%" viewBox="0 0 1050 700">
      <image width="1050" height="700" xlink:href="Banner%201-image.png"/>
    </pattern>
    <filter id="Base" x="-40.5" y="-32.5" width="406" height="265" filterUnits="userSpaceOnUse">
      <feOffset dy="8" input="SourceAlpha"/>
      <feGaussianBlur stdDeviation="13.5" result="blur"/>
      <feFlood flood-color="#727c8e" flood-opacity="0.251"/>
      <feComposite operator="in" in2="blur"/>
      <feComposite in="SourceGraphic"/>
    </filter>
    <filter id="Rectangle_1" x="-0.5" y="104.5" width="166" height="84.494" filterUnits="userSpaceOnUse">
      <feOffset dy="8" input="SourceAlpha"/>
      <feGaussianBlur stdDeviation="7.5" result="blur-2"/>
      <feFlood flood-color="#727c8e" flood-opacity="0.361"/>
      <feComposite operator="in" in2="blur-2"/>
      <feComposite in="SourceGraphic"/>
    </filter>
  </defs>
  <g id="Banner_1" data-name="Banner 1" class="cls-2">
    <g id="Banner_1-2" data-name="Banner 1" class="cls-2">
      <g id="Banner_1-3" data-name="Banner 1" transform="translate(-25 -311)">
        <g class="cls-10" transform="matrix(1, 0, 0, 1, 25, 311)">
          <rect id="Base-2" data-name="Base" class="cls-3" width="325" height="184" rx="10"/>
        </g>
        <g id="Button" transform="translate(-91 30)">
          <g class="cls-9" transform="matrix(1, 0, 0, 1, 116, 281)">
            <rect id="Rectangle_1-2" data-name="Rectangle 1" class="cls-4" width="121" height="39.494" rx="19.747" transform="translate(22 119)"/>
          </g>
          <rect id="Rectangle_2" data-name="Rectangle 2" class="cls-5" width="28.797" height="29.62" rx="14.399" transform="translate(225.266 404.937)"/>
          <text id="SEE_MORE" data-name="SEE MORE" class="cls-6" transform="translate(183.456 424.342)"><tspan x="-29.957" y="0">SEE MORE</tspan></text>
          <path id="Path_11" data-name="Path 11" class="cls-7" d="M26.582,16.758v0a.82.82,0,0,0-.252-.592h0l-4.937-4.937,0,0a.822.822,0,1,0-1.105,1.218L24.6,16.758,20.23,21.125h0a.823.823,0,0,0,1.163,1.163h0l4.937-4.937h0a.82.82,0,0,0,.252-.592Z" transform="translate(216.785 402.987)"/>
        </g>
        <text id="For_all_your_summer_clothing_needs" data-name="For all your 
summer clothing 
needs" class="cls-8" transform="translate(51 349)"><tspan x="0" y="0">For all your </tspan><tspan x="0" y="26">summer clothing </tspan><tspan x="0" y="52">needs</tspan></text>
      </g>
    </g>
  </g>
</svg>
