<svg xmlns="http://www.w3.org/2000/svg" xmlns:xlink="http://www.w3.org/1999/xlink" width="420" height="94" viewBox="0 0 420 94">
  <defs>
    <style>
      .cls-1, .cls-9 {
        fill: #fff;
      }

      .cls-2 {
        fill: #727c8e;
        font-size: 11px;
        font-family: SegoeUI, Segoe UI;
        letter-spacing: 0.02em;
      }

      .cls-3, .cls-4, .cls-5, .cls-6 {
        fill: #515c6f;
      }

      .cls-3, .cls-5, .cls-6, .cls-7 {
        stroke: #515c6f;
      }

      .cls-3 {
        stroke-width: 0.2px;
      }

      .cls-5 {
        stroke-width: 0.1px;
      }

      .cls-6 {
        stroke-width: 0.3px;
      }

      .cls-7 {
        fill: none;
        stroke-linecap: round;
        stroke-width: 1.3px;
      }

      .cls-8 {
        fill: #ff6969;
      }

      .cls-9 {
        font-size: 10px;
        font-family: SegoeUI-Bold, Segoe UI;
        font-weight: 700;
      }

      .cls-10 {
        filter: url(#indicator_base);
      }

      .cls-11 {
        filter: url(#Bottom_Nav_Base);
      }
    </style>
    <filter id="Bottom_Nav_Base" x="0" y="0" width="420" height="94" filterUnits="userSpaceOnUse">
      <feOffset dy="-8" input="SourceAlpha"/>
      <feGaussianBlur stdDeviation="7.5" result="blur"/>
      <feFlood flood-color="#f5f6f8"/>
      <feComposite operator="in" in2="blur"/>
      <feComposite in="SourceGraphic"/>
    </filter>
    <filter id="indicator_base" x="176.5" y="36.5" width="35" height="33" filterUnits="userSpaceOnUse">
      <feOffset dy="4" input="SourceAlpha"/>
      <feGaussianBlur stdDeviation="3" result="blur-2"/>
      <feFlood flood-color="#ff6969" flood-opacity="0.404"/>
      <feComposite operator="in" in2="blur-2"/>
      <feComposite in="SourceGraphic"/>
    </filter>
  </defs>
  <g id="Bottom_Navigation" data-name="Bottom Navigation" transform="translate(22.5 -587.5)">
    <g class="cls-11" transform="matrix(1, 0, 0, 1, -22.5, 587.5)">
      <rect id="Bottom_Nav_Base-2" data-name="Bottom Nav Base" class="cls-1" width="375" height="49" transform="translate(22.5 30.5)"/>
    </g>
    <g id="Text">
      <text id="Home" class="cls-2" transform="translate(15 660)"><tspan x="0" y="0">Home</tspan></text>
      <text id="Cart" class="cls-2" transform="translate(188 660)"><tspan x="-10.309" y="0">Cart</tspan></text>
      <text id="Profile" class="cls-2" transform="translate(266 660)"><tspan x="-16.137" y="0">Profile</tspan></text>
      <text id="More" class="cls-2" transform="translate(360 660)"><tspan x="-26.559" y="0">More</tspan></text>
      <text id="Search" class="cls-2" transform="translate(111 660)"><tspan x="-16.712" y="0">Search</tspan></text>
    </g>
    <g id="Icons">
      <path id="Home-2" data-name="Home" class="cls-3" d="M92.253,85.018l-8.838-7.746a.65.65,0,0,0-.857,0l-8.838,7.746a.65.65,0,0,0,.857.977l.684-.6V95.06a.65.65,0,0,0,.65.65H90.063a.65.65,0,0,0,.65-.65V85.4l.684.6a.65.65,0,0,0,.857-.977ZM81.487,94.411V89.057h3v5.353h-3Zm7.926-10.149V94.411H85.788v-6a.65.65,0,0,0-.65-.65h-4.3a.65.65,0,0,0-.65.65v6H76.562V84.261s0,0,0,0l6.426-5.632,6.426,5.632S89.413,84.259,89.413,84.261Z" transform="translate(-54.499 548.89)"/>
      <path id="Search-2" data-name="Search" class="cls-4" d="M20.76,19.6,17.117,15.96a7.365,7.365,0,1,0-1.157,1.157L19.6,20.76A.818.818,0,0,0,20.76,19.6Zm-9.4-2.512a5.727,5.727,0,1,1,5.727-5.727A5.727,5.727,0,0,1,11.364,17.091Z" transform="translate(97 623)"/>
      <path id="Cart-2" data-name="Cart" class="cls-5" d="M91.406,81.632H77.982l-.773-1.818a.635.635,0,0,0-.439-.37l-2.49-.586a.635.635,0,0,0-.291,1.236l2.177.512,5.574,13.1a2.1,2.1,0,1,0,3.761.211h2.287a2.1,2.1,0,1,0,1.933-1.28l-7.051.01-.87-2.044h9.607a.635.635,0,0,0,.635-.635V82.267A.635.635,0,0,0,91.406,81.632Zm-1.684,12.28a.83.83,0,1,1-.83.83A.83.83,0,0,1,89.722,93.912Zm-6.151,0a.83.83,0,1,1-.83.83A.83.83,0,0,1,83.571,93.912Zm7.2-8.428H86.562a.635.635,0,0,0,0,1.27h4.209v2.582H81.26L78.522,82.9H90.771Z" transform="translate(104.501 547.159)"/>
      <path id="Profile-2" data-name="Profile" class="cls-6" d="M16.727,12.939a11.568,11.568,0,0,0-2.822-1.7,15.347,15.347,0,0,1-2.167-1.21,7.61,7.61,0,0,0,1.887-4.575,7.191,7.191,0,0,0-.551-3.3C12.577,1.172,11.467,0,9,0S5.423,1.172,4.927,2.156a7.183,7.183,0,0,0-.552,3.3,7.6,7.6,0,0,0,1.887,4.575,15.272,15.272,0,0,1-2.168,1.21,11.577,11.577,0,0,0-2.822,1.7A5.533,5.533,0,0,0,0,16.477,1.5,1.5,0,0,0,1.5,18h15A1.5,1.5,0,0,0,18,16.477,5.535,5.535,0,0,0,16.727,12.939Zm.04,3.824a.375.375,0,0,1-.268.112H1.5a.375.375,0,0,1-.266-.112.38.38,0,0,1-.108-.269,4.492,4.492,0,0,1,.943-2.759A11.43,11.43,0,0,1,4.6,12.25a12.338,12.338,0,0,0,2.437-1.4l.759-.718-.659-.81A6.51,6.51,0,0,1,5.5,5.458a6.219,6.219,0,0,1,.431-2.795A3.115,3.115,0,0,1,9,1.125a3.116,3.116,0,0,1,3.069,1.538,6.222,6.222,0,0,1,.431,2.8,6.506,6.506,0,0,1-1.635,3.865l-.659.81.759.717a12.364,12.364,0,0,0,2.437,1.4,11.379,11.379,0,0,1,2.53,1.485,4.384,4.384,0,0,1,.943,2.759A.375.375,0,0,1,16.767,16.763Z" transform="translate(257 626)"/>
      <path id="More-2" data-name="More" class="cls-7" d="M0,12H0ZM0,6H0ZM0,0H0Z" transform="translate(338.5 629.5)"/>
      <g id="Indicator" transform="translate(-175 571)">
        <g class="cls-10" transform="matrix(1, 0, 0, 1, 152.5, 16.5)">
          <rect id="indicator_base-2" data-name="indicator base" class="cls-8" width="17" height="15" rx="7" transform="translate(185.5 41.5)"/>
        </g>
        <text id="_3" data-name="3" class="cls-9" transform="translate(344 69)"><tspan x="0" y="0">3</tspan></text>
      </g>
    </g>
  </g>
</svg>
