<svg xmlns="http://www.w3.org/2000/svg" xmlns:xlink="http://www.w3.org/1999/xlink" width="375" height="83" viewBox="0 0 375 83">
  <defs>
    <style>
      .cls-1 {
        fill: url(#linear-gradient);
      }

      .cls-2, .cls-5, .cls-7 {
        fill: #fff;
      }

      .cls-3, .cls-4 {
        fill: #727c8e;
      }

      .cls-3, .cls-7 {
        font-size: 12px;
        font-family: SegoeUI-Bold, Segoe UI;
        font-weight: 700;
        letter-spacing: 0.06em;
      }

      .cls-5 {
        stroke: #fff;
        stroke-width: 0.7px;
      }

      .cls-6, .cls-8 {
        fill: #ff6969;
      }

      .cls-8 {
        stroke: #ff6969;
      }

      .cls-9 {
        filter: url(#base-2);
      }

      .cls-10 {
        filter: url(#base);
      }
    </style>
    <linearGradient id="linear-gradient" x1="0.5" x2="0.5" y2="0.321" gradientUnits="objectBoundingBox">
      <stop offset="0" stop-color="#f5f6f8" stop-opacity="0.678"/>
      <stop offset="1" stop-color="#f5f6f8"/>
    </linearGradient>
    <filter id="base" x="0" y="7" width="195" height="76" filterUnits="userSpaceOnUse">
      <feOffset dy="5" input="SourceAlpha"/>
      <feGaussianBlur stdDeviation="5" result="blur"/>
      <feFlood flood-color="#727c8e" flood-opacity="0.153"/>
      <feComposite operator="in" in2="blur"/>
      <feComposite in="SourceGraphic"/>
    </filter>
    <filter id="base-2" x="180" y="7" width="195" height="76" filterUnits="userSpaceOnUse">
      <feOffset dy="5" input="SourceAlpha"/>
      <feGaussianBlur stdDeviation="5" result="blur-2"/>
      <feFlood flood-color="#ff6969" flood-opacity="0.396"/>
      <feComposite operator="in" in2="blur-2"/>
      <feComposite in="SourceGraphic"/>
    </filter>
  </defs>
  <g id="Buttons" transform="translate(0 -589)">
    <rect id="base-3" data-name="base" class="cls-1" width="375" height="78" transform="translate(0 589)"/>
    <g id="share_this" data-name="share this" transform="translate(-5 5)">
      <g class="cls-10" transform="matrix(1, 0, 0, 1, 5, 584)">
        <rect id="base-4" data-name="base" class="cls-2" width="165" height="46" rx="23" transform="translate(15 17)"/>
      </g>
      <text id="SHARE_THIS-2" data-name="SHARE THIS" class="cls-3" transform="translate(85 629)"><tspan x="-37.561" y="0">SHARE THIS</tspan></text>
      <g id="icon" transform="translate(13.734 219.063)">
        <rect id="Rectangle_2" data-name="Rectangle 2" class="cls-4" width="28.797" height="29.62" rx="14.399" transform="translate(134.266 389.937)"/>
        <g id="share-arrow" transform="translate(94.539 396.278)">
          <g id="Group_27" data-name="Group 27" transform="translate(47.727 0)">
            <path id="Path_14" data-name="Path 14" class="cls-5" d="M117.438,12.71a.724.724,0,0,0,.722-.722V2.211l3.079,2.742a.724.724,0,1,0,.962-1.082L118.051.179a.726.726,0,0,0-.926-.024.726.726,0,0,0-.313.289l-3.6,3.451a.723.723,0,1,0,1,1.046l2.5-2.405v9.452A.724.724,0,0,0,117.438,12.71Z" transform="translate(-111.658 2)"/>
          </g>
        </g>
      </g>
    </g>
    <g id="add_to_cart" data-name="add to cart" transform="translate(175 5)">
      <g class="cls-9" transform="matrix(1, 0, 0, 1, -175, 584)">
        <rect id="base-5" data-name="base" class="cls-6" width="165" height="46" rx="23" transform="translate(195 17)"/>
      </g>
      <text id="ADD_TO_CART-2" data-name="ADD TO CART" class="cls-7" transform="translate(87 629)"><tspan x="-43.095" y="0">ADD TO CART</tspan></text>
      <g id="icon-2" data-name="icon" transform="translate(13.734 219.063)">
        <rect id="Rectangle_2-2" data-name="Rectangle 2" class="cls-2" width="28.797" height="29.62" rx="14.399" transform="translate(134.266 389.937)"/>
        <path id="Path_11" data-name="Path 11" class="cls-8" d="M26.582,16.758v0a.82.82,0,0,0-.252-.592h0l-4.937-4.937,0,0a.822.822,0,1,0-1.105,1.218L24.6,16.758,20.23,21.125h0a.823.823,0,0,0,1.163,1.163h0l4.937-4.937h0a.82.82,0,0,0,.252-.592Z" transform="translate(125.785 387.987)"/>
      </g>
    </g>
  </g>
</svg>
