<svg xmlns="http://www.w3.org/2000/svg" xmlns:xlink="http://www.w3.org/1999/xlink" width="325" height="143" viewBox="0 0 325 143">
  <defs>
    <style>
      .cls-1 {
        fill: none;
      }

      .cls-2 {
        clip-path: url(#clip-path);
      }

      .cls-12, .cls-3 {
        fill: #515c6f;
      }

      .cls-3 {
        font-size: 15px;
        font-family: SegoeUI, Segoe UI;
      }

      .cls-4 {
        fill: #fff;
      }

      .cls-5 {
        fill: #ff6969;
      }

      .cls-6 {
        fill: url(#linear-gradient);
      }

      .cls-7 {
        fill: url(#linear-gradient-2);
      }

      .cls-8 {
        fill: url(#linear-gradient-3);
      }

      .cls-9 {
        fill: url(#linear-gradient-4);
      }

      .cls-10 {
        fill: url(#linear-gradient-5);
      }

      .cls-11 {
        fill: url(#linear-gradient-6);
      }

      .cls-12 {
        font-size: 30px;
        font-family: SegoeUI-Bold, Segoe UI;
        font-weight: 700;
      }

      .cls-13 {
        filter: url(#Shoes);
      }

      .cls-14 {
        filter: url(#Ellipse_6);
      }

      .cls-15 {
        filter: url(#Beauty);
      }

      .cls-16 {
        filter: url(#Ellipse_5);
      }

      .cls-17 {
        filter: url(#clothes);
      }

      .cls-18 {
        filter: url(#Ellipse_1);
      }

      .cls-19 {
        filter: url(#Ellipse_4);
      }
    </style>
    <clipPath id="clip-path">
      <rect class="cls-1" width="325" height="90"/>
    </clipPath>
    <filter id="Ellipse_4" x="237.5" y="38.5" width="110" height="110" filterUnits="userSpaceOnUse">
      <feOffset dy="8" input="SourceAlpha"/>
      <feGaussianBlur stdDeviation="7.5" result="blur"/>
      <feFlood flood-color="#e7eaf0"/>
      <feComposite operator="in" in2="blur"/>
      <feComposite in="SourceGraphic"/>
    </filter>
    <linearGradient id="linear-gradient" x1="0.5" y1="1" x2="0.5" gradientUnits="objectBoundingBox">
      <stop offset="0" stop-color="#ff7676"/>
      <stop offset="1" stop-color="#ffae4e"/>
    </linearGradient>
    <filter id="Ellipse_1" x="-22.5" y="38.5" width="110" height="110" filterUnits="userSpaceOnUse">
      <feOffset dy="8" input="SourceAlpha"/>
      <feGaussianBlur stdDeviation="7.5" result="blur-2"/>
      <feFlood flood-color="#ff6262" flood-opacity="0.341"/>
      <feComposite operator="in" in2="blur-2"/>
      <feComposite in="SourceGraphic"/>
    </filter>
    <linearGradient id="linear-gradient-2" x1="0.386" y1="1.08" x2="0.386" y2="-0.063" gradientUnits="objectBoundingBox">
      <stop offset="0" stop-color="#fff" stop-opacity="0.502"/>
      <stop offset="1" stop-color="#fff"/>
    </linearGradient>
    <filter id="clothes" x="6" y="63" width="55.499" height="55.5" filterUnits="userSpaceOnUse">
      <feOffset dy="8" input="SourceAlpha"/>
      <feGaussianBlur stdDeviation="3" result="blur-3"/>
      <feFlood flood-color="#ff4e00"/>
      <feComposite operator="in" in2="blur-3"/>
      <feComposite in="SourceGraphic"/>
    </filter>
    <linearGradient id="linear-gradient-3" x1="0.5" y1="1" x2="0.5" gradientUnits="objectBoundingBox">
      <stop offset="0" stop-color="#76baff"/>
      <stop offset="1" stop-color="#4efff8"/>
    </linearGradient>
    <filter id="Ellipse_5" x="64.5" y="38.5" width="110" height="110" filterUnits="userSpaceOnUse">
      <feOffset dy="8" input="SourceAlpha"/>
      <feGaussianBlur stdDeviation="7.5" result="blur-4"/>
      <feFlood flood-color="#62aaff" flood-opacity="0.341"/>
      <feComposite operator="in" in2="blur-4"/>
      <feComposite in="SourceGraphic"/>
    </filter>
    <linearGradient id="linear-gradient-4" x1="0.5" x2="0.5" y2="1" gradientUnits="objectBoundingBox">
      <stop offset="0" stop-color="#fff"/>
      <stop offset="1" stop-color="#fff" stop-opacity="0.518"/>
    </linearGradient>
    <filter id="Beauty" x="96" y="64.292" width="48.97" height="54.802" filterUnits="userSpaceOnUse">
      <feOffset dy="8" input="SourceAlpha"/>
      <feGaussianBlur stdDeviation="3" result="blur-5"/>
      <feFlood flood-color="#0062ff" flood-opacity="0.345"/>
      <feComposite operator="in" in2="blur-5"/>
      <feComposite in="SourceGraphic"/>
    </filter>
    <linearGradient id="linear-gradient-5" x1="0.5" y1="1" x2="0.5" gradientUnits="objectBoundingBox">
      <stop offset="0" stop-color="#2fc145"/>
      <stop offset="1" stop-color="#b4ff4e"/>
    </linearGradient>
    <filter id="Ellipse_6" x="150.5" y="38.5" width="110" height="110" filterUnits="userSpaceOnUse">
      <feOffset dy="8" input="SourceAlpha"/>
      <feGaussianBlur stdDeviation="7.5" result="blur-6"/>
      <feFlood flood-color="#26d555" flood-opacity="0.341"/>
      <feComposite operator="in" in2="blur-6"/>
      <feComposite in="SourceGraphic"/>
    </filter>
    <linearGradient id="linear-gradient-6" x1="0.5" x2="0.5" y2="1" gradientUnits="objectBoundingBox">
      <stop offset="0" stop-color="#fff"/>
      <stop offset="1" stop-color="#fff" stop-opacity="0.525"/>
    </linearGradient>
    <filter id="Shoes" x="178" y="71" width="55" height="46.18" filterUnits="userSpaceOnUse">
      <feOffset dy="8" input="SourceAlpha"/>
      <feGaussianBlur stdDeviation="3" result="blur-7"/>
      <feFlood flood-color="#009b12" flood-opacity="0.518"/>
      <feComposite operator="in" in2="blur-7"/>
      <feComposite in="SourceGraphic"/>
    </filter>
  </defs>
  <g id="categories" transform="translate(-25 -58)">
    <g id="Categories_Section" data-name="Categories Section" class="cls-2" transform="translate(25 111)">
      <g id="Categories_Section-2" data-name="Categories Section" transform="translate(-25 -140)">
        <g id="text">
          <text id="Apparel" class="cls-3" transform="translate(58 226)"><tspan x="-25.818" y="0">Apparel</tspan></text>
          <text id="Beauty-2" data-name="Beauty" class="cls-3" transform="translate(145 226)"><tspan x="-22.452" y="0">Beauty</tspan></text>
          <text id="Shoes-2" data-name="Shoes" class="cls-3" transform="translate(231 226)"><tspan x="-19.728" y="0">Shoes</tspan></text>
          <text id="See_All" data-name="See All" class="cls-3" transform="translate(318 226)"><tspan x="-22.354" y="0">See All</tspan></text>
        </g>
        <g id="see_all-2" data-name="see all">
          <g class="cls-19" transform="matrix(1, 0, 0, 1, 25, 87)">
            <circle id="Ellipse_4-2" data-name="Ellipse 4" class="cls-4" cx="32.5" cy="32.5" r="32.5" transform="translate(260 53)"/>
          </g>
          <g id="arrow_right" transform="translate(294 153)">
            <g id="ARROW__x2F__RIGHT" transform="translate(20 11)">
              <g id="Group_1" data-name="Group 1">
                <path id="Path_2" data-name="Path 2" class="cls-5" d="M30.286,20v0a1.281,1.281,0,0,0-.393-.925h0l-7.714-7.714,0,0a1.285,1.285,0,1,0-1.727,1.9L27.185,20,20.36,26.822h0a1.285,1.285,0,0,0,1.818,1.818h0l7.714-7.714h0A1.281,1.281,0,0,0,30.286,20Z" transform="translate(-20 -11)"/>
              </g>
            </g>
          </g>
        </g>
        <g id="apparel-2" data-name="apparel">
          <g class="cls-18" transform="matrix(1, 0, 0, 1, 25, 87)">
            <circle id="Ellipse_1-2" data-name="Ellipse 1" class="cls-6" cx="32.5" cy="32.5" r="32.5" transform="translate(0 53)"/>
          </g>
          <g class="cls-17" transform="matrix(1, 0, 0, 1, 25, 87)">
            <path id="clothes-2" data-name="clothes" class="cls-7" d="M-15.959-114.5a3.278,3.278,0,0,0,.2-1.1,3.268,3.268,0,0,0-.857-2.2,3.27,3.27,0,0,0,.857-2.2,3.268,3.268,0,0,0-.857-2.2,3.27,3.27,0,0,0,.857-2.2,3.3,3.3,0,0,0-3.3-3.3H-31.137v-4.468h-3.3a1.1,1.1,0,0,1-1.1-1.1v-8.862a1.1,1.1,0,0,1,1.1-1.1h10.727l3.556-1.778v-1.517a1.1,1.1,0,0,1,1.1-1.1,1.1,1.1,0,0,0,1.1-1.1,1.1,1.1,0,0,0-1.1-1.1,1.1,1.1,0,0,0-1.1,1.1,1.1,1.1,0,0,1-1.1,1.1,1.1,1.1,0,0,1-1.1-1.1,3.3,3.3,0,0,1,3.3-3.3,3.3,3.3,0,0,1,3.3,3.3,3.3,3.3,0,0,1-2.2,3.109v.607l3.556,1.778H-3.6a1.1,1.1,0,0,1,1.1,1.1v8.862a1.1,1.1,0,0,1-1.1,1.1h-3.3V-115.6a1.1,1.1,0,0,1-1.1,1.1Zm-6.324-26.966a3.3,3.3,0,0,0,3.23,2.65,3.3,3.3,0,0,0,3.231-2.65l-3.231-1.615ZM-38.9-114.5a1.1,1.1,0,0,1-1.1-1.1,1.1,1.1,0,0,1,1.1-1.1h19.849a1.1,1.1,0,0,1,1.1,1.1,1.1,1.1,0,0,1-1.1,1.1Zm0-4.395a1.1,1.1,0,0,1-1.1-1.1,1.1,1.1,0,0,1,1.1-1.1h19.849a1.1,1.1,0,0,1,1.1,1.1,1.1,1.1,0,0,1-1.1,1.1Zm0-4.395a1.1,1.1,0,0,1-1.1-1.1,1.1,1.1,0,0,1,1.1-1.1h19.849a1.1,1.1,0,0,1,1.1,1.1,1.1,1.1,0,0,1-1.1,1.1Z" transform="translate(55 216)"/>
          </g>
        </g>
        <g id="beauty-3" data-name="beauty">
          <g class="cls-16" transform="matrix(1, 0, 0, 1, 25, 87)">
            <circle id="Ellipse_5-2" data-name="Ellipse 5" class="cls-8" cx="32.5" cy="32.5" r="32.5" transform="translate(87 53)"/>
          </g>
          <g class="cls-15" transform="matrix(1, 0, 0, 1, 25, 87)">
            <path id="Beauty-4" data-name="Beauty" class="cls-9" d="M19.211,36.8a1.7,1.7,0,0,1-1.7-1.7V16.688a6.731,6.731,0,0,1,13.461,0V35.1a1.7,1.7,0,0,1-1.7,1.7ZM1.7,36.8A1.7,1.7,0,0,1,0,35.1V26.61A1.7,1.7,0,0,1,1.166,25l.392-10.877A2.628,2.628,0,0,1,3.514,11.7L3.5,1.122A1.33,1.33,0,0,1,3.7.367.814.814,0,0,1,4.381,0a1.261,1.261,0,0,1,.8.338L9.795,4.19a3.517,3.517,0,0,1,1.13,2.421L10.919,11.7a2.626,2.626,0,0,1,1.951,2.422L13.263,25A1.7,1.7,0,0,1,14.43,26.61V35.1a1.7,1.7,0,0,1-1.7,1.7ZM3.573,15.433,3.23,24.908H11.2l-.343-9.475a1.111,1.111,0,0,0-1.1-1.06H4.672A1.111,1.111,0,0,0,3.573,15.433Z" transform="translate(105 65.29)"/>
          </g>
        </g>
        <g id="shoes-3" data-name="shoes">
          <g class="cls-14" transform="matrix(1, 0, 0, 1, 25, 87)">
            <circle id="Ellipse_6-2" data-name="Ellipse 6" class="cls-10" cx="32.5" cy="32.5" r="32.5" transform="translate(173 53)"/>
          </g>
          <g class="cls-13" transform="matrix(1, 0, 0, 1, 25, 87)">
            <path id="Shoes-4" data-name="Shoes" class="cls-11" d="M16,28.18a4.361,4.361,0,0,1-4.01-2.732L6.547,13.072,5.485,27.183a1.072,1.072,0,0,1-1.084,1H3.273a1.078,1.078,0,0,1-1.062-1.127A83.431,83.431,0,0,0,.282,7.609,10.139,10.139,0,0,1,0,6.091,11.74,11.74,0,0,1,1.561.563,1.09,1.09,0,0,1,3.1.174c5.249,3.5,7.692,8.319,10.065,13.678,4.358,9.754,10.037,8.54,10.384,8.714,2.644,0,6.2-1.171,4.1-3.121A41.876,41.876,0,0,1,35.737,23a2.828,2.828,0,0,1,1.128,3.208,2.746,2.746,0,0,1-2.688,1.973Zm7.529-7.3a7.875,7.875,0,0,1-4.319-1.552,17.259,17.259,0,0,1-5.037-7c-.146-.327-.3-.65-.445-.976,2.75,3.054,6.893,6.6,10.2,7.41,1.105.266,2.1.554,3.048.859a4.322,4.322,0,0,1-3.2,1.259Z" transform="translate(187 72)"/>
          </g>
        </g>
      </g>
    </g>
    <text id="Page_Title" data-name="Page Title" class="cls-12" transform="translate(25 90)"><tspan x="0" y="0">Categories</tspan></text>
  </g>
</svg>
