<svg xmlns="http://www.w3.org/2000/svg" xmlns:xlink="http://www.w3.org/1999/xlink" width="665" height="378" viewBox="0 0 665 378">
  <defs>
    <style>
      .cls-1 {
        fill: none;
      }

      .cls-2 {
        clip-path: url(#clip-path);
      }

      .cls-3 {
        fill: url(#pattern);
      }

      .cls-4, .cls-7, .cls-8 {
        fill: #fff;
      }

      .cls-5 {
        fill: #ff6969;
      }

      .cls-6 {
        fill: #727c8e;
        font-family: SegoeUI, Segoe UI;
        letter-spacing: 0.06em;
      }

      .cls-12, .cls-6 {
        font-size: 12px;
      }

      .cls-7 {
        stroke: #fff;
      }

      .cls-8 {
        font-size: 18px;
        letter-spacing: -0.02em;
      }

      .cls-12, .cls-8 {
        font-family: SegoeUI-Light, Segoe UI;
        font-weight: 300;
      }

      .cls-9 {
        fill: url(#pattern-2);
      }

      .cls-10, .cls-12, .cls-13 {
        fill: #515c6f;
      }

      .cls-10 {
        font-size: 30px;
      }

      .cls-10, .cls-13 {
        font-family: SegoeUI-Bold, Segoe UI;
        font-weight: 700;
      }

      .cls-11 {
        clip-path: url(#clip-path-2);
      }

      .cls-13 {
        font-size: 10px;
      }

      .cls-14 {
        fill: url(#pattern-3);
      }

      .cls-15 {
        fill: url(#pattern-4);
      }

      .cls-16 {
        fill: url(#pattern-5);
      }

      .cls-17 {
        filter: url(#Rectangle_3-3);
      }

      .cls-18 {
        filter: url(#Rectangle_3-2);
      }

      .cls-19 {
        filter: url(#Rectangle_3);
      }

      .cls-20 {
        filter: url(#_2c5db0e686bdc80708bb2c8b1fd96fe5);
      }

      .cls-21 {
        filter: url(#Rectangle_1);
      }

      .cls-22 {
        filter: url(#Base);
      }
    </style>
    <clipPath id="clip-path">
      <rect class="cls-1" width="665" height="184"/>
    </clipPath>
    <pattern id="pattern" preserveAspectRatio="xMidYMid slice" width="100%" height="100%" viewBox="0 0 1050 700">
      <image width="1050" height="700" xlink:href="Latest-image.png"/>
    </pattern>
    <filter id="Base" x="-40.5" y="15.5" width="406" height="265" filterUnits="userSpaceOnUse">
      <feOffset dy="8" input="SourceAlpha"/>
      <feGaussianBlur stdDeviation="13.5" result="blur"/>
      <feFlood flood-color="#727c8e" flood-opacity="0.251"/>
      <feComposite operator="in" in2="blur"/>
      <feComposite in="SourceGraphic"/>
    </filter>
    <filter id="Rectangle_1" x="-0.5" y="152.5" width="166" height="84.494" filterUnits="userSpaceOnUse">
      <feOffset dy="8" input="SourceAlpha"/>
      <feGaussianBlur stdDeviation="7.5" result="blur-2"/>
      <feFlood flood-color="#727c8e" flood-opacity="0.361"/>
      <feComposite operator="in" in2="blur-2"/>
      <feComposite in="SourceGraphic"/>
    </filter>
    <pattern id="pattern-2" preserveAspectRatio="xMidYMid slice" width="100%" height="100%" viewBox="0 0 1049 700">
      <image width="1049" height="700" xlink:href="Latest-image2.png"/>
    </pattern>
    <filter id="_2c5db0e686bdc80708bb2c8b1fd96fe5" x="299.5" y="15.5" width="406" height="265" filterUnits="userSpaceOnUse">
      <feOffset dy="8" input="SourceAlpha"/>
      <feGaussianBlur stdDeviation="13.5" result="blur-3"/>
      <feFlood flood-color="#727c8e" flood-opacity="0.251"/>
      <feComposite operator="in" in2="blur-3"/>
      <feComposite in="SourceGraphic"/>
    </filter>
    <clipPath id="clip-path-2">
      <rect class="cls-1" width="325" height="135"/>
    </clipPath>
    <filter id="Rectangle_3" x="-22.5" y="228.5" width="146" height="180" filterUnits="userSpaceOnUse">
      <feOffset dy="8" input="SourceAlpha"/>
      <feGaussianBlur stdDeviation="7.5" result="blur-4"/>
      <feFlood flood-color="#e7eaf0"/>
      <feComposite operator="in" in2="blur-4"/>
      <feComposite in="SourceGraphic"/>
    </filter>
    <pattern id="pattern-3" preserveAspectRatio="xMidYMid slice" width="100%" height="100%" viewBox="0 0 75 69">
      <image width="75" height="69" xlink:href="Latest-image3.png"/>
    </pattern>
    <filter id="Rectangle_3-2" x="89.5" y="228.5" width="146" height="180" filterUnits="userSpaceOnUse">
      <feOffset dy="8" input="SourceAlpha"/>
      <feGaussianBlur stdDeviation="7.5" result="blur-5"/>
      <feFlood flood-color="#e7eaf0"/>
      <feComposite operator="in" in2="blur-5"/>
      <feComposite in="SourceGraphic"/>
    </filter>
    <pattern id="pattern-4" preserveAspectRatio="xMidYMid slice" width="100%" height="100%" viewBox="0 0 77 77">
      <image width="77" height="77" xlink:href="Latest-image4.png"/>
    </pattern>
    <filter id="Rectangle_3-3" x="201.5" y="228.5" width="146" height="180" filterUnits="userSpaceOnUse">
      <feOffset dy="8" input="SourceAlpha"/>
      <feGaussianBlur stdDeviation="7.5" result="blur-6"/>
      <feFlood flood-color="#e7eaf0"/>
      <feComposite operator="in" in2="blur-6"/>
      <feComposite in="SourceGraphic"/>
    </filter>
    <pattern id="pattern-5" preserveAspectRatio="xMidYMid slice" width="100%" height="100%" viewBox="0 0 87 87">
      <image width="87" height="87" xlink:href="Latest-image5.png"/>
    </pattern>
  </defs>
  <g id="Latest" transform="translate(-25 -219)">
    <g id="Repeat_Grid_3" data-name="Repeat Grid 3" class="cls-2" transform="translate(25 267)">
      <g transform="translate(-25 -267)">
        <g id="Banner_1" data-name="Banner 1" transform="translate(0 -44)">
          <g class="cls-22" transform="matrix(1, 0, 0, 1, 25, 263)">
            <rect id="Base-2" data-name="Base" class="cls-3" width="325" height="184" rx="10" transform="translate(0 48)"/>
          </g>
          <g id="Button" transform="translate(-91 30)">
            <g class="cls-21" transform="matrix(1, 0, 0, 1, 116, 233)">
              <rect id="Rectangle_1-2" data-name="Rectangle 1" class="cls-4" width="121" height="39.494" rx="19.747" transform="translate(22 167)"/>
            </g>
            <rect id="Rectangle_2" data-name="Rectangle 2" class="cls-5" width="28.797" height="29.62" rx="14.399" transform="translate(225.266 404.937)"/>
            <text id="SEE_MORE" data-name="SEE MORE" class="cls-6" transform="translate(183.456 424.342)"><tspan x="-29.957" y="0">SEE MORE</tspan></text>
            <path id="Path_11" data-name="Path 11" class="cls-7" d="M26.582,16.758v0a.82.82,0,0,0-.252-.592h0l-4.937-4.937,0,0a.822.822,0,1,0-1.105,1.218L24.6,16.758,20.23,21.125h0a.823.823,0,0,0,1.163,1.163h0l4.937-4.937h0a.82.82,0,0,0,.252-.592Z" transform="translate(216.785 402.987)"/>
          </g>
          <text id="For_all_your_summer_clothing_needs" data-name="For all your 
summer clothing 
needs" class="cls-8" transform="translate(51 349)"><tspan x="0" y="0">For all your </tspan><tspan x="0" y="26">summer clothing </tspan><tspan x="0" y="52">needs</tspan></text>
        </g>
        <g id="Banner_2" data-name="Banner 2" transform="translate(340 -44)">
          <g class="cls-20" transform="matrix(1, 0, 0, 1, -315, 263)">
            <rect id="_2c5db0e686bdc80708bb2c8b1fd96fe5-2" data-name="2c5db0e686bdc80708bb2c8b1fd96fe5" class="cls-9" width="325" height="184" rx="10" transform="translate(340 48)"/>
          </g>
        </g>
      </g>
    </g>
    <text id="Page_Title" data-name="Page Title" class="cls-10" transform="translate(25 251)"><tspan x="0" y="0">Latest</tspan></text>
    <g id="Repeat_Grid_4" data-name="Repeat Grid 4" class="cls-11" transform="translate(25 462)">
      <g transform="translate(-25 -462)">
        <g id="ankle_boots" data-name="ankle boots" transform="translate(0 -44)">
          <g class="cls-19" transform="matrix(1, 0, 0, 1, 25, 263)">
            <rect id="Rectangle_3-4" data-name="Rectangle 3" class="cls-4" width="101" height="135" rx="10" transform="translate(0 243)"/>
          </g>
          <text id="Ankle_Boots-2" data-name="Ankle Boots" class="cls-12" transform="translate(36 616)"><tspan x="0" y="0">Ankle Boots</tspan></text>
          <text id="_49.99" data-name="$49.99" class="cls-13" transform="translate(36 630)"><tspan x="0" y="0">$49.99</tspan></text>
          <rect id="women_shoes_PNG7464" class="cls-14" width="74.751" height="69" transform="translate(37 526)"/>
        </g>
        <g id="backpack" transform="translate(112 -44)">
          <g class="cls-18" transform="matrix(1, 0, 0, 1, -87, 263)">
            <rect id="Rectangle_3-5" data-name="Rectangle 3" class="cls-4" width="101" height="135" rx="10" transform="translate(112 243)"/>
          </g>
          <text id="Backpack-2" data-name="Backpack" class="cls-12" transform="translate(36 616)"><tspan x="0" y="0">Backpack</tspan></text>
          <text id="_20.58" data-name="$20.58" class="cls-13" transform="translate(36 630)"><tspan x="0" y="0">$20.58</tspan></text>
          <rect id="backpack_PNG6354" class="cls-15" width="77" height="77" transform="translate(37 520)"/>
        </g>
        <g id="red_scarf" data-name="red scarf" transform="translate(224 -44)">
          <g class="cls-17" transform="matrix(1, 0, 0, 1, -199, 263)">
            <rect id="Rectangle_3-6" data-name="Rectangle 3" class="cls-4" width="101" height="135" rx="10" transform="translate(224 243)"/>
          </g>
          <text id="Red_Scarf-2" data-name="Red Scarf" class="cls-12" transform="translate(36 616)"><tspan x="0" y="0">Red Scarf</tspan></text>
          <text id="_11.00" data-name="$11.00" class="cls-13" transform="translate(36 630)"><tspan x="0" y="0">$11.00</tspan></text>
          <rect id="scarf_PNG48" class="cls-16" width="87" height="87" transform="translate(30 515)"/>
        </g>
      </g>
    </g>
  </g>
</svg>
