<svg xmlns="http://www.w3.org/2000/svg" xmlns:xlink="http://www.w3.org/1999/xlink" width="236.5" height="374" viewBox="0 0 236.5 374">
  <defs>
    <style>
      .cls-1 {
        fill: none;
      }

      .cls-2 {
        clip-path: url(#clip-path);
      }

      .cls-3, .cls-5 {
        fill: #515c6f;
        font-family: SegoeUI, Segoe UI;
      }

      .cls-3 {
        font-size: 12px;
        letter-spacing: 0.07em;
        opacity: 0.5;
      }

      .cls-4, .cls-7 {
        fill: #fff;
      }

      .cls-5 {
        font-size: 15px;
      }

      .cls-6 {
        fill: #727c8e;
        opacity: 0.2;
      }

      .cls-8, .cls-9 {
        stroke: none;
      }

      .cls-9 {
        fill: #727c8e;
      }

      .cls-10 {
        filter: url(#Rectangle_33-8);
      }

      .cls-11 {
        filter: url(#Rectangle_33-7);
      }

      .cls-12 {
        filter: url(#Rectangle_33-6);
      }

      .cls-13 {
        filter: url(#Rectangle_33-5);
      }

      .cls-14 {
        filter: url(#Rectangle_33-4);
      }

      .cls-15 {
        filter: url(#Rectangle_33-3);
      }

      .cls-16 {
        filter: url(#Rectangle_33-2);
      }

      .cls-17 {
        filter: url(#Rectangle_33);
      }
    </style>
    <clipPath id="clip-path">
      <rect class="cls-1" width="236.5" height="374"/>
    </clipPath>
    <filter id="Rectangle_33" x="-22.5" y="7.5" width="281.5" height="89" filterUnits="userSpaceOnUse">
      <feOffset dy="8" input="SourceAlpha"/>
      <feGaussianBlur stdDeviation="7.5" result="blur"/>
      <feFlood flood-color="#e7eaf0"/>
      <feComposite operator="in" in2="blur"/>
      <feComposite in="SourceGraphic"/>
    </filter>
    <filter id="Rectangle_33-2" x="-22.5" y="51.5" width="281.5" height="89" filterUnits="userSpaceOnUse">
      <feOffset dy="8" input="SourceAlpha"/>
      <feGaussianBlur stdDeviation="7.5" result="blur-2"/>
      <feFlood flood-color="#e7eaf0"/>
      <feComposite operator="in" in2="blur-2"/>
      <feComposite in="SourceGraphic"/>
    </filter>
    <filter id="Rectangle_33-3" x="-22.5" y="95.5" width="281.5" height="89" filterUnits="userSpaceOnUse">
      <feOffset dy="8" input="SourceAlpha"/>
      <feGaussianBlur stdDeviation="7.5" result="blur-3"/>
      <feFlood flood-color="#e7eaf0"/>
      <feComposite operator="in" in2="blur-3"/>
      <feComposite in="SourceGraphic"/>
    </filter>
    <filter id="Rectangle_33-4" x="-22.5" y="139.5" width="281.5" height="89" filterUnits="userSpaceOnUse">
      <feOffset dy="8" input="SourceAlpha"/>
      <feGaussianBlur stdDeviation="7.5" result="blur-4"/>
      <feFlood flood-color="#e7eaf0"/>
      <feComposite operator="in" in2="blur-4"/>
      <feComposite in="SourceGraphic"/>
    </filter>
    <filter id="Rectangle_33-5" x="-22.5" y="183.5" width="281.5" height="89" filterUnits="userSpaceOnUse">
      <feOffset dy="8" input="SourceAlpha"/>
      <feGaussianBlur stdDeviation="7.5" result="blur-5"/>
      <feFlood flood-color="#e7eaf0"/>
      <feComposite operator="in" in2="blur-5"/>
      <feComposite in="SourceGraphic"/>
    </filter>
    <filter id="Rectangle_33-6" x="-22.5" y="227.5" width="281.5" height="89" filterUnits="userSpaceOnUse">
      <feOffset dy="8" input="SourceAlpha"/>
      <feGaussianBlur stdDeviation="7.5" result="blur-6"/>
      <feFlood flood-color="#e7eaf0"/>
      <feComposite operator="in" in2="blur-6"/>
      <feComposite in="SourceGraphic"/>
    </filter>
    <filter id="Rectangle_33-7" x="-22.5" y="271.5" width="281.5" height="89" filterUnits="userSpaceOnUse">
      <feOffset dy="8" input="SourceAlpha"/>
      <feGaussianBlur stdDeviation="7.5" result="blur-7"/>
      <feFlood flood-color="#e7eaf0"/>
      <feComposite operator="in" in2="blur-7"/>
      <feComposite in="SourceGraphic"/>
    </filter>
    <filter id="Rectangle_33-8" x="-22.5" y="315.5" width="281.5" height="89" filterUnits="userSpaceOnUse">
      <feOffset dy="8" input="SourceAlpha"/>
      <feGaussianBlur stdDeviation="7.5" result="blur-8"/>
      <feFlood flood-color="#e7eaf0"/>
      <feComposite operator="in" in2="blur-8"/>
      <feComposite in="SourceGraphic"/>
    </filter>
  </defs>
  <g id="Mens_Apparel" data-name="Mens Apparel" class="cls-2">
    <g id="Mens_Apparel-2" data-name="Mens Apparel" class="cls-2">
      <g id="Mens_Apparel-3" data-name="Mens Apparel" transform="translate(-130 -132)">
        <text id="Page_Title" data-name="Page Title" class="cls-3" transform="translate(130 141)"><tspan x="0" y="0">MEN’S APPAREL</tspan></text>
        <g id="tshirts" transform="translate(130 154)">
          <g class="cls-17" transform="matrix(1, 0, 0, 1, 0, -22)">
            <path id="Rectangle_33-9" data-name="Rectangle 33" class="cls-4" d="M10,0H226.5a10,10,0,0,1,10,10V44a0,0,0,0,1,0,0H0a0,0,0,0,1,0,0V10A10,10,0,0,1,10,0Z" transform="translate(0 22)"/>
          </g>
          <text id="T-shirts" class="cls-5" transform="translate(15 27)"><tspan x="0" y="0">T-shirts</tspan></text>
          <g id="Group_36" data-name="Group 36" transform="translate(203.5 13)">
            <circle id="Ellipse_11" data-name="Ellipse 11" class="cls-6" cx="9" cy="9" r="9"/>
            <g id="Union_1" data-name="Union 1" class="cls-7" transform="translate(3.757 9) rotate(-45)">
              <path class="cls-8" d="M 5.000400066375732 5.50029993057251 L 0.9998999834060669 5.50029993057251 C 0.7242499589920044 5.50029993057251 0.4999999701976776 5.276050090789795 0.4999999701976776 5.000400066375732 C 0.4999999701976776 4.724259853363037 0.7242499589920044 4.499599933624268 0.9998999834060669 4.499599933624268 L 3.999599933624268 4.499599933624268 L 4.499599933624268 4.499599933624268 L 4.499599933624268 3.999599933624268 L 4.499599933624268 0.9998999834060669 C 4.499599933624268 0.7242499589920044 4.724259853363037 0.4999999701976776 5.000400066375732 0.4999999701976776 C 5.276050090789795 0.4999999701976776 5.50029993057251 0.7242499589920044 5.50029993057251 0.9998999834060669 L 5.50029993057251 5.000400066375732 C 5.50029993057251 5.276050090789795 5.276050090789795 5.50029993057251 5.000400066375732 5.50029993057251 Z"/>
              <path class="cls-9" d="M 5.000400066375732 5.00029993057251 L 5.00029993057251 5.000400066375732 L 4.999599933624268 0.9998999834060669 L 4.999599933624268 4.999599933624268 L 0.9998999834060669 5.00029993057251 L 5.000400066375732 5.00029993057251 M 5.000400066375732 6.00029993057251 L 0.9998999834060669 6.00029993057251 C 0.4472999572753906 6.00029993057251 -3.471374654395731e-08 5.55210018157959 -3.471374654395731e-08 5.000400066375732 C -3.471374654395731e-08 4.447800159454346 0.4472999572753906 3.999599933624268 0.9998999834060669 3.999599933624268 L 3.999599933624268 3.999599933624268 L 3.999599933624268 0.9998999834060669 C 3.999599933624268 0.4472999572753906 4.447800159454346 -3.471374654395731e-08 5.000400066375732 -3.471374654395731e-08 C 5.55210018157959 -3.471374654395731e-08 6.00029993057251 0.4472999572753906 6.00029993057251 0.9998999834060669 L 6.00029993057251 5.000400066375732 C 6.00029993057251 5.55210018157959 5.55210018157959 6.00029993057251 5.000400066375732 6.00029993057251 Z"/>
            </g>
          </g>
        </g>
        <g id="shirts" transform="translate(130 198)">
          <g class="cls-16" transform="matrix(1, 0, 0, 1, 0, -66)">
            <rect id="Rectangle_33-10" data-name="Rectangle 33" class="cls-4" width="236.5" height="44" transform="translate(0 66)"/>
          </g>
          <text id="Shirts-2" data-name="Shirts" class="cls-5" transform="translate(15 27)"><tspan x="0" y="0">Shirts</tspan></text>
          <g id="Group_36-2" data-name="Group 36" transform="translate(203.5 13)">
            <circle id="Ellipse_11-2" data-name="Ellipse 11" class="cls-6" cx="9" cy="9" r="9"/>
            <g id="Union_1-2" data-name="Union 1" class="cls-7" transform="translate(3.757 9) rotate(-45)">
              <path class="cls-8" d="M 5.000400066375732 5.50029993057251 L 0.9998999834060669 5.50029993057251 C 0.7242499589920044 5.50029993057251 0.4999999701976776 5.276050090789795 0.4999999701976776 5.000400066375732 C 0.4999999701976776 4.724259853363037 0.7242499589920044 4.499599933624268 0.9998999834060669 4.499599933624268 L 3.999599933624268 4.499599933624268 L 4.499599933624268 4.499599933624268 L 4.499599933624268 3.999599933624268 L 4.499599933624268 0.9998999834060669 C 4.499599933624268 0.7242499589920044 4.724259853363037 0.4999999701976776 5.000400066375732 0.4999999701976776 C 5.276050090789795 0.4999999701976776 5.50029993057251 0.7242499589920044 5.50029993057251 0.9998999834060669 L 5.50029993057251 5.000400066375732 C 5.50029993057251 5.276050090789795 5.276050090789795 5.50029993057251 5.000400066375732 5.50029993057251 Z"/>
              <path class="cls-9" d="M 5.000400066375732 5.00029993057251 L 5.00029993057251 5.000400066375732 L 4.999599933624268 0.9998999834060669 L 4.999599933624268 4.999599933624268 L 0.9998999834060669 5.00029993057251 L 5.000400066375732 5.00029993057251 M 5.000400066375732 6.00029993057251 L 0.9998999834060669 6.00029993057251 C 0.4472999572753906 6.00029993057251 -3.471374654395731e-08 5.55210018157959 -3.471374654395731e-08 5.000400066375732 C -3.471374654395731e-08 4.447800159454346 0.4472999572753906 3.999599933624268 0.9998999834060669 3.999599933624268 L 3.999599933624268 3.999599933624268 L 3.999599933624268 0.9998999834060669 C 3.999599933624268 0.4472999572753906 4.447800159454346 -3.471374654395731e-08 5.000400066375732 -3.471374654395731e-08 C 5.55210018157959 -3.471374654395731e-08 6.00029993057251 0.4472999572753906 6.00029993057251 0.9998999834060669 L 6.00029993057251 5.000400066375732 C 6.00029993057251 5.55210018157959 5.55210018157959 6.00029993057251 5.000400066375732 6.00029993057251 Z"/>
            </g>
          </g>
        </g>
        <g id="pants" transform="translate(130 242)">
          <g class="cls-15" transform="matrix(1, 0, 0, 1, 0, -110)">
            <rect id="Rectangle_33-11" data-name="Rectangle 33" class="cls-4" width="236.5" height="44" transform="translate(0 110)"/>
          </g>
          <text id="Pants_Jeans" data-name="Pants &amp; Jeans" class="cls-5" transform="translate(15 27)"><tspan x="0" y="0">Pants &amp; Jeans</tspan></text>
          <g id="Group_36-3" data-name="Group 36" transform="translate(203.5 13)">
            <circle id="Ellipse_11-3" data-name="Ellipse 11" class="cls-6" cx="9" cy="9" r="9"/>
            <g id="Union_1-3" data-name="Union 1" class="cls-7" transform="translate(3.757 9) rotate(-45)">
              <path class="cls-8" d="M 5.000400066375732 5.50029993057251 L 0.9998999834060669 5.50029993057251 C 0.7242499589920044 5.50029993057251 0.4999999701976776 5.276050090789795 0.4999999701976776 5.000400066375732 C 0.4999999701976776 4.724259853363037 0.7242499589920044 4.499599933624268 0.9998999834060669 4.499599933624268 L 3.999599933624268 4.499599933624268 L 4.499599933624268 4.499599933624268 L 4.499599933624268 3.999599933624268 L 4.499599933624268 0.9998999834060669 C 4.499599933624268 0.7242499589920044 4.724259853363037 0.4999999701976776 5.000400066375732 0.4999999701976776 C 5.276050090789795 0.4999999701976776 5.50029993057251 0.7242499589920044 5.50029993057251 0.9998999834060669 L 5.50029993057251 5.000400066375732 C 5.50029993057251 5.276050090789795 5.276050090789795 5.50029993057251 5.000400066375732 5.50029993057251 Z"/>
              <path class="cls-9" d="M 5.000400066375732 5.00029993057251 L 5.00029993057251 5.000400066375732 L 4.999599933624268 0.9998999834060669 L 4.999599933624268 4.999599933624268 L 0.9998999834060669 5.00029993057251 L 5.000400066375732 5.00029993057251 M 5.000400066375732 6.00029993057251 L 0.9998999834060669 6.00029993057251 C 0.4472999572753906 6.00029993057251 -3.471374654395731e-08 5.55210018157959 -3.471374654395731e-08 5.000400066375732 C -3.471374654395731e-08 4.447800159454346 0.4472999572753906 3.999599933624268 0.9998999834060669 3.999599933624268 L 3.999599933624268 3.999599933624268 L 3.999599933624268 0.9998999834060669 C 3.999599933624268 0.4472999572753906 4.447800159454346 -3.471374654395731e-08 5.000400066375732 -3.471374654395731e-08 C 5.55210018157959 -3.471374654395731e-08 6.00029993057251 0.4472999572753906 6.00029993057251 0.9998999834060669 L 6.00029993057251 5.000400066375732 C 6.00029993057251 5.55210018157959 5.55210018157959 6.00029993057251 5.000400066375732 6.00029993057251 Z"/>
            </g>
          </g>
        </g>
        <g id="socks" transform="translate(130 286)">
          <g class="cls-14" transform="matrix(1, 0, 0, 1, 0, -154)">
            <rect id="Rectangle_33-12" data-name="Rectangle 33" class="cls-4" width="236.5" height="44" transform="translate(0 154)"/>
          </g>
          <text id="Socks_Ties" data-name="Socks &amp; Ties" class="cls-5" transform="translate(15 27)"><tspan x="0" y="0">Socks &amp; Ties</tspan></text>
          <g id="Group_36-4" data-name="Group 36" transform="translate(203.5 13)">
            <circle id="Ellipse_11-4" data-name="Ellipse 11" class="cls-6" cx="9" cy="9" r="9"/>
            <g id="Union_1-4" data-name="Union 1" class="cls-7" transform="translate(3.757 9) rotate(-45)">
              <path class="cls-8" d="M 5.000400066375732 5.50029993057251 L 0.9998999834060669 5.50029993057251 C 0.7242499589920044 5.50029993057251 0.4999999701976776 5.276050090789795 0.4999999701976776 5.000400066375732 C 0.4999999701976776 4.724259853363037 0.7242499589920044 4.499599933624268 0.9998999834060669 4.499599933624268 L 3.999599933624268 4.499599933624268 L 4.499599933624268 4.499599933624268 L 4.499599933624268 3.999599933624268 L 4.499599933624268 0.9998999834060669 C 4.499599933624268 0.7242499589920044 4.724259853363037 0.4999999701976776 5.000400066375732 0.4999999701976776 C 5.276050090789795 0.4999999701976776 5.50029993057251 0.7242499589920044 5.50029993057251 0.9998999834060669 L 5.50029993057251 5.000400066375732 C 5.50029993057251 5.276050090789795 5.276050090789795 5.50029993057251 5.000400066375732 5.50029993057251 Z"/>
              <path class="cls-9" d="M 5.000400066375732 5.00029993057251 L 5.00029993057251 5.000400066375732 L 4.999599933624268 0.9998999834060669 L 4.999599933624268 4.999599933624268 L 0.9998999834060669 5.00029993057251 L 5.000400066375732 5.00029993057251 M 5.000400066375732 6.00029993057251 L 0.9998999834060669 6.00029993057251 C 0.4472999572753906 6.00029993057251 -3.471374654395731e-08 5.55210018157959 -3.471374654395731e-08 5.000400066375732 C -3.471374654395731e-08 4.447800159454346 0.4472999572753906 3.999599933624268 0.9998999834060669 3.999599933624268 L 3.999599933624268 3.999599933624268 L 3.999599933624268 0.9998999834060669 C 3.999599933624268 0.4472999572753906 4.447800159454346 -3.471374654395731e-08 5.000400066375732 -3.471374654395731e-08 C 5.55210018157959 -3.471374654395731e-08 6.00029993057251 0.4472999572753906 6.00029993057251 0.9998999834060669 L 6.00029993057251 5.000400066375732 C 6.00029993057251 5.55210018157959 5.55210018157959 6.00029993057251 5.000400066375732 6.00029993057251 Z"/>
            </g>
          </g>
        </g>
        <g id="underwear" transform="translate(130 330)">
          <g class="cls-13" transform="matrix(1, 0, 0, 1, 0, -198)">
            <rect id="Rectangle_33-13" data-name="Rectangle 33" class="cls-4" width="236.5" height="44" transform="translate(0 198)"/>
          </g>
          <text id="Underwear-2" data-name="Underwear" class="cls-5" transform="translate(15 27)"><tspan x="0" y="0">Underwear</tspan></text>
          <g id="Group_36-5" data-name="Group 36" transform="translate(203.5 13)">
            <circle id="Ellipse_11-5" data-name="Ellipse 11" class="cls-6" cx="9" cy="9" r="9"/>
            <g id="Union_1-5" data-name="Union 1" class="cls-7" transform="translate(3.757 9) rotate(-45)">
              <path class="cls-8" d="M 5.000400066375732 5.50029993057251 L 0.9998999834060669 5.50029993057251 C 0.7242499589920044 5.50029993057251 0.4999999701976776 5.276050090789795 0.4999999701976776 5.000400066375732 C 0.4999999701976776 4.724259853363037 0.7242499589920044 4.499599933624268 0.9998999834060669 4.499599933624268 L 3.999599933624268 4.499599933624268 L 4.499599933624268 4.499599933624268 L 4.499599933624268 3.999599933624268 L 4.499599933624268 0.9998999834060669 C 4.499599933624268 0.7242499589920044 4.724259853363037 0.4999999701976776 5.000400066375732 0.4999999701976776 C 5.276050090789795 0.4999999701976776 5.50029993057251 0.7242499589920044 5.50029993057251 0.9998999834060669 L 5.50029993057251 5.000400066375732 C 5.50029993057251 5.276050090789795 5.276050090789795 5.50029993057251 5.000400066375732 5.50029993057251 Z"/>
              <path class="cls-9" d="M 5.000400066375732 5.00029993057251 L 5.00029993057251 5.000400066375732 L 4.999599933624268 0.9998999834060669 L 4.999599933624268 4.999599933624268 L 0.9998999834060669 5.00029993057251 L 5.000400066375732 5.00029993057251 M 5.000400066375732 6.00029993057251 L 0.9998999834060669 6.00029993057251 C 0.4472999572753906 6.00029993057251 -3.471374654395731e-08 5.55210018157959 -3.471374654395731e-08 5.000400066375732 C -3.471374654395731e-08 4.447800159454346 0.4472999572753906 3.999599933624268 0.9998999834060669 3.999599933624268 L 3.999599933624268 3.999599933624268 L 3.999599933624268 0.9998999834060669 C 3.999599933624268 0.4472999572753906 4.447800159454346 -3.471374654395731e-08 5.000400066375732 -3.471374654395731e-08 C 5.55210018157959 -3.471374654395731e-08 6.00029993057251 0.4472999572753906 6.00029993057251 0.9998999834060669 L 6.00029993057251 5.000400066375732 C 6.00029993057251 5.55210018157959 5.55210018157959 6.00029993057251 5.000400066375732 6.00029993057251 Z"/>
            </g>
          </g>
        </g>
        <g id="jackets" transform="translate(130 374)">
          <g class="cls-12" transform="matrix(1, 0, 0, 1, 0, -242)">
            <rect id="Rectangle_33-14" data-name="Rectangle 33" class="cls-4" width="236.5" height="44" transform="translate(0 242)"/>
          </g>
          <text id="Jackets-2" data-name="Jackets" class="cls-5" transform="translate(15 27)"><tspan x="0" y="0">Jackets</tspan></text>
          <g id="Group_36-6" data-name="Group 36" transform="translate(203.5 13)">
            <circle id="Ellipse_11-6" data-name="Ellipse 11" class="cls-6" cx="9" cy="9" r="9"/>
            <g id="Union_1-6" data-name="Union 1" class="cls-7" transform="translate(3.757 9) rotate(-45)">
              <path class="cls-8" d="M 5.000400066375732 5.50029993057251 L 0.9998999834060669 5.50029993057251 C 0.7242499589920044 5.50029993057251 0.4999999701976776 5.276050090789795 0.4999999701976776 5.000400066375732 C 0.4999999701976776 4.724259853363037 0.7242499589920044 4.499599933624268 0.9998999834060669 4.499599933624268 L 3.999599933624268 4.499599933624268 L 4.499599933624268 4.499599933624268 L 4.499599933624268 3.999599933624268 L 4.499599933624268 0.9998999834060669 C 4.499599933624268 0.7242499589920044 4.724259853363037 0.4999999701976776 5.000400066375732 0.4999999701976776 C 5.276050090789795 0.4999999701976776 5.50029993057251 0.7242499589920044 5.50029993057251 0.9998999834060669 L 5.50029993057251 5.000400066375732 C 5.50029993057251 5.276050090789795 5.276050090789795 5.50029993057251 5.000400066375732 5.50029993057251 Z"/>
              <path class="cls-9" d="M 5.000400066375732 5.00029993057251 L 5.00029993057251 5.000400066375732 L 4.999599933624268 0.9998999834060669 L 4.999599933624268 4.999599933624268 L 0.9998999834060669 5.00029993057251 L 5.000400066375732 5.00029993057251 M 5.000400066375732 6.00029993057251 L 0.9998999834060669 6.00029993057251 C 0.4472999572753906 6.00029993057251 -3.471374654395731e-08 5.55210018157959 -3.471374654395731e-08 5.000400066375732 C -3.471374654395731e-08 4.447800159454346 0.4472999572753906 3.999599933624268 0.9998999834060669 3.999599933624268 L 3.999599933624268 3.999599933624268 L 3.999599933624268 0.9998999834060669 C 3.999599933624268 0.4472999572753906 4.447800159454346 -3.471374654395731e-08 5.000400066375732 -3.471374654395731e-08 C 5.55210018157959 -3.471374654395731e-08 6.00029993057251 0.4472999572753906 6.00029993057251 0.9998999834060669 L 6.00029993057251 5.000400066375732 C 6.00029993057251 5.55210018157959 5.55210018157959 6.00029993057251 5.000400066375732 6.00029993057251 Z"/>
            </g>
          </g>
        </g>
        <g id="coats" transform="translate(130 418)">
          <g class="cls-11" transform="matrix(1, 0, 0, 1, 0, -286)">
            <rect id="Rectangle_33-15" data-name="Rectangle 33" class="cls-4" width="236.5" height="44" transform="translate(0 286)"/>
          </g>
          <text id="Coats-2" data-name="Coats" class="cls-5" transform="translate(15 27)"><tspan x="0" y="0">Coats</tspan></text>
          <g id="Group_36-7" data-name="Group 36" transform="translate(203.5 13)">
            <circle id="Ellipse_11-7" data-name="Ellipse 11" class="cls-6" cx="9" cy="9" r="9"/>
            <g id="Union_1-7" data-name="Union 1" class="cls-7" transform="translate(3.757 9) rotate(-45)">
              <path class="cls-8" d="M 5.000400066375732 5.50029993057251 L 0.9998999834060669 5.50029993057251 C 0.7242499589920044 5.50029993057251 0.4999999701976776 5.276050090789795 0.4999999701976776 5.000400066375732 C 0.4999999701976776 4.724259853363037 0.7242499589920044 4.499599933624268 0.9998999834060669 4.499599933624268 L 3.999599933624268 4.499599933624268 L 4.499599933624268 4.499599933624268 L 4.499599933624268 3.999599933624268 L 4.499599933624268 0.9998999834060669 C 4.499599933624268 0.7242499589920044 4.724259853363037 0.4999999701976776 5.000400066375732 0.4999999701976776 C 5.276050090789795 0.4999999701976776 5.50029993057251 0.7242499589920044 5.50029993057251 0.9998999834060669 L 5.50029993057251 5.000400066375732 C 5.50029993057251 5.276050090789795 5.276050090789795 5.50029993057251 5.000400066375732 5.50029993057251 Z"/>
              <path class="cls-9" d="M 5.000400066375732 5.00029993057251 L 5.00029993057251 5.000400066375732 L 4.999599933624268 0.9998999834060669 L 4.999599933624268 4.999599933624268 L 0.9998999834060669 5.00029993057251 L 5.000400066375732 5.00029993057251 M 5.000400066375732 6.00029993057251 L 0.9998999834060669 6.00029993057251 C 0.4472999572753906 6.00029993057251 -3.471374654395731e-08 5.55210018157959 -3.471374654395731e-08 5.000400066375732 C -3.471374654395731e-08 4.447800159454346 0.4472999572753906 3.999599933624268 0.9998999834060669 3.999599933624268 L 3.999599933624268 3.999599933624268 L 3.999599933624268 0.9998999834060669 C 3.999599933624268 0.4472999572753906 4.447800159454346 -3.471374654395731e-08 5.000400066375732 -3.471374654395731e-08 C 5.55210018157959 -3.471374654395731e-08 6.00029993057251 0.4472999572753906 6.00029993057251 0.9998999834060669 L 6.00029993057251 5.000400066375732 C 6.00029993057251 5.55210018157959 5.55210018157959 6.00029993057251 5.000400066375732 6.00029993057251 Z"/>
            </g>
          </g>
        </g>
        <g id="swaters" transform="translate(130 462)">
          <g class="cls-10" transform="matrix(1, 0, 0, 1, 0, -330)">
            <path id="Rectangle_33-16" data-name="Rectangle 33" class="cls-4" d="M0,0H236.5a0,0,0,0,1,0,0V34a10,10,0,0,1-10,10H10A10,10,0,0,1,0,34V0A0,0,0,0,1,0,0Z" transform="translate(0 330)"/>
          </g>
          <text id="Sweaters" class="cls-5" transform="translate(15 27)"><tspan x="0" y="0">Sweaters</tspan></text>
          <g id="Group_36-8" data-name="Group 36" transform="translate(203.5 13)">
            <circle id="Ellipse_11-8" data-name="Ellipse 11" class="cls-6" cx="9" cy="9" r="9"/>
            <g id="Union_1-8" data-name="Union 1" class="cls-7" transform="translate(3.757 9) rotate(-45)">
              <path class="cls-8" d="M 5.000400066375732 5.50029993057251 L 0.9998999834060669 5.50029993057251 C 0.7242499589920044 5.50029993057251 0.4999999701976776 5.276050090789795 0.4999999701976776 5.000400066375732 C 0.4999999701976776 4.724259853363037 0.7242499589920044 4.499599933624268 0.9998999834060669 4.499599933624268 L 3.999599933624268 4.499599933624268 L 4.499599933624268 4.499599933624268 L 4.499599933624268 3.999599933624268 L 4.499599933624268 0.9998999834060669 C 4.499599933624268 0.7242499589920044 4.724259853363037 0.4999999701976776 5.000400066375732 0.4999999701976776 C 5.276050090789795 0.4999999701976776 5.50029993057251 0.7242499589920044 5.50029993057251 0.9998999834060669 L 5.50029993057251 5.000400066375732 C 5.50029993057251 5.276050090789795 5.276050090789795 5.50029993057251 5.000400066375732 5.50029993057251 Z"/>
              <path class="cls-9" d="M 5.000400066375732 5.00029993057251 L 5.00029993057251 5.000400066375732 L 4.999599933624268 0.9998999834060669 L 4.999599933624268 4.999599933624268 L 0.9998999834060669 5.00029993057251 L 5.000400066375732 5.00029993057251 M 5.000400066375732 6.00029993057251 L 0.9998999834060669 6.00029993057251 C 0.4472999572753906 6.00029993057251 -3.471374654395731e-08 5.55210018157959 -3.471374654395731e-08 5.000400066375732 C -3.471374654395731e-08 4.447800159454346 0.4472999572753906 3.999599933624268 0.9998999834060669 3.999599933624268 L 3.999599933624268 3.999599933624268 L 3.999599933624268 0.9998999834060669 C 3.999599933624268 0.4472999572753906 4.447800159454346 -3.471374654395731e-08 5.000400066375732 -3.471374654395731e-08 C 5.55210018157959 -3.471374654395731e-08 6.00029993057251 0.4472999572753906 6.00029993057251 0.9998999834060669 L 6.00029993057251 5.000400066375732 C 6.00029993057251 5.55210018157959 5.55210018157959 6.00029993057251 5.000400066375732 6.00029993057251 Z"/>
            </g>
          </g>
        </g>
      </g>
    </g>
  </g>
</svg>
