<svg xmlns="http://www.w3.org/2000/svg" xmlns:xlink="http://www.w3.org/1999/xlink" width="429" height="755" viewBox="0 0 429 755">
  <defs>
    <style>
      .cls-1, .cls-12, .cls-7 {
        fill: #fff;
      }

      .cls-2, .cls-4, .cls-5 {
        fill: #515c6f;
      }

      .cls-12, .cls-2, .cls-3 {
        font-size: 12px;
      }

      .cls-2, .cls-3, .cls-4, .cls-5 {
        font-family: SegoeUI, Segoe UI;
      }

      .cls-2, .cls-3 {
        letter-spacing: 0.07em;
      }

      .cls-2 {
        opacity: 0.5;
      }

      .cls-11, .cls-13, .cls-3 {
        fill: #ff6969;
      }

      .cls-4, .cls-5 {
        font-size: 15px;
      }

      .cls-5 {
        opacity: 0.4;
      }

      .cls-6 {
        fill: #727c8e;
        opacity: 0.2;
      }

      .cls-8 {
        fill: #77cbff;
      }

      .cls-9 {
        fill: #ff77e5;
      }

      .cls-10 {
        fill: #c5dc1b;
      }

      .cls-12 {
        font-family: SegoeUI-Bold, Segoe UI;
        font-weight: 700;
        letter-spacing: 0.06em;
      }

      .cls-13 {
        stroke: #ff6969;
      }

      .cls-14, .cls-15 {
        stroke: none;
      }

      .cls-15 {
        fill: #727c8e;
      }

      .cls-16 {
        filter: url(#Rectangle_4);
      }

      .cls-17 {
        filter: url(#base);
      }
    </style>
    <filter id="base" x="0" y="0" width="429" height="755" filterUnits="userSpaceOnUse">
      <feOffset dy="63" input="SourceAlpha"/>
      <feGaussianBlur stdDeviation="28" result="blur"/>
      <feFlood flood-color="#727c8e" flood-opacity="0.306"/>
      <feComposite operator="in" in2="blur"/>
      <feComposite in="SourceGraphic"/>
    </filter>
    <filter id="Rectangle_4" x="89" y="532" width="251" height="76" filterUnits="userSpaceOnUse">
      <feOffset dy="5" input="SourceAlpha"/>
      <feGaussianBlur stdDeviation="5" result="blur-2"/>
      <feFlood flood-color="#ff6969" flood-opacity="0.396"/>
      <feComposite operator="in" in2="blur-2"/>
      <feComposite in="SourceGraphic"/>
    </filter>
  </defs>
  <g id="menu" transform="translate(84 21)">
    <g class="cls-17" transform="matrix(1, 0, 0, 1, -84, -21)">
      <rect id="base-2" data-name="base" class="cls-1" width="261" height="587" transform="translate(84 21)"/>
    </g>
    <g id="list" transform="translate(-130 -117)">
      <text id="title" class="cls-2" transform="translate(150 141)"><tspan x="0" y="0">REFINE RESULTS</tspan></text>
      <text id="clear" class="cls-3" transform="translate(371 141)"><tspan x="-37.426" y="0">CLEAR</tspan></text>
      <g id="view" transform="translate(0 7)">
        <text id="View-2" data-name="View" class="cls-4" transform="translate(150 181)"><tspan x="0" y="0">View</tspan></text>
        <text id="Thumbnails" class="cls-5" transform="translate(338 181)"><tspan x="-76.326" y="0">Thumbnails</tspan></text>
        <g id="Group_36" data-name="Group 36" transform="translate(352.5 167)">
          <circle id="Ellipse_11" data-name="Ellipse 11" class="cls-6" cx="9" cy="9" r="9"/>
          <g id="Union_1" data-name="Union 1" class="cls-7" transform="translate(3.757 9) rotate(-45)">
            <path class="cls-14" d="M 5.000400066375732 5.50029993057251 L 0.9998999834060669 5.50029993057251 C 0.7242499589920044 5.50029993057251 0.4999999701976776 5.276050090789795 0.4999999701976776 5.000400066375732 C 0.4999999701976776 4.724259853363037 0.7242499589920044 4.499599933624268 0.9998999834060669 4.499599933624268 L 3.999599933624268 4.499599933624268 L 4.499599933624268 4.499599933624268 L 4.499599933624268 3.999599933624268 L 4.499599933624268 0.9998999834060669 C 4.499599933624268 0.7242499589920044 4.724259853363037 0.4999999701976776 5.000400066375732 0.4999999701976776 C 5.276050090789795 0.4999999701976776 5.50029993057251 0.7242499589920044 5.50029993057251 0.9998999834060669 L 5.50029993057251 5.000400066375732 C 5.50029993057251 5.276050090789795 5.276050090789795 5.50029993057251 5.000400066375732 5.50029993057251 Z"/>
            <path class="cls-15" d="M 5.000400066375732 5.00029993057251 L 5.00029993057251 5.000400066375732 L 4.999599933624268 0.9998999834060669 L 4.999599933624268 4.999599933624268 L 0.9998999834060669 5.00029993057251 L 5.000400066375732 5.00029993057251 M 5.000400066375732 6.00029993057251 L 0.9998999834060669 6.00029993057251 C 0.4472999572753906 6.00029993057251 -3.471374654395731e-08 5.55210018157959 -3.471374654395731e-08 5.000400066375732 C -3.471374654395731e-08 4.447800159454346 0.4472999572753906 3.999599933624268 0.9998999834060669 3.999599933624268 L 3.999599933624268 3.999599933624268 L 3.999599933624268 0.9998999834060669 C 3.999599933624268 0.4472999572753906 4.447800159454346 -3.471374654395731e-08 5.000400066375732 -3.471374654395731e-08 C 5.55210018157959 -3.471374654395731e-08 6.00029993057251 0.4472999572753906 6.00029993057251 0.9998999834060669 L 6.00029993057251 5.000400066375732 C 6.00029993057251 5.55210018157959 5.55210018157959 6.00029993057251 5.000400066375732 6.00029993057251 Z"/>
          </g>
        </g>
      </g>
      <g id="category" transform="translate(0 11)">
        <text id="Category-2" data-name="Category" class="cls-4" transform="translate(150 225)"><tspan x="0" y="0">Category</tspan></text>
        <text id="Men_s_Apparel" data-name="Men’s Apparel" class="cls-5" transform="translate(338 225)"><tspan x="-95.347" y="0">Men’s Apparel</tspan></text>
        <g id="Group_36-2" data-name="Group 36" transform="translate(352.5 211)">
          <circle id="Ellipse_11-2" data-name="Ellipse 11" class="cls-6" cx="9" cy="9" r="9"/>
          <g id="Union_1-2" data-name="Union 1" class="cls-7" transform="translate(3.757 9) rotate(-45)">
            <path class="cls-14" d="M 5.000400066375732 5.50029993057251 L 0.9998999834060669 5.50029993057251 C 0.7242499589920044 5.50029993057251 0.4999999701976776 5.276050090789795 0.4999999701976776 5.000400066375732 C 0.4999999701976776 4.724259853363037 0.7242499589920044 4.499599933624268 0.9998999834060669 4.499599933624268 L 3.999599933624268 4.499599933624268 L 4.499599933624268 4.499599933624268 L 4.499599933624268 3.999599933624268 L 4.499599933624268 0.9998999834060669 C 4.499599933624268 0.7242499589920044 4.724259853363037 0.4999999701976776 5.000400066375732 0.4999999701976776 C 5.276050090789795 0.4999999701976776 5.50029993057251 0.7242499589920044 5.50029993057251 0.9998999834060669 L 5.50029993057251 5.000400066375732 C 5.50029993057251 5.276050090789795 5.276050090789795 5.50029993057251 5.000400066375732 5.50029993057251 Z"/>
            <path class="cls-15" d="M 5.000400066375732 5.00029993057251 L 5.00029993057251 5.000400066375732 L 4.999599933624268 0.9998999834060669 L 4.999599933624268 4.999599933624268 L 0.9998999834060669 5.00029993057251 L 5.000400066375732 5.00029993057251 M 5.000400066375732 6.00029993057251 L 0.9998999834060669 6.00029993057251 C 0.4472999572753906 6.00029993057251 -3.471374654395731e-08 5.55210018157959 -3.471374654395731e-08 5.000400066375732 C -3.471374654395731e-08 4.447800159454346 0.4472999572753906 3.999599933624268 0.9998999834060669 3.999599933624268 L 3.999599933624268 3.999599933624268 L 3.999599933624268 0.9998999834060669 C 3.999599933624268 0.4472999572753906 4.447800159454346 -3.471374654395731e-08 5.000400066375732 -3.471374654395731e-08 C 5.55210018157959 -3.471374654395731e-08 6.00029993057251 0.4472999572753906 6.00029993057251 0.9998999834060669 L 6.00029993057251 5.000400066375732 C 6.00029993057251 5.55210018157959 5.55210018157959 6.00029993057251 5.000400066375732 6.00029993057251 Z"/>
          </g>
        </g>
      </g>
      <g id="condition" transform="translate(0 15)">
        <text id="Condition-2" data-name="Condition" class="cls-4" transform="translate(150 269)"><tspan x="0" y="0">Condition</tspan></text>
        <text id="Brand_New" data-name="Brand New" class="cls-5" transform="translate(338 269)"><tspan x="-72.781" y="0">Brand New</tspan></text>
        <g id="Group_36-3" data-name="Group 36" transform="translate(352.5 255)">
          <circle id="Ellipse_11-3" data-name="Ellipse 11" class="cls-6" cx="9" cy="9" r="9"/>
          <g id="Union_1-3" data-name="Union 1" class="cls-7" transform="translate(3.757 9) rotate(-45)">
            <path class="cls-14" d="M 5.000400066375732 5.50029993057251 L 0.9998999834060669 5.50029993057251 C 0.7242499589920044 5.50029993057251 0.4999999701976776 5.276050090789795 0.4999999701976776 5.000400066375732 C 0.4999999701976776 4.724259853363037 0.7242499589920044 4.499599933624268 0.9998999834060669 4.499599933624268 L 3.999599933624268 4.499599933624268 L 4.499599933624268 4.499599933624268 L 4.499599933624268 3.999599933624268 L 4.499599933624268 0.9998999834060669 C 4.499599933624268 0.7242499589920044 4.724259853363037 0.4999999701976776 5.000400066375732 0.4999999701976776 C 5.276050090789795 0.4999999701976776 5.50029993057251 0.7242499589920044 5.50029993057251 0.9998999834060669 L 5.50029993057251 5.000400066375732 C 5.50029993057251 5.276050090789795 5.276050090789795 5.50029993057251 5.000400066375732 5.50029993057251 Z"/>
            <path class="cls-15" d="M 5.000400066375732 5.00029993057251 L 5.00029993057251 5.000400066375732 L 4.999599933624268 0.9998999834060669 L 4.999599933624268 4.999599933624268 L 0.9998999834060669 5.00029993057251 L 5.000400066375732 5.00029993057251 M 5.000400066375732 6.00029993057251 L 0.9998999834060669 6.00029993057251 C 0.4472999572753906 6.00029993057251 -3.471374654395731e-08 5.55210018157959 -3.471374654395731e-08 5.000400066375732 C -3.471374654395731e-08 4.447800159454346 0.4472999572753906 3.999599933624268 0.9998999834060669 3.999599933624268 L 3.999599933624268 3.999599933624268 L 3.999599933624268 0.9998999834060669 C 3.999599933624268 0.4472999572753906 4.447800159454346 -3.471374654395731e-08 5.000400066375732 -3.471374654395731e-08 C 5.55210018157959 -3.471374654395731e-08 6.00029993057251 0.4472999572753906 6.00029993057251 0.9998999834060669 L 6.00029993057251 5.000400066375732 C 6.00029993057251 5.55210018157959 5.55210018157959 6.00029993057251 5.000400066375732 6.00029993057251 Z"/>
          </g>
        </g>
      </g>
      <g id="material" transform="translate(0 19)">
        <text id="Material-2" data-name="Material" class="cls-4" transform="translate(150 313)"><tspan x="0" y="0">Material</tspan></text>
        <text id="Cotton" class="cls-5" transform="translate(338 313)"><tspan x="-45.52" y="0">Cotton</tspan></text>
        <g id="Group_36-4" data-name="Group 36" transform="translate(352.5 299)">
          <circle id="Ellipse_11-4" data-name="Ellipse 11" class="cls-6" cx="9" cy="9" r="9"/>
          <g id="Union_1-4" data-name="Union 1" class="cls-7" transform="translate(3.757 9) rotate(-45)">
            <path class="cls-14" d="M 5.000400066375732 5.50029993057251 L 0.9998999834060669 5.50029993057251 C 0.7242499589920044 5.50029993057251 0.4999999701976776 5.276050090789795 0.4999999701976776 5.000400066375732 C 0.4999999701976776 4.724259853363037 0.7242499589920044 4.499599933624268 0.9998999834060669 4.499599933624268 L 3.999599933624268 4.499599933624268 L 4.499599933624268 4.499599933624268 L 4.499599933624268 3.999599933624268 L 4.499599933624268 0.9998999834060669 C 4.499599933624268 0.7242499589920044 4.724259853363037 0.4999999701976776 5.000400066375732 0.4999999701976776 C 5.276050090789795 0.4999999701976776 5.50029993057251 0.7242499589920044 5.50029993057251 0.9998999834060669 L 5.50029993057251 5.000400066375732 C 5.50029993057251 5.276050090789795 5.276050090789795 5.50029993057251 5.000400066375732 5.50029993057251 Z"/>
            <path class="cls-15" d="M 5.000400066375732 5.00029993057251 L 5.00029993057251 5.000400066375732 L 4.999599933624268 0.9998999834060669 L 4.999599933624268 4.999599933624268 L 0.9998999834060669 5.00029993057251 L 5.000400066375732 5.00029993057251 M 5.000400066375732 6.00029993057251 L 0.9998999834060669 6.00029993057251 C 0.4472999572753906 6.00029993057251 -3.471374654395731e-08 5.55210018157959 -3.471374654395731e-08 5.000400066375732 C -3.471374654395731e-08 4.447800159454346 0.4472999572753906 3.999599933624268 0.9998999834060669 3.999599933624268 L 3.999599933624268 3.999599933624268 L 3.999599933624268 0.9998999834060669 C 3.999599933624268 0.4472999572753906 4.447800159454346 -3.471374654395731e-08 5.000400066375732 -3.471374654395731e-08 C 5.55210018157959 -3.471374654395731e-08 6.00029993057251 0.4472999572753906 6.00029993057251 0.9998999834060669 L 6.00029993057251 5.000400066375732 C 6.00029993057251 5.55210018157959 5.55210018157959 6.00029993057251 5.000400066375732 6.00029993057251 Z"/>
          </g>
        </g>
      </g>
      <g id="color" transform="translate(0 23)">
        <text id="Colour" class="cls-4" transform="translate(150 357)"><tspan x="0" y="0">Colour</tspan></text>
        <g id="Group_36-5" data-name="Group 36" transform="translate(352.5 343)">
          <circle id="Ellipse_11-5" data-name="Ellipse 11" class="cls-6" cx="9" cy="9" r="9"/>
          <g id="Union_1-5" data-name="Union 1" class="cls-7" transform="translate(3.757 9) rotate(-45)">
            <path class="cls-14" d="M 5.000400066375732 5.50029993057251 L 0.9998999834060669 5.50029993057251 C 0.7242499589920044 5.50029993057251 0.4999999701976776 5.276050090789795 0.4999999701976776 5.000400066375732 C 0.4999999701976776 4.724259853363037 0.7242499589920044 4.499599933624268 0.9998999834060669 4.499599933624268 L 3.999599933624268 4.499599933624268 L 4.499599933624268 4.499599933624268 L 4.499599933624268 3.999599933624268 L 4.499599933624268 0.9998999834060669 C 4.499599933624268 0.7242499589920044 4.724259853363037 0.4999999701976776 5.000400066375732 0.4999999701976776 C 5.276050090789795 0.4999999701976776 5.50029993057251 0.7242499589920044 5.50029993057251 0.9998999834060669 L 5.50029993057251 5.000400066375732 C 5.50029993057251 5.276050090789795 5.276050090789795 5.50029993057251 5.000400066375732 5.50029993057251 Z"/>
            <path class="cls-15" d="M 5.000400066375732 5.00029993057251 L 5.00029993057251 5.000400066375732 L 4.999599933624268 0.9998999834060669 L 4.999599933624268 4.999599933624268 L 0.9998999834060669 5.00029993057251 L 5.000400066375732 5.00029993057251 M 5.000400066375732 6.00029993057251 L 0.9998999834060669 6.00029993057251 C 0.4472999572753906 6.00029993057251 -3.471374654395731e-08 5.55210018157959 -3.471374654395731e-08 5.000400066375732 C -3.471374654395731e-08 4.447800159454346 0.4472999572753906 3.999599933624268 0.9998999834060669 3.999599933624268 L 3.999599933624268 3.999599933624268 L 3.999599933624268 0.9998999834060669 C 3.999599933624268 0.4472999572753906 4.447800159454346 -3.471374654395731e-08 5.000400066375732 -3.471374654395731e-08 C 5.55210018157959 -3.471374654395731e-08 6.00029993057251 0.4472999572753906 6.00029993057251 0.9998999834060669 L 6.00029993057251 5.000400066375732 C 6.00029993057251 5.55210018157959 5.55210018157959 6.00029993057251 5.000400066375732 6.00029993057251 Z"/>
          </g>
        </g>
        <circle id="Ellipse_22" data-name="Ellipse 22" class="cls-8" cx="9" cy="9" r="9" transform="translate(320.5 343)"/>
        <circle id="Ellipse_23" data-name="Ellipse 23" class="cls-9" cx="9" cy="9" r="9" transform="translate(310.5 343)"/>
        <circle id="Ellipse_24" data-name="Ellipse 24" class="cls-10" cx="9" cy="9" r="9" transform="translate(299.5 343)"/>
      </g>
      <g id="brand" transform="translate(0 27)">
        <text id="Brand-2" data-name="Brand" class="cls-4" transform="translate(150 401)"><tspan x="0" y="0">Brand</tspan></text>
        <text id="All_Brands" data-name="All Brands" class="cls-5" transform="translate(338 401)"><tspan x="-66.182" y="0">All Brands</tspan></text>
        <g id="Group_36-6" data-name="Group 36" transform="translate(352.5 387)">
          <circle id="Ellipse_11-6" data-name="Ellipse 11" class="cls-6" cx="9" cy="9" r="9"/>
          <g id="Union_1-6" data-name="Union 1" class="cls-7" transform="translate(3.757 9) rotate(-45)">
            <path class="cls-14" d="M 5.000400066375732 5.50029993057251 L 0.9998999834060669 5.50029993057251 C 0.7242499589920044 5.50029993057251 0.4999999701976776 5.276050090789795 0.4999999701976776 5.000400066375732 C 0.4999999701976776 4.724259853363037 0.7242499589920044 4.499599933624268 0.9998999834060669 4.499599933624268 L 3.999599933624268 4.499599933624268 L 4.499599933624268 4.499599933624268 L 4.499599933624268 3.999599933624268 L 4.499599933624268 0.9998999834060669 C 4.499599933624268 0.7242499589920044 4.724259853363037 0.4999999701976776 5.000400066375732 0.4999999701976776 C 5.276050090789795 0.4999999701976776 5.50029993057251 0.7242499589920044 5.50029993057251 0.9998999834060669 L 5.50029993057251 5.000400066375732 C 5.50029993057251 5.276050090789795 5.276050090789795 5.50029993057251 5.000400066375732 5.50029993057251 Z"/>
            <path class="cls-15" d="M 5.000400066375732 5.00029993057251 L 5.00029993057251 5.000400066375732 L 4.999599933624268 0.9998999834060669 L 4.999599933624268 4.999599933624268 L 0.9998999834060669 5.00029993057251 L 5.000400066375732 5.00029993057251 M 5.000400066375732 6.00029993057251 L 0.9998999834060669 6.00029993057251 C 0.4472999572753906 6.00029993057251 -3.471374654395731e-08 5.55210018157959 -3.471374654395731e-08 5.000400066375732 C -3.471374654395731e-08 4.447800159454346 0.4472999572753906 3.999599933624268 0.9998999834060669 3.999599933624268 L 3.999599933624268 3.999599933624268 L 3.999599933624268 0.9998999834060669 C 3.999599933624268 0.4472999572753906 4.447800159454346 -3.471374654395731e-08 5.000400066375732 -3.471374654395731e-08 C 5.55210018157959 -3.471374654395731e-08 6.00029993057251 0.4472999572753906 6.00029993057251 0.9998999834060669 L 6.00029993057251 5.000400066375732 C 6.00029993057251 5.55210018157959 5.55210018157959 6.00029993057251 5.000400066375732 6.00029993057251 Z"/>
          </g>
        </g>
      </g>
      <g id="size" transform="translate(0 31)">
        <text id="Size-2" data-name="Size" class="cls-4" transform="translate(150 445)"><tspan x="0" y="0">Size</tspan></text>
        <text id="Large" class="cls-5" transform="translate(338 445)"><tspan x="-36.584" y="0">Large</tspan></text>
        <g id="Group_36-7" data-name="Group 36" transform="translate(352.5 431)">
          <circle id="Ellipse_11-7" data-name="Ellipse 11" class="cls-6" cx="9" cy="9" r="9"/>
          <g id="Union_1-7" data-name="Union 1" class="cls-7" transform="translate(3.757 9) rotate(-45)">
            <path class="cls-14" d="M 5.000400066375732 5.50029993057251 L 0.9998999834060669 5.50029993057251 C 0.7242499589920044 5.50029993057251 0.4999999701976776 5.276050090789795 0.4999999701976776 5.000400066375732 C 0.4999999701976776 4.724259853363037 0.7242499589920044 4.499599933624268 0.9998999834060669 4.499599933624268 L 3.999599933624268 4.499599933624268 L 4.499599933624268 4.499599933624268 L 4.499599933624268 3.999599933624268 L 4.499599933624268 0.9998999834060669 C 4.499599933624268 0.7242499589920044 4.724259853363037 0.4999999701976776 5.000400066375732 0.4999999701976776 C 5.276050090789795 0.4999999701976776 5.50029993057251 0.7242499589920044 5.50029993057251 0.9998999834060669 L 5.50029993057251 5.000400066375732 C 5.50029993057251 5.276050090789795 5.276050090789795 5.50029993057251 5.000400066375732 5.50029993057251 Z"/>
            <path class="cls-15" d="M 5.000400066375732 5.00029993057251 L 5.00029993057251 5.000400066375732 L 4.999599933624268 0.9998999834060669 L 4.999599933624268 4.999599933624268 L 0.9998999834060669 5.00029993057251 L 5.000400066375732 5.00029993057251 M 5.000400066375732 6.00029993057251 L 0.9998999834060669 6.00029993057251 C 0.4472999572753906 6.00029993057251 -3.471374654395731e-08 5.55210018157959 -3.471374654395731e-08 5.000400066375732 C -3.471374654395731e-08 4.447800159454346 0.4472999572753906 3.999599933624268 0.9998999834060669 3.999599933624268 L 3.999599933624268 3.999599933624268 L 3.999599933624268 0.9998999834060669 C 3.999599933624268 0.4472999572753906 4.447800159454346 -3.471374654395731e-08 5.000400066375732 -3.471374654395731e-08 C 5.55210018157959 -3.471374654395731e-08 6.00029993057251 0.4472999572753906 6.00029993057251 0.9998999834060669 L 6.00029993057251 5.000400066375732 C 6.00029993057251 5.55210018157959 5.55210018157959 6.00029993057251 5.000400066375732 6.00029993057251 Z"/>
          </g>
        </g>
      </g>
      <g id="price" transform="translate(0 35)">
        <text id="Price_Range" data-name="Price Range" class="cls-4" transform="translate(150 489)"><tspan x="0" y="0">Price Range</tspan></text>
        <text id="_0_-_30" data-name="$0 - $30" class="cls-5" transform="translate(338 489)"><tspan x="-54.646" y="0">$0 - $30</tspan></text>
        <g id="Group_36-8" data-name="Group 36" transform="translate(352.5 475)">
          <circle id="Ellipse_11-8" data-name="Ellipse 11" class="cls-6" cx="9" cy="9" r="9"/>
          <g id="Union_1-8" data-name="Union 1" class="cls-7" transform="translate(3.757 9) rotate(-45)">
            <path class="cls-14" d="M 5.000400066375732 5.50029993057251 L 0.9998999834060669 5.50029993057251 C 0.7242499589920044 5.50029993057251 0.4999999701976776 5.276050090789795 0.4999999701976776 5.000400066375732 C 0.4999999701976776 4.724259853363037 0.7242499589920044 4.499599933624268 0.9998999834060669 4.499599933624268 L 3.999599933624268 4.499599933624268 L 4.499599933624268 4.499599933624268 L 4.499599933624268 3.999599933624268 L 4.499599933624268 0.9998999834060669 C 4.499599933624268 0.7242499589920044 4.724259853363037 0.4999999701976776 5.000400066375732 0.4999999701976776 C 5.276050090789795 0.4999999701976776 5.50029993057251 0.7242499589920044 5.50029993057251 0.9998999834060669 L 5.50029993057251 5.000400066375732 C 5.50029993057251 5.276050090789795 5.276050090789795 5.50029993057251 5.000400066375732 5.50029993057251 Z"/>
            <path class="cls-15" d="M 5.000400066375732 5.00029993057251 L 5.00029993057251 5.000400066375732 L 4.999599933624268 0.9998999834060669 L 4.999599933624268 4.999599933624268 L 0.9998999834060669 5.00029993057251 L 5.000400066375732 5.00029993057251 M 5.000400066375732 6.00029993057251 L 0.9998999834060669 6.00029993057251 C 0.4472999572753906 6.00029993057251 -3.471374654395731e-08 5.55210018157959 -3.471374654395731e-08 5.000400066375732 C -3.471374654395731e-08 4.447800159454346 0.4472999572753906 3.999599933624268 0.9998999834060669 3.999599933624268 L 3.999599933624268 3.999599933624268 L 3.999599933624268 0.9998999834060669 C 3.999599933624268 0.4472999572753906 4.447800159454346 -3.471374654395731e-08 5.000400066375732 -3.471374654395731e-08 C 5.55210018157959 -3.471374654395731e-08 6.00029993057251 0.4472999572753906 6.00029993057251 0.9998999834060669 L 6.00029993057251 5.000400066375732 C 6.00029993057251 5.55210018157959 5.55210018157959 6.00029993057251 5.000400066375732 6.00029993057251 Z"/>
          </g>
        </g>
      </g>
    </g>
    <g id="button" transform="translate(0 -80)">
      <g class="cls-16" transform="matrix(1, 0, 0, 1, -84, 59)">
        <rect id="Rectangle_4-2" data-name="Rectangle 4" class="cls-11" width="221" height="46" rx="23" transform="translate(104 542)"/>
      </g>
      <text id="APPLY_FILTERS" data-name="APPLY FILTERS" class="cls-12" transform="translate(117.838 629)"><tspan x="-45.532" y="0">APPLY FILTERS</tspan></text>
      <g id="Group_16" data-name="Group 16" transform="translate(204 609)">
        <rect id="Rectangle_2" data-name="Rectangle 2" class="cls-1" width="28.797" height="29.62" rx="14.399"/>
        <path id="Path_11" data-name="Path 11" class="cls-13" d="M26.582,16.758v0a.82.82,0,0,0-.252-.592h0l-4.937-4.937,0,0a.822.822,0,1,0-1.105,1.218L24.6,16.758,20.23,21.125h0a.823.823,0,0,0,1.163,1.163h0l4.937-4.937h0a.82.82,0,0,0,.252-.592Z" transform="translate(-8.481 -1.949)"/>
      </g>
    </g>
  </g>
</svg>
