<svg xmlns="http://www.w3.org/2000/svg" xmlns:xlink="http://www.w3.org/1999/xlink" width="18" height="18" viewBox="0 0 18 18">
  <defs>
    <style>
      .cls-1 {
        fill: none;
      }

      .cls-2 {
        clip-path: url(#clip-path);
      }

      .cls-3 {
        fill: #727c8e;
        opacity: 0.2;
      }

      .cls-4 {
        fill: #fff;
      }

      .cls-5, .cls-6 {
        stroke: none;
      }

      .cls-6 {
        fill: #727c8e;
      }
    </style>
    <clipPath id="clip-path">
      <rect class="cls-1" width="18" height="18"/>
    </clipPath>
  </defs>
  <g id="more_small" data-name="more small" class="cls-2">
    <circle id="Ellipse_11" data-name="Ellipse 11" class="cls-3" cx="9" cy="9" r="9"/>
    <g id="Union_1" data-name="Union 1" class="cls-4" transform="translate(3.757 9) rotate(-45)">
      <path class="cls-5" d="M 5.000400066375732 5.50029993057251 L 0.9998999834060669 5.50029993057251 C 0.7242499589920044 5.50029993057251 0.4999999701976776 5.276050090789795 0.4999999701976776 5.000400066375732 C 0.4999999701976776 4.724259853363037 0.7242499589920044 4.499599933624268 0.9998999834060669 4.499599933624268 L 3.999599933624268 4.499599933624268 L 4.499599933624268 4.499599933624268 L 4.499599933624268 3.999599933624268 L 4.499599933624268 0.9998999834060669 C 4.499599933624268 0.7242499589920044 4.724259853363037 0.4999999701976776 5.000400066375732 0.4999999701976776 C 5.276050090789795 0.4999999701976776 5.50029993057251 0.7242499589920044 5.50029993057251 0.9998999834060669 L 5.50029993057251 5.000400066375732 C 5.50029993057251 5.276050090789795 5.276050090789795 5.50029993057251 5.000400066375732 5.50029993057251 Z"/>
      <path class="cls-6" d="M 5.000400066375732 5.00029993057251 L 5.00029993057251 5.000400066375732 L 4.999599933624268 0.9998999834060669 L 4.999599933624268 4.999599933624268 L 0.9998999834060669 5.00029993057251 L 5.000400066375732 5.00029993057251 M 5.000400066375732 6.00029993057251 L 0.9998999834060669 6.00029993057251 C 0.4472999572753906 6.00029993057251 -3.471374654395731e-08 5.55210018157959 -3.471374654395731e-08 5.000400066375732 C -3.471374654395731e-08 4.447800159454346 0.4472999572753906 3.999599933624268 0.9998999834060669 3.999599933624268 L 3.999599933624268 3.999599933624268 L 3.999599933624268 0.9998999834060669 C 3.999599933624268 0.4472999572753906 4.447800159454346 -3.471374654395731e-08 5.000400066375732 -3.471374654395731e-08 C 5.55210018157959 -3.471374654395731e-08 6.00029993057251 0.4472999572753906 6.00029993057251 0.9998999834060669 L 6.00029993057251 5.000400066375732 C 6.00029993057251 5.55210018157959 5.55210018157959 6.00029993057251 5.000400066375732 6.00029993057251 Z"/>
    </g>
  </g>
</svg>
