<svg xmlns="http://www.w3.org/2000/svg" xmlns:xlink="http://www.w3.org/1999/xlink" width="370" height="104" viewBox="0 0 370 104">
  <defs>
    <style>
      .cls-1 {
        fill: #fff;
      }

      .cls-2, .cls-3 {
        fill: #515c6f;
        font-family: SegoeUI, Segoe UI;
      }

      .cls-2 {
        font-size: 15px;
      }

      .cls-3 {
        font-size: 12px;
        letter-spacing: 0.07em;
        opacity: 0.5;
      }

      .cls-4 {
        fill: #727c8e;
      }

      .cls-5 {
        filter: url(#Rectangle_33);
      }
    </style>
    <filter id="Rectangle_33" x="0" y="0" width="370" height="104" filterUnits="userSpaceOnUse">
      <feOffset dy="8" input="SourceAlpha"/>
      <feGaussianBlur stdDeviation="7.5" result="blur"/>
      <feFlood flood-color="#e7eaf0"/>
      <feComposite operator="in" in2="blur"/>
      <feComposite in="SourceGraphic"/>
    </filter>
  </defs>
  <g id="Password" transform="translate(2.5 -378.5)">
    <g class="cls-5" transform="matrix(1, 0, 0, 1, -2.5, 378.5)">
      <path id="Rectangle_33-2" data-name="Rectangle 33" class="cls-1" d="M0,0H325a0,0,0,0,1,0,0V49a10,10,0,0,1-10,10H10A10,10,0,0,1,0,49V0A0,0,0,0,1,0,0Z" transform="translate(22.5 14.5)"/>
    </g>
    <text id="_" data-name="************************" class="cls-2" transform="translate(77 443)"><tspan x="0" y="0">************************</tspan></text>
    <text id="PASSWORD-2" data-name="PASSWORD" class="cls-3" transform="translate(77 417)"><tspan x="0" y="0">PASSWORD</tspan></text>
    <g id="_002-password" data-name="002-password" transform="translate(5 412)">
      <g id="Group_118" data-name="Group 118" transform="translate(32)">
        <g id="Group_117" data-name="Group 117">
          <circle id="Ellipse_18" data-name="Ellipse 18" class="cls-4" cx="0.898" cy="0.898" r="0.898" transform="translate(13.603 13.954)"/>
          <path id="Path_66" data-name="Path 66" class="cls-4" d="M50.391,15.555a.859.859,0,0,0,.859-.859v-3.18a3.441,3.441,0,0,0-3.437-3.437H46.78V5.047a5.157,5.157,0,0,0-10.312,0V8.078h-1.03A3.441,3.441,0,0,0,32,11.516v7.047A3.441,3.441,0,0,0,35.438,22H47.812a3.441,3.441,0,0,0,3.438-3.437.859.859,0,1,0-1.719,0,1.721,1.721,0,0,1-1.719,1.719H35.438a1.721,1.721,0,0,1-1.719-1.719V11.516A1.721,1.721,0,0,1,35.438,9.8H47.812a1.721,1.721,0,0,1,1.719,1.719V14.7A.859.859,0,0,0,50.391,15.555Zm-5.33-7.477H38.186V5.047a3.439,3.439,0,0,1,6.875,0Z" transform="translate(-32)"/>
          <circle id="Ellipse_19" data-name="Ellipse 19" class="cls-4" cx="0.898" cy="0.898" r="0.898" transform="translate(7.144 13.954)"/>
          <circle id="Ellipse_20" data-name="Ellipse 20" class="cls-4" cx="0.898" cy="0.898" r="0.898" transform="translate(3.936 13.954)"/>
          <circle id="Ellipse_21" data-name="Ellipse 21" class="cls-4" cx="0.898" cy="0.898" r="0.898" transform="translate(10.352 13.954)"/>
        </g>
      </g>
    </g>
  </g>
</svg>
