<svg xmlns="http://www.w3.org/2000/svg" width="330" height="21" viewBox="0 0 330 21">
  <defs>
    <style>
      .cls-1 {
        fill: #727c8e;
        opacity: 0.2;
      }

      .cls-2 {
        fill: #fff;
      }

      .cls-3, .cls-4 {
        fill: #ff6969;
      }

      .cls-3 {
        font-size: 15px;
        font-family: SegoeUI, Segoe UI;
      }

      .cls-5, .cls-6 {
        stroke: none;
      }

      .cls-6 {
        fill: #727c8e;
      }
    </style>
  </defs>
  <g id="promo_code" data-name="promo code" transform="translate(-25 -539)">
    <g id="Group_38" data-name="Group 38" transform="translate(0 377)">
      <circle id="Ellipse_11" data-name="Ellipse 11" class="cls-1" cx="9" cy="9" r="9" transform="translate(337 164)"/>
      <g id="Union_1" data-name="Union 1" class="cls-2" transform="translate(1327.171 -813.414) rotate(-45)">
        <path class="cls-5" d="M -1389.999633789062 5.50029993057251 L -1394.000122070312 5.50029993057251 C -1394.275756835938 5.50029993057251 -1394.5 5.276050090789795 -1394.5 5.000400066375732 C -1394.5 4.724259853363037 -1394.275756835938 4.499599933624268 -1394.000122070312 4.499599933624268 L -1391.00048828125 4.499599933624268 L -1390.50048828125 4.499599933624268 L -1390.50048828125 3.999599933624268 L -1390.50048828125 0.9998999834060669 C -1390.50048828125 0.7242499589920044 -1390.275756835938 0.4999999701976776 -1389.999633789062 0.4999999701976776 C -1389.723999023438 0.4999999701976776 -1389.499755859375 0.7242499589920044 -1389.499755859375 0.9998999834060669 L -1389.499755859375 5.000400066375732 C -1389.499755859375 5.276050090789795 -1389.723999023438 5.50029993057251 -1389.999633789062 5.50029993057251 Z"/>
        <path class="cls-6" d="M -1389.999633789062 5.00029993057251 L -1389.999755859375 5.000400066375732 L -1390.00048828125 0.9998999834060669 L -1390.00048828125 4.999599933624268 L -1394.000122070312 5.00029993057251 L -1389.999633789062 5.00029993057251 M -1389.999633789062 6.00029993057251 L -1394.000122070312 6.00029993057251 C -1394.551879882812 6.00029993057251 -1395 5.55210018157959 -1395 5.000400066375732 C -1395 4.447800159454346 -1394.551879882812 3.999599933624268 -1394.000122070312 3.999599933624268 L -1391.00048828125 3.999599933624268 L -1391.00048828125 0.9998999834060669 C -1391.00048828125 0.4472999572753906 -1390.55224609375 -3.471374654395731e-08 -1389.999633789062 -3.471374654395731e-08 C -1389.447875976562 -3.471374654395731e-08 -1388.999755859375 0.4472999572753906 -1388.999755859375 0.9998999834060669 L -1388.999755859375 5.000400066375732 C -1388.999755859375 5.55210018157959 -1389.447875976562 6.00029993057251 -1389.999633789062 6.00029993057251 Z"/>
      </g>
    </g>
    <text id="Add_Promo_Code" data-name="Add Promo Code" class="cls-3" transform="translate(61 555)"><tspan x="0" y="0">Add Promo Code</tspan></text>
    <g id="tag" transform="translate(25 489.102)">
      <path id="Path_16" data-name="Path 16" class="cls-4" d="M6.151,70.385a1.752,1.752,0,0,0,2.477,0l8.48-8.48a2.483,2.483,0,0,0,.553-.843,8.916,8.916,0,0,0,2.412.361c1.807-.009,2.407-.8,2.6-1.274s.337-1.452-.932-2.744l-.042-.042a10.138,10.138,0,0,0-3.226-2.051c-.239-.1-.478-.187-.712-.272v-.014a1.917,1.917,0,0,0-1.892-1.892l-5.081-.07A2.471,2.471,0,0,0,9,53.795L.513,62.275a1.752,1.752,0,0,0,0,2.477ZM12.687,56.1a1.449,1.449,0,0,1,2.458,1.236,10.108,10.108,0,0,0,1.934,1.054c.253.1.5.2.73.276l-.028-2.042.122.052a8.826,8.826,0,0,1,2.749,1.733l.028.028c.609.623.674,1.021.623,1.143-.159.379-1.868.716-4.463-.365a10.015,10.015,0,0,1-2.046-1.138c-.019.023-.042.047-.061.07A1.447,1.447,0,1,1,12.687,56.1Z" transform="translate(0)"/>
    </g>
  </g>
</svg>
