<svg id="rating" xmlns="http://www.w3.org/2000/svg" width="60" height="12" viewBox="0 0 60 12">
  <defs>
    <style>
      .cls-1, .cls-2 {
        fill: #ff6969;
      }

      .cls-1 {
        opacity: 0.999;
      }

      .cls-3 {
        fill: #727c8e;
        opacity: 0.3;
      }
    </style>
  </defs>
  <path id="Path_18" data-name="Path 18" class="cls-1" d="M60,73.646,63.708,76l-.981-4.44L66,68.575l-4.315-.39L60,64l-1.685,4.185L54,68.575l3.273,2.985L56.292,76Z" transform="translate(-54 -64)"/>
  <path id="Path_19" data-name="Path 19" class="cls-2" d="M60,73.646,63.708,76l-.981-4.44L66,68.575l-4.315-.39L60,64l-1.685,4.185L54,68.575l3.273,2.985L56.292,76Z" transform="translate(-42 -64)"/>
  <path id="Path_20" data-name="Path 20" class="cls-2" d="M60,73.646,63.708,76l-.981-4.44L66,68.575l-4.315-.39L60,64l-1.685,4.185L54,68.575l3.273,2.985L56.292,76Z" transform="translate(-30 -64)"/>
  <path id="Path_21" data-name="Path 21" class="cls-3" d="M60,73.646,63.708,76l-.981-4.44L66,68.575l-4.315-.39L60,64l-1.685,4.185L54,68.575l3.273,2.985L56.292,76Z" transform="translate(-18 -64)"/>
  <path id="Path_22" data-name="Path 22" class="cls-3" d="M60,73.646,63.708,76l-.981-4.44L66,68.575l-4.315-.39L60,64l-1.685,4.185L54,68.575l3.273,2.985L56.292,76Z" transform="translate(-6 -64)"/>
</svg>
