<svg xmlns="http://www.w3.org/2000/svg" width="330" height="96" viewBox="0 0 330 96">
  <defs>
    <style>
      .cls-1, .cls-4 {
        fill: #515c6f;
      }

      .cls-1, .cls-2, .cls-4 {
        font-size: 12px;
        font-family: SegoeUI, Segoe UI;
      }

      .cls-1, .cls-2 {
        letter-spacing: 0.07em;
      }

      .cls-1 {
        opacity: 0.5;
      }

      .cls-2 {
        fill: #ff6969;
      }

      .cls-3 {
        fill: #fff;
      }
    </style>
  </defs>
  <g id="Recommended" transform="translate(-25 -170)">
    <text id="title" class="cls-1" transform="translate(25 183)"><tspan x="0" y="0">RECOMMENDED</tspan></text>
    <text id="button" class="cls-2" transform="translate(355 183)"><tspan x="-52.29" y="0">REFRESH</tspan></text>
    <g id="tag">
      <rect id="Rectangle_34" data-name="Rectangle 34" class="cls-3" width="88" height="28" rx="5" transform="translate(25 200)"/>
      <text id="Denim_Jeans" data-name="Denim Jeans" class="cls-4" transform="translate(35 218)"><tspan x="0" y="0">Denim Jeans</tspan></text>
    </g>
    <g id="tag-2" data-name="tag" transform="translate(0 38)">
      <rect id="Rectangle_34-2" data-name="Rectangle 34" class="cls-3" width="123" height="28" rx="5" transform="translate(25 200)"/>
      <text id="Sports_Accessories" data-name="Sports Accessories" class="cls-4" transform="translate(35 218)"><tspan x="0" y="0">Sports Accessories</tspan></text>
    </g>
    <g id="tag-3" data-name="tag" transform="translate(133 38)">
      <rect id="Rectangle_34-3" data-name="Rectangle 34" class="cls-3" width="78" height="28" rx="5" transform="translate(25 200)"/>
      <text id="Yoga_Pants" data-name="Yoga Pants" class="cls-4" transform="translate(35 218)"><tspan x="0" y="0">Yoga Pants</tspan></text>
    </g>
    <g id="tag-4" data-name="tag" transform="translate(221 38)">
      <rect id="Rectangle_34-4" data-name="Rectangle 34" class="cls-3" width="83" height="28" rx="5" transform="translate(25 200)"/>
      <text id="Eye_Shadow" data-name="Eye Shadow" class="cls-4" transform="translate(35 218)"><tspan x="0" y="0">Eye Shadow</tspan></text>
    </g>
    <g id="tag-5" data-name="tag" transform="translate(243)">
      <rect id="Rectangle_34-5" data-name="Rectangle 34" class="cls-3" width="87" height="28" rx="5" transform="translate(25 200)"/>
      <text id="Accessories" class="cls-4" transform="translate(37 218)"><tspan x="0" y="0">Accessories</tspan></text>
    </g>
    <g id="tag-6" data-name="tag" transform="translate(98)">
      <rect id="Rectangle_34-6" data-name="Rectangle 34" class="cls-3" width="69" height="28" rx="5" transform="translate(25 200)"/>
      <text id="Mini_Skirt" data-name="Mini Skirt" class="cls-4" transform="translate(35 218)"><tspan x="0" y="0">Mini Skirt</tspan></text>
    </g>
    <g id="tag-7" data-name="tag" transform="translate(177)">
      <rect id="Rectangle_34-7" data-name="Rectangle 34" class="cls-3" width="56" height="28" rx="5" transform="translate(25 200)"/>
      <text id="Jacket" class="cls-4" transform="translate(35 218)"><tspan x="0" y="0">Jacket</tspan></text>
    </g>
  </g>
</svg>
