<svg xmlns="http://www.w3.org/2000/svg" xmlns:xlink="http://www.w3.org/1999/xlink" width="330" height="345" viewBox="0 0 330 345">
  <defs>
    <style>
      .cls-1, .cls-9 {
        fill: none;
      }

      .cls-2 {
        clip-path: url(#clip-path);
      }

      .cls-10, .cls-3, .cls-6 {
        fill: #515c6f;
      }

      .cls-10, .cls-3 {
        font-size: 15px;
      }

      .cls-11, .cls-12, .cls-3 {
        font-family: SegoeUI, Segoe UI;
      }

      .cls-10, .cls-4, .cls-6 {
        font-family: SegoeUI-Light, Segoe UI;
        font-weight: 300;
      }

      .cls-11, .cls-5 {
        fill: #ff6969;
      }

      .cls-6 {
        font-size: 14px;
        opacity: 0.5;
      }

      .cls-7 {
        fill: #8b9dff;
      }

      .cls-8 {
        fill: #fff;
      }

      .cls-9 {
        stroke: #727c8e;
        opacity: 0.15;
      }

      .cls-11, .cls-12 {
        font-weight: 400;
      }

      .cls-13 {
        fill: #4ad1c7;
      }

      .cls-14 {
        fill: #add172;
      }

      .cls-15 {
        fill: #ffaf52;
      }

      .cls-16 {
        filter: url(#Ellipse_12-4);
      }

      .cls-17 {
        filter: url(#Ellipse_12-3);
      }

      .cls-18 {
        filter: url(#Ellipse_12-2);
      }

      .cls-19 {
        filter: url(#Ellipse_12);
      }
    </style>
    <clipPath id="clip-path">
      <rect class="cls-1" width="330" height="345"/>
    </clipPath>
    <filter id="Ellipse_12" x="-18" y="-12" width="84" height="84" filterUnits="userSpaceOnUse">
      <feOffset dy="6" input="SourceAlpha"/>
      <feGaussianBlur stdDeviation="6" result="blur"/>
      <feFlood flood-color="#8f89d6" flood-opacity="0.396"/>
      <feComposite operator="in" in2="blur"/>
      <feComposite in="SourceGraphic"/>
    </filter>
    <filter id="Ellipse_12-2" x="-18" y="79" width="84" height="84" filterUnits="userSpaceOnUse">
      <feOffset dy="6" input="SourceAlpha"/>
      <feGaussianBlur stdDeviation="6" result="blur-2"/>
      <feFlood flood-color="#76d3d3" flood-opacity="0.396"/>
      <feComposite operator="in" in2="blur-2"/>
      <feComposite in="SourceGraphic"/>
    </filter>
    <filter id="Ellipse_12-3" x="-18" y="259" width="84" height="84" filterUnits="userSpaceOnUse">
      <feOffset dy="6" input="SourceAlpha"/>
      <feGaussianBlur stdDeviation="6" result="blur-3"/>
      <feFlood flood-color="#add172" flood-opacity="0.467"/>
      <feComposite operator="in" in2="blur-3"/>
      <feComposite in="SourceGraphic"/>
    </filter>
    <filter id="Ellipse_12-4" x="-18" y="170" width="84" height="84" filterUnits="userSpaceOnUse">
      <feOffset dy="6" input="SourceAlpha"/>
      <feGaussianBlur stdDeviation="6" result="blur-4"/>
      <feFlood flood-color="#ffaf52" flood-opacity="0.376"/>
      <feComposite operator="in" in2="blur-4"/>
      <feComposite in="SourceGraphic"/>
    </filter>
  </defs>
  <g id="Repeat_Grid_9" data-name="Repeat Grid 9" class="cls-2">
    <g transform="translate(-25 -132)">
      <g id="_1" data-name="1" transform="translate(0 -49)">
        <text id="Smiley_s_Store_marked_your_order_1982984_as_shipped." data-name="Smiley’s Store marked your order #1982984 as shipped." class="cls-3" transform="translate(93 186)"><tspan x="0" y="16">Smiley’s Store </tspan><tspan class="cls-4" y="16">marked your </tspan><tspan class="cls-4" x="0" y="36">order </tspan><tspan class="cls-5" y="36">#1982984</tspan><tspan class="cls-4" y="36" xml:space="preserve"> as </tspan><tspan y="36">shipped</tspan><tspan class="cls-4" y="36">.</tspan></text>
        <text id="_9:20_AM" data-name="9:20 AM" class="cls-6" transform="translate(355 198)"><tspan x="-49.048" y="0">9:20 AM</tspan></text>
        <g id="icon">
          <g class="cls-19" transform="matrix(1, 0, 0, 1, 25, 181)">
            <circle id="Ellipse_12-5" data-name="Ellipse 12" class="cls-7" cx="24" cy="24" r="24"/>
          </g>
          <g id="_002-order" data-name="002-order" transform="translate(6.963 193.732)">
            <g id="Group_88" data-name="Group 88" transform="translate(33.062)">
              <g id="Group_87" data-name="Group 87" transform="translate(0)">
                <path id="Path_42" data-name="Path 42" class="cls-8" d="M51.534,5.881l-.016-.027a1.007,1.007,0,0,0-.075-.13L48.479.6A1.2,1.2,0,0,0,47.441,0h-10.2A1.2,1.2,0,0,0,36.2.6L33.188,5.826a.625.625,0,0,0-.061.146,1.055,1.055,0,0,0-.066.367v13.5a1.47,1.47,0,0,0,1.468,1.468H50.149a1.47,1.47,0,0,0,1.468-1.468V6.291c0-.018,0-.036,0-.054A.621.621,0,0,0,51.534,5.881ZM42.986,1.249h4.426l2.332,4.032H42.986Zm-5.717,0h4.468V5.281H34.944Zm13.1,18.59a.22.22,0,0,1-.219.219H34.53a.22.22,0,0,1-.219-.219V6.529H50.369Z" transform="translate(-33.062)"/>
              </g>
            </g>
            <g id="Group_90" data-name="Group 90" transform="translate(39.365 11.055)">
              <g id="Group_89" data-name="Group 89">
                <path id="Path_43" data-name="Path 43" class="cls-8" d="M190.322,265.815a.625.625,0,0,0-.883,0L186.65,268.6l-1.072-1.072a.624.624,0,0,0-.883.883l1.514,1.514a.624.624,0,0,0,.883,0l3.23-3.23A.625.625,0,0,0,190.322,265.815Z" transform="translate(-184.512 -265.632)"/>
              </g>
            </g>
          </g>
        </g>
        <g id="Indicator" transform="translate(-2 164)">
          <rect id="indicator_base" data-name="indicator base" class="cls-5" width="9" height="9" rx="4.5" transform="translate(348 48)"/>
        </g>
        <line id="Line_17" data-name="Line 17" class="cls-9" x2="262" transform="translate(93 247)"/>
      </g>
      <g id="_1-2" data-name="1" transform="translate(0 33)">
        <text id="Package_from_your_order_1982345_has_arrived_to_destination_country." data-name="Package from your order #1982345 has arrived to destination country." class="cls-10" transform="translate(93 186)"><tspan x="0" y="16">Package from your order </tspan><tspan class="cls-11" x="0" y="36">#1982345</tspan><tspan y="36" xml:space="preserve"> has </tspan><tspan class="cls-12" y="36">arrived to </tspan><tspan class="cls-12" x="0" y="56">destination country</tspan><tspan y="56">.</tspan></text>
        <text id="Yesterday" class="cls-6" transform="translate(355 198)"><tspan x="-54.858" y="0">Yesterday</tspan></text>
        <g id="icon-2" data-name="icon">
          <g class="cls-18" transform="matrix(1, 0, 0, 1, 25, 99)">
            <circle id="Ellipse_12-6" data-name="Ellipse 12" class="cls-13" cx="24" cy="24" r="24" transform="translate(0 91)"/>
          </g>
          <g id="_001-location-pin" data-name="001-location-pin" transform="translate(39.868 201.402)">
            <path id="Path_44" data-name="Path 44" class="cls-8" d="M102.922,97.057a3.795,3.795,0,1,0-3.795,3.8A3.8,3.8,0,0,0,102.922,97.057Zm-3.795,2.377a2.377,2.377,0,1,1,2.377-2.377A2.38,2.38,0,0,1,99.127,99.434Zm0,0" transform="translate(-90.827 -88.854)"/>
            <path id="Path_45" data-name="Path 45" class="cls-8" d="M15.1,13.163l.506-.916,0-.006A8.3,8.3,0,1,0,1,12.245L7.264,23.58a1.184,1.184,0,0,0,2.071,0l.99-1.79A5.518,5.518,0,1,0,15.1,13.163ZM9.578,20.211,8.3,22.523,2.243,11.568a6.882,6.882,0,1,1,12.117,0l-1,1.807a5.521,5.521,0,0,0-3.782,6.84Zm5.3,2.567a4.1,4.1,0,1,1,4.1-4.1A4.106,4.106,0,0,1,14.88,22.778Zm0,0"/>
            <path id="Path_46" data-name="Path 46" class="cls-8" d="M265.558,355l-1.9,1.9-.7-.7a.709.709,0,0,0-1,1l1.2,1.2a.714.714,0,0,0,1,0h0l2.4-2.4a.709.709,0,0,0-1-1Zm0,0" transform="translate(-249.376 -338.023)"/>
          </g>
        </g>
        <line id="Line_17-2" data-name="Line 17" class="cls-9" x2="262" transform="translate(93 266)"/>
      </g>
      <g id="_1-3" data-name="1" transform="translate(0 211)">
        <text id="BOGO_Sale_starting_tomorrow._Don_t_forget_to_check_it_out_for_great_deals_" data-name="BOGO Sale starting tomorrow. Don’t forget to check it out for great deals!" class="cls-3" transform="translate(93 186)"><tspan x="0" y="16">BOGO Sale </tspan><tspan class="cls-4" y="16">starting </tspan><tspan class="cls-5" x="0" y="36">tomorrow</tspan><tspan class="cls-4" y="36">. Don’t forget to </tspan><tspan class="cls-4" x="0" y="56">check it out for </tspan><tspan y="56">great deals!</tspan></text>
        <text id="_20_Sep" data-name="20 Sep" class="cls-6" transform="translate(355 198)"><tspan x="-40.127" y="0">20 Sep</tspan></text>
        <g id="icon-3" data-name="icon">
          <g class="cls-17" transform="matrix(1, 0, 0, 1, 25, -79)">
            <circle id="Ellipse_12-7" data-name="Ellipse 12" class="cls-14" cx="24" cy="24" r="24" transform="translate(0 271)"/>
          </g>
          <g id="_003-tag" data-name="003-tag" transform="translate(36 203.894)">
            <path id="Path_51" data-name="Path 51" class="cls-8" d="M23.089,13.379,13.77,4.055a2.6,2.6,0,0,0-1.844-.767c-.057,0-.114,0-.171.005l-6.739.445A1.471,1.471,0,0,0,3.649,5.107L3.488,7.5a4.644,4.644,0,0,1-.963-.741A4.229,4.229,0,0,1,1.266,4.231a2.626,2.626,0,0,1,.7-2.176C3.11.911,5.218,1.165,6.674,2.615a.623.623,0,0,0,.881-.881C5.607-.2,2.706-.446,1.08,1.181A3.847,3.847,0,0,0,.023,4.361,5.461,5.461,0,0,0,1.639,7.645,5.784,5.784,0,0,0,3.4,8.852l-.2,3a2.605,2.605,0,0,0,.761,2.02l9.324,9.324a3.1,3.1,0,0,0,2.207.912h0a3.116,3.116,0,0,0,2.207-.912l5.4-5.4a3.114,3.114,0,0,0-.01-4.413Zm-.875,3.527-5.408,5.408a1.865,1.865,0,0,1-1.326.549h0a1.865,1.865,0,0,1-1.326-.549L4.83,12.991a1.365,1.365,0,0,1-.4-1.057L4.612,9.22c.1.016.207.031.311.041.155.016.311.026.461.026A3.76,3.76,0,0,0,8.1,8.21a.623.623,0,0,0-.881-.881,2.626,2.626,0,0,1-2.176.7C4.923,8.018,4.809,8,4.7,7.976L4.882,5.2a.228.228,0,0,1,.212-.212l6.739-.445c.031,0,.062-.005.093-.005a1.376,1.376,0,0,1,.969.4l9.318,9.318a1.876,1.876,0,0,1,0,2.652Z" transform="translate(0 0)"/>
          </g>
        </g>
        <line id="Line_17-3" data-name="Line 17" class="cls-9" x2="262" transform="translate(93 266)"/>
      </g>
      <g id="_1-4" data-name="1" transform="translate(0 134)">
        <text id="_50_OFF_of_everything_at_Elegance_Store_" data-name="50% OFF of everything at Elegance Store!!" class="cls-3" transform="translate(93 186)"><tspan x="0" y="16">50% OFF</tspan><tspan class="cls-4" y="16" xml:space="preserve"> of everything at </tspan></text>
        <text id="_15_Oct" data-name="15 Oct" class="cls-6" transform="translate(355 198)"><tspan x="-37.064" y="0">15 Oct</tspan></text>
        <g id="icon-4" data-name="icon">
          <g class="cls-16" transform="matrix(1, 0, 0, 1, 25, -2)">
            <circle id="Ellipse_12-8" data-name="Ellipse 12" class="cls-15" cx="24" cy="24" r="24" transform="translate(0 182)"/>
          </g>
          <g id="_002-discount" data-name="002-discount" transform="translate(27.305 192.567)">
            <g id="Group_92" data-name="Group 92" transform="translate(10.359 -0.002)">
              <g id="Group_91" data-name="Group 91" transform="translate(0 0)">
                <path id="Path_47" data-name="Path 47" class="cls-8" d="M32.062,12.188a.7.7,0,0,1,0-.616l.886-1.813a2.063,2.063,0,0,0-.89-2.74l-1.783-.946a.7.7,0,0,1-.362-.5l-.349-1.988a2.063,2.063,0,0,0-2.33-1.693l-2,.283a.7.7,0,0,1-.585-.19L23.2.584a2.063,2.063,0,0,0-2.881,0l-1.451,1.4a.7.7,0,0,1-.585.19l-2-.283a2.063,2.063,0,0,0-2.33,1.693l-.349,1.988a.7.7,0,0,1-.362.5l-1.783.946a2.063,2.063,0,0,0-.89,2.74l.886,1.813a.7.7,0,0,1,0,.616L10.572,14a2.063,2.063,0,0,0,.89,2.74l1.783.946a.7.7,0,0,1,.362.5l.349,1.988a2.062,2.062,0,0,0,2.034,1.714,2.119,2.119,0,0,0,.3-.021l2-.283a.7.7,0,0,1,.585.19l1.45,1.4a2.063,2.063,0,0,0,2.88,0l1.451-1.4a.7.7,0,0,1,.585-.19l2,.283a2.063,2.063,0,0,0,2.33-1.693l.349-1.988a.7.7,0,0,1,.362-.5l1.783-.946a2.063,2.063,0,0,0,.89-2.74Zm-.646,3.342-1.783.946a2.058,2.058,0,0,0-1.069,1.472l-.349,1.988a.7.7,0,0,1-.788.573l-2-.283a2.058,2.058,0,0,0-1.73.562l-1.451,1.4a.7.7,0,0,1-.975,0l-1.45-1.4a2.056,2.056,0,0,0-1.435-.583,2.1,2.1,0,0,0-.295.021l-2,.283a.7.7,0,0,1-.788-.573l-.349-1.988a2.058,2.058,0,0,0-1.069-1.472L12.1,15.53a.7.7,0,0,1-.3-.927l.886-1.813a2.058,2.058,0,0,0,0-1.819L11.8,9.157a.7.7,0,0,1,.3-.927l1.783-.946a2.058,2.058,0,0,0,1.069-1.472l.349-1.988a.7.7,0,0,1,.788-.573l2,.283a2.058,2.058,0,0,0,1.73-.562l1.451-1.4a.7.7,0,0,1,.975,0l1.45,1.4a2.058,2.058,0,0,0,1.73.562l2-.283a.7.7,0,0,1,.788.573l.349,1.988a2.058,2.058,0,0,0,1.069,1.472l1.783.946a.7.7,0,0,1,.3.927l-.886,1.813a2.058,2.058,0,0,0,0,1.819l.886,1.813A.7.7,0,0,1,31.416,15.53Z" transform="translate(-10.359 0.002)"/>
              </g>
            </g>
            <g id="Group_94" data-name="Group 94" transform="translate(16.552 6.672)">
              <g id="Group_93" data-name="Group 93" transform="translate(0)">
                <path id="Path_48" data-name="Path 48" class="cls-8" d="M154.007,143.992a.685.685,0,0,0-.969,0l-9.046,9.046a.685.685,0,1,0,.969.969l9.046-9.046A.685.685,0,0,0,154.007,143.992Z" transform="translate(-143.792 -143.792)"/>
              </g>
            </g>
            <g id="Group_96" data-name="Group 96" transform="translate(16.506 5.713)">
              <g id="Group_95" data-name="Group 95" transform="translate(0)">
                <path id="Path_49" data-name="Path 49" class="cls-8" d="M145.315,123.116a2.513,2.513,0,1,0,2.513,2.513A2.516,2.516,0,0,0,145.315,123.116Zm0,3.655a1.142,1.142,0,1,1,1.142-1.142A1.143,1.143,0,0,1,145.315,126.771Z" transform="translate(-142.802 -123.116)"/>
              </g>
            </g>
            <g id="Group_98" data-name="Group 98" transform="translate(21.989 13.023)">
              <g id="Group_97" data-name="Group 97" transform="translate(0)">
                <path id="Path_50" data-name="Path 50" class="cls-8" d="M263.435,280.61a2.513,2.513,0,1,0,2.513,2.513A2.516,2.516,0,0,0,263.435,280.61Zm0,3.655a1.142,1.142,0,1,1,1.142-1.142A1.144,1.144,0,0,1,263.435,284.265Z" transform="translate(-260.922 -280.61)"/>
              </g>
            </g>
          </g>
        </g>
        <line id="Line_17-4" data-name="Line 17" class="cls-9" x2="262" transform="translate(93 243)"/>
      </g>
    </g>
  </g>
</svg>
