<svg xmlns="http://www.w3.org/2000/svg" xmlns:xlink="http://www.w3.org/1999/xlink" width="380" height="237" viewBox="0 0 380 237">
  <defs>
    <style>
      .cls-1, .cls-4 {
        fill: #fff;
      }

      .cls-2 {
        fill: #515c6f;
        font-size: 15px;
        font-family: SegoeUI, Segoe UI;
      }

      .cls-3, .cls-6, .cls-7 {
        fill: #727c8e;
      }

      .cls-3 {
        opacity: 0.2;
      }

      .cls-5 {
        fill: none;
        opacity: 0.1;
      }

      .cls-5, .cls-7 {
        stroke: #727c8e;
      }

      .cls-7 {
        stroke-width: 0.2px;
      }

      .cls-8, .cls-9 {
        stroke: none;
      }

      .cls-9 {
        fill: #727c8e;
      }

      .cls-10 {
        filter: url(#base);
      }
    </style>
    <filter id="base" x="0" y="0" width="380" height="237" filterUnits="userSpaceOnUse">
      <feOffset dy="8" input="SourceAlpha"/>
      <feGaussianBlur stdDeviation="7.5" result="blur"/>
      <feFlood flood-color="#e7eaf0"/>
      <feComposite operator="in" in2="blur"/>
      <feComposite in="SourceGraphic"/>
    </filter>
  </defs>
  <g id="section_2" data-name="section 2" transform="translate(2.5 -231.5)">
    <g class="cls-10" transform="matrix(1, 0, 0, 1, -2.5, 231.5)">
      <rect id="base-2" data-name="base" class="cls-1" width="335" height="192" rx="10" transform="translate(22.5 14.5)"/>
    </g>
    <g id="text">
      <text id="Notification_Settings" data-name="Notification Settings" class="cls-2" transform="translate(77 276)"><tspan x="0" y="0">Notification Settings</tspan></text>
      <text id="Privacy_Policy" data-name="Privacy Policy" class="cls-2" transform="translate(77 324)"><tspan x="0" y="0">Privacy Policy</tspan></text>
      <text id="Frequently_Asked_Questions" data-name="Frequently Asked Questions" class="cls-2" transform="translate(77 371)"><tspan x="0" y="0">Frequently Asked Questions</tspan></text>
      <text id="Legal_Information" data-name="Legal Information" class="cls-2" transform="translate(77 418)"><tspan x="0" y="0">Legal Information</tspan></text>
    </g>
    <g id="arrows">
      <g id="Group_36" data-name="Group 36" transform="translate(-15 97)">
        <circle id="Ellipse_11" data-name="Ellipse 11" class="cls-3" cx="9" cy="9" r="9" transform="translate(337 164)"/>
        <g id="Union_1" data-name="Union 1" class="cls-4" transform="translate(1327.171 -813.414) rotate(-45)">
          <path class="cls-8" d="M -1389.999633789062 5.50029993057251 L -1394.000122070312 5.50029993057251 C -1394.275756835938 5.50029993057251 -1394.5 5.276050090789795 -1394.5 5.000400066375732 C -1394.5 4.724259853363037 -1394.275756835938 4.499599933624268 -1394.000122070312 4.499599933624268 L -1391.00048828125 4.499599933624268 L -1390.50048828125 4.499599933624268 L -1390.50048828125 3.999599933624268 L -1390.50048828125 0.9998999834060669 C -1390.50048828125 0.7242499589920044 -1390.275756835938 0.4999999701976776 -1389.999633789062 0.4999999701976776 C -1389.723999023438 0.4999999701976776 -1389.499755859375 0.7242499589920044 -1389.499755859375 0.9998999834060669 L -1389.499755859375 5.000400066375732 C -1389.499755859375 5.276050090789795 -1389.723999023438 5.50029993057251 -1389.999633789062 5.50029993057251 Z"/>
          <path class="cls-9" d="M -1389.999633789062 5.00029993057251 L -1389.999755859375 5.000400066375732 L -1390.00048828125 0.9998999834060669 L -1390.00048828125 4.999599933624268 L -1394.000122070312 5.00029993057251 L -1389.999633789062 5.00029993057251 M -1389.999633789062 6.00029993057251 L -1394.000122070312 6.00029993057251 C -1394.551879882812 6.00029993057251 -1395 5.55210018157959 -1395 5.000400066375732 C -1395 4.447800159454346 -1394.551879882812 3.999599933624268 -1394.000122070312 3.999599933624268 L -1391.00048828125 3.999599933624268 L -1391.00048828125 0.9998999834060669 C -1391.00048828125 0.4472999572753906 -1390.55224609375 -3.471374654395731e-08 -1389.999633789062 -3.471374654395731e-08 C -1389.447875976562 -3.471374654395731e-08 -1388.999755859375 0.4472999572753906 -1388.999755859375 0.9998999834060669 L -1388.999755859375 5.000400066375732 C -1388.999755859375 5.55210018157959 -1389.447875976562 6.00029993057251 -1389.999633789062 6.00029993057251 Z"/>
        </g>
      </g>
      <g id="Group_77" data-name="Group 77" transform="translate(-15 145)">
        <circle id="Ellipse_11-2" data-name="Ellipse 11" class="cls-3" cx="9" cy="9" r="9" transform="translate(337 164)"/>
        <g id="Union_1-2" data-name="Union 1" class="cls-4" transform="translate(1327.171 -813.414) rotate(-45)">
          <path class="cls-8" d="M -1389.999633789062 5.50029993057251 L -1394.000122070312 5.50029993057251 C -1394.275756835938 5.50029993057251 -1394.5 5.276050090789795 -1394.5 5.000400066375732 C -1394.5 4.724259853363037 -1394.275756835938 4.499599933624268 -1394.000122070312 4.499599933624268 L -1391.00048828125 4.499599933624268 L -1390.50048828125 4.499599933624268 L -1390.50048828125 3.999599933624268 L -1390.50048828125 0.9998999834060669 C -1390.50048828125 0.7242499589920044 -1390.275756835938 0.4999999701976776 -1389.999633789062 0.4999999701976776 C -1389.723999023438 0.4999999701976776 -1389.499755859375 0.7242499589920044 -1389.499755859375 0.9998999834060669 L -1389.499755859375 5.000400066375732 C -1389.499755859375 5.276050090789795 -1389.723999023438 5.50029993057251 -1389.999633789062 5.50029993057251 Z"/>
          <path class="cls-9" d="M -1389.999633789062 5.00029993057251 L -1389.999755859375 5.000400066375732 L -1390.00048828125 0.9998999834060669 L -1390.00048828125 4.999599933624268 L -1394.000122070312 5.00029993057251 L -1389.999633789062 5.00029993057251 M -1389.999633789062 6.00029993057251 L -1394.000122070312 6.00029993057251 C -1394.551879882812 6.00029993057251 -1395 5.55210018157959 -1395 5.000400066375732 C -1395 4.447800159454346 -1394.551879882812 3.999599933624268 -1394.000122070312 3.999599933624268 L -1391.00048828125 3.999599933624268 L -1391.00048828125 0.9998999834060669 C -1391.00048828125 0.4472999572753906 -1390.55224609375 -3.471374654395731e-08 -1389.999633789062 -3.471374654395731e-08 C -1389.447875976562 -3.471374654395731e-08 -1388.999755859375 0.4472999572753906 -1388.999755859375 0.9998999834060669 L -1388.999755859375 5.000400066375732 C -1388.999755859375 5.55210018157959 -1389.447875976562 6.00029993057251 -1389.999633789062 6.00029993057251 Z"/>
        </g>
      </g>
      <g id="Group_78" data-name="Group 78" transform="translate(-15 193)">
        <circle id="Ellipse_11-3" data-name="Ellipse 11" class="cls-3" cx="9" cy="9" r="9" transform="translate(337 164)"/>
        <g id="Union_1-3" data-name="Union 1" class="cls-4" transform="translate(1327.171 -813.414) rotate(-45)">
          <path class="cls-8" d="M -1389.999633789062 5.50029993057251 L -1394.000122070312 5.50029993057251 C -1394.275756835938 5.50029993057251 -1394.5 5.276050090789795 -1394.5 5.000400066375732 C -1394.5 4.724259853363037 -1394.275756835938 4.499599933624268 -1394.000122070312 4.499599933624268 L -1391.00048828125 4.499599933624268 L -1390.50048828125 4.499599933624268 L -1390.50048828125 3.999599933624268 L -1390.50048828125 0.9998999834060669 C -1390.50048828125 0.7242499589920044 -1390.275756835938 0.4999999701976776 -1389.999633789062 0.4999999701976776 C -1389.723999023438 0.4999999701976776 -1389.499755859375 0.7242499589920044 -1389.499755859375 0.9998999834060669 L -1389.499755859375 5.000400066375732 C -1389.499755859375 5.276050090789795 -1389.723999023438 5.50029993057251 -1389.999633789062 5.50029993057251 Z"/>
          <path class="cls-9" d="M -1389.999633789062 5.00029993057251 L -1389.999755859375 5.000400066375732 L -1390.00048828125 0.9998999834060669 L -1390.00048828125 4.999599933624268 L -1394.000122070312 5.00029993057251 L -1389.999633789062 5.00029993057251 M -1389.999633789062 6.00029993057251 L -1394.000122070312 6.00029993057251 C -1394.551879882812 6.00029993057251 -1395 5.55210018157959 -1395 5.000400066375732 C -1395 4.447800159454346 -1394.551879882812 3.999599933624268 -1394.000122070312 3.999599933624268 L -1391.00048828125 3.999599933624268 L -1391.00048828125 0.9998999834060669 C -1391.00048828125 0.4472999572753906 -1390.55224609375 -3.471374654395731e-08 -1389.999633789062 -3.471374654395731e-08 C -1389.447875976562 -3.471374654395731e-08 -1388.999755859375 0.4472999572753906 -1388.999755859375 0.9998999834060669 L -1388.999755859375 5.000400066375732 C -1388.999755859375 5.55210018157959 -1389.447875976562 6.00029993057251 -1389.999633789062 6.00029993057251 Z"/>
        </g>
      </g>
      <g id="Group_79" data-name="Group 79" transform="translate(-15 241)">
        <circle id="Ellipse_11-4" data-name="Ellipse 11" class="cls-3" cx="9" cy="9" r="9" transform="translate(337 164)"/>
        <g id="Union_1-4" data-name="Union 1" class="cls-4" transform="translate(1327.171 -813.414) rotate(-45)">
          <path class="cls-8" d="M -1389.999633789062 5.50029993057251 L -1394.000122070312 5.50029993057251 C -1394.275756835938 5.50029993057251 -1394.5 5.276050090789795 -1394.5 5.000400066375732 C -1394.5 4.724259853363037 -1394.275756835938 4.499599933624268 -1394.000122070312 4.499599933624268 L -1391.00048828125 4.499599933624268 L -1390.50048828125 4.499599933624268 L -1390.50048828125 3.999599933624268 L -1390.50048828125 0.9998999834060669 C -1390.50048828125 0.7242499589920044 -1390.275756835938 0.4999999701976776 -1389.999633789062 0.4999999701976776 C -1389.723999023438 0.4999999701976776 -1389.499755859375 0.7242499589920044 -1389.499755859375 0.9998999834060669 L -1389.499755859375 5.000400066375732 C -1389.499755859375 5.276050090789795 -1389.723999023438 5.50029993057251 -1389.999633789062 5.50029993057251 Z"/>
          <path class="cls-9" d="M -1389.999633789062 5.00029993057251 L -1389.999755859375 5.000400066375732 L -1390.00048828125 0.9998999834060669 L -1390.00048828125 4.999599933624268 L -1394.000122070312 5.00029993057251 L -1389.999633789062 5.00029993057251 M -1389.999633789062 6.00029993057251 L -1394.000122070312 6.00029993057251 C -1394.551879882812 6.00029993057251 -1395 5.55210018157959 -1395 5.000400066375732 C -1395 4.447800159454346 -1394.551879882812 3.999599933624268 -1394.000122070312 3.999599933624268 L -1391.00048828125 3.999599933624268 L -1391.00048828125 0.9998999834060669 C -1391.00048828125 0.4472999572753906 -1390.55224609375 -3.471374654395731e-08 -1389.999633789062 -3.471374654395731e-08 C -1389.447875976562 -3.471374654395731e-08 -1388.999755859375 0.4472999572753906 -1388.999755859375 0.9998999834060669 L -1388.999755859375 5.000400066375732 C -1388.999755859375 5.55210018157959 -1389.447875976562 6.00029993057251 -1389.999633789062 6.00029993057251 Z"/>
        </g>
      </g>
    </g>
    <g id="dividers">
      <line id="divider" class="cls-5" x2="263" transform="translate(77 294)"/>
      <line id="divider-2" data-name="divider" class="cls-5" x2="263" transform="translate(77 342)"/>
      <line id="divider-3" data-name="divider" class="cls-5" x2="263" transform="translate(77 390)"/>
    </g>
    <g id="icons">
      <path id="_005-bell" data-name="005-bell" class="cls-6" d="M14.575,14.631H14.42l-.756-6.6a5.2,5.2,0,0,0-3.288-4.258,2.353,2.353,0,1,0-3.752,0A5.2,5.2,0,0,0,3.336,8.029l-.756,6.6H2.425a1.925,1.925,0,1,0,0,3.85h4.15v1.5a1.925,1.925,0,1,0,3.85,0v-1.5h4.15a1.925,1.925,0,0,0,0-3.85ZM8.5,1.283a1.07,1.07,0,1,1-1.07,1.07A1.071,1.071,0,0,1,8.5,1.283ZM4.611,8.175a3.914,3.914,0,0,1,7.778,0l.739,6.456H3.872Zm4.531,11.8a.642.642,0,1,1-1.283,0v-1.5H9.142ZM14.575,17.2H2.425a.642.642,0,1,1,0-1.283h12.15a.642.642,0,1,1,0,1.283Zm0,0" transform="translate(39.5 259)"/>
      <g id="_006-shield" data-name="006-shield" transform="translate(40 307.001)">
        <path id="Path_60" data-name="Path 60" class="cls-7" d="M17.862,5.7V5.681c-.009-.2-.015-.415-.019-.653a2.226,2.226,0,0,0-2.1-2.18A8.637,8.637,0,0,1,9.869.37L9.855.357a1.344,1.344,0,0,0-1.826,0L8.015.37A8.637,8.637,0,0,1,2.137,2.848a2.226,2.226,0,0,0-2.1,2.18c0,.236-.01.449-.019.652v.038a22.759,22.759,0,0,0,.92,8.307,10.575,10.575,0,0,0,2.537,3.952,13.272,13.272,0,0,0,4.965,2.937,1.535,1.535,0,0,0,.2.055,1.5,1.5,0,0,0,.591,0,1.537,1.537,0,0,0,.2-.056,13.28,13.28,0,0,0,4.96-2.938,10.59,10.59,0,0,0,2.537-3.953A22.793,22.793,0,0,0,17.862,5.7Zm-2.08,7.9c-1.081,2.931-3.288,4.944-6.747,6.154L9,19.761a.277.277,0,0,1-.108,0l-.039-.01C5.386,18.543,3.178,16.531,2.1,13.6a21.473,21.473,0,0,1-.844-7.858V5.728c.01-.213.016-.437.02-.682a.989.989,0,0,1,.932-.968,10.812,10.812,0,0,0,3.67-.807,9.6,9.6,0,0,0,2.99-2.009.114.114,0,0,1,.153,0,9.6,9.6,0,0,0,2.99,2.009,10.812,10.812,0,0,0,3.67.807.989.989,0,0,1,.932.968c0,.247.01.47.02.682A21.484,21.484,0,0,1,15.782,13.6Zm0,0" transform="translate(0)"/>
        <path id="Path_61" data-name="Path 61" class="cls-7" d="M95.632,128.41a5.234,5.234,0,1,0,5.233,5.233A5.239,5.239,0,0,0,95.632,128.41Zm0,9.235a4,4,0,1,1,4-4A4.006,4.006,0,0,1,95.632,137.645Zm0,0" transform="translate(-86.691 -123.144)"/>
        <path id="Path_62" data-name="Path 62" class="cls-7" d="M157.815,212.172l-2.431,2.431-.66-.66a.616.616,0,1,0-.871.871l1.1,1.1a.616.616,0,0,0,.871,0l2.867-2.867a.616.616,0,1,0-.871-.871Zm0,0" transform="translate(-147.37 -203.297)"/>
      </g>
      <path id="_007-discuss-issue" data-name="007-discuss-issue" class="cls-7" d="M17.326,21.037a1.878,1.878,0,0,1-.864,1.409c-.138.116-.4.328-.395.407a.553.553,0,0,1-.557.558h0a.554.554,0,0,1-.561-.548,1.681,1.681,0,0,1,.8-1.272c.28-.235.463-.4.463-.552a.556.556,0,0,0-1.111,0,.561.561,0,1,1-1.123,0,1.678,1.678,0,0,1,3.357,0Zm-1.8,2.892a.551.551,0,0,0-.549.561v0a.549.549,0,0,0,.549.559.563.563,0,0,0,0-1.125ZM4.2,27.84a.561.561,0,1,0,0,1.123h.047a.561.561,0,0,0,0-1.123Zm1.951,0a.561.561,0,1,0,0,1.123H6.2a.561.561,0,0,0,0-1.123Zm16.49-8.968v6.32a2.7,2.7,0,0,1-2.7,2.711H12.668c-.142,0-.26,0-.358,0s-.218,0-.264,0c-.047.031-.162.137-.273.239l-.147.134-2.06,1.878a.575.575,0,0,1-.957-.415V23.785H2.728a1.609,1.609,0,0,0-1.6,1.6V31.7a1.584,1.584,0,0,0,1.6,1.567h8.134a.564.564,0,0,1,.375.159l1.678,1.547V29.638a.561.561,0,0,1,1.123,0v6.609a.554.554,0,0,1-.331.511.539.539,0,0,1-.222.045.567.567,0,0,1-.379-.153l-2.462-2.259H2.728A2.708,2.708,0,0,1,0,31.7v-6.32a2.733,2.733,0,0,1,2.728-2.719H8.609v-3.79a2.724,2.724,0,0,1,2.737-2.7h8.6A2.689,2.689,0,0,1,22.646,18.872Zm-1.123,0A1.564,1.564,0,0,0,19.95,17.3h-8.6a1.6,1.6,0,0,0-1.614,1.575v9.593l1.129-1.02c.052-.048.111-.091.154-.131a1.417,1.417,0,0,1,1.32-.537c.092,0,.2,0,.334,0H19.95a1.575,1.575,0,0,0,1.573-1.588v-6.32Z" transform="translate(37 339.826)"/>
      <g id="_008-check-form" data-name="008-check-form" transform="translate(34.037 405)">
        <path id="Path_63" data-name="Path 63" class="cls-6" d="M18.742,9.013V1.369H7.332V15.631H12.58a.685.685,0,0,1,0,1.369H6.648a.687.687,0,0,1-.685-.685V.685A.687.687,0,0,1,6.648,0H19.426a.687.687,0,0,1,.685.685V9.013a.685.685,0,1,1-1.369,0Zm3.526,1.666a.686.686,0,0,0-.97.057l-3.754,4.176L15.661,13.1a.686.686,0,0,0-.947.993l2.4,2.3a.673.673,0,0,0,.479.194h.023a.684.684,0,0,0,.479-.228l4.221-4.7A.689.689,0,0,0,22.267,10.679ZM16.231,3.993H10.07a.685.685,0,1,0,0,1.369h6.161a.685.685,0,1,0,0-1.369Zm.685,4.45a.687.687,0,0,0-.685-.685H10.07a.685.685,0,1,0,0,1.369h6.161A.687.687,0,0,0,16.916,8.443ZM10.07,11.409a.685.685,0,1,0,0,1.369H11.9a.685.685,0,0,0,0-1.369Z"/>
      </g>
    </g>
  </g>
</svg>
