<svg xmlns="http://www.w3.org/2000/svg" xmlns:xlink="http://www.w3.org/1999/xlink" width="380" height="237" viewBox="0 0 380 237">
  <defs>
    <style>
      .cls-1, .cls-5 {
        fill: #fff;
      }

      .cls-2, .cls-3 {
        fill: #515c6f;
        font-size: 15px;
      }

      .cls-2 {
        font-family: SegoeUI, Segoe UI;
      }

      .cls-3 {
        font-family: SegoeUI-Light, Segoe UI;
        font-weight: 300;
      }

      .cls-4, .cls-7, .cls-8 {
        fill: #727c8e;
      }

      .cls-4 {
        opacity: 0.2;
      }

      .cls-6 {
        fill: none;
        opacity: 0.1;
      }

      .cls-6, .cls-8 {
        stroke: #727c8e;
      }

      .cls-8 {
        stroke-width: 0.2px;
      }

      .cls-10, .cls-9 {
        stroke: none;
      }

      .cls-10 {
        fill: #727c8e;
      }

      .cls-11 {
        filter: url(#base);
      }
    </style>
    <filter id="base" x="0" y="0" width="380" height="237" filterUnits="userSpaceOnUse">
      <feOffset dy="8" input="SourceAlpha"/>
      <feGaussianBlur stdDeviation="7.5" result="blur"/>
      <feFlood flood-color="#e7eaf0"/>
      <feComposite operator="in" in2="blur"/>
      <feComposite in="SourceGraphic"/>
    </filter>
  </defs>
  <g id="section_1" data-name="section 1" transform="translate(2.5 -231.5)">
    <g class="cls-11" transform="matrix(1, 0, 0, 1, -2.5, 231.5)">
      <rect id="base-2" data-name="base" class="cls-1" width="335" height="192" rx="10" transform="translate(22.5 14.5)"/>
    </g>
    <g id="text">
      <text id="Shipping_Address" data-name="Shipping Address" class="cls-2" transform="translate(77 276)"><tspan x="0" y="0">Shipping Address</tspan></text>
      <text id="Payment_Method" data-name="Payment Method" class="cls-2" transform="translate(77 324)"><tspan x="0" y="0">Payment Method</tspan></text>
      <text id="Currency" class="cls-2" transform="translate(77 371)"><tspan x="0" y="0">Currency</tspan></text>
      <text id="USD" class="cls-3" transform="translate(312 371)"><tspan x="-27.283" y="0">USD</tspan></text>
      <text id="Language" class="cls-2" transform="translate(77 419)"><tspan x="0" y="0">Language</tspan></text>
      <text id="English" class="cls-3" transform="translate(312 419)"><tspan x="-43.931" y="0">English</tspan></text>
    </g>
    <g id="arrows">
      <g id="arrow" transform="translate(-15 97)">
        <circle id="Ellipse_11" data-name="Ellipse 11" class="cls-4" cx="9" cy="9" r="9" transform="translate(337 164)"/>
        <g id="Union_1" data-name="Union 1" class="cls-5" transform="translate(1327.171 -813.414) rotate(-45)">
          <path class="cls-9" d="M -1389.999633789062 5.50029993057251 L -1394.000122070312 5.50029993057251 C -1394.275756835938 5.50029993057251 -1394.5 5.276050090789795 -1394.5 5.000400066375732 C -1394.5 4.724259853363037 -1394.275756835938 4.499599933624268 -1394.000122070312 4.499599933624268 L -1391.00048828125 4.499599933624268 L -1390.50048828125 4.499599933624268 L -1390.50048828125 3.999599933624268 L -1390.50048828125 0.9998999834060669 C -1390.50048828125 0.7242499589920044 -1390.275756835938 0.4999999701976776 -1389.999633789062 0.4999999701976776 C -1389.723999023438 0.4999999701976776 -1389.499755859375 0.7242499589920044 -1389.499755859375 0.9998999834060669 L -1389.499755859375 5.000400066375732 C -1389.499755859375 5.276050090789795 -1389.723999023438 5.50029993057251 -1389.999633789062 5.50029993057251 Z"/>
          <path class="cls-10" d="M -1389.999633789062 5.00029993057251 L -1389.999755859375 5.000400066375732 L -1390.00048828125 0.9998999834060669 L -1390.00048828125 4.999599933624268 L -1394.000122070312 5.00029993057251 L -1389.999633789062 5.00029993057251 M -1389.999633789062 6.00029993057251 L -1394.000122070312 6.00029993057251 C -1394.551879882812 6.00029993057251 -1395 5.55210018157959 -1395 5.000400066375732 C -1395 4.447800159454346 -1394.551879882812 3.999599933624268 -1394.000122070312 3.999599933624268 L -1391.00048828125 3.999599933624268 L -1391.00048828125 0.9998999834060669 C -1391.00048828125 0.4472999572753906 -1390.55224609375 -3.471374654395731e-08 -1389.999633789062 -3.471374654395731e-08 C -1389.447875976562 -3.471374654395731e-08 -1388.999755859375 0.4472999572753906 -1388.999755859375 0.9998999834060669 L -1388.999755859375 5.000400066375732 C -1388.999755859375 5.55210018157959 -1389.447875976562 6.00029993057251 -1389.999633789062 6.00029993057251 Z"/>
        </g>
      </g>
      <g id="arrow-2" data-name="arrow" transform="translate(-15 145)">
        <circle id="Ellipse_11-2" data-name="Ellipse 11" class="cls-4" cx="9" cy="9" r="9" transform="translate(337 164)"/>
        <g id="Union_1-2" data-name="Union 1" class="cls-5" transform="translate(1327.171 -813.414) rotate(-45)">
          <path class="cls-9" d="M -1389.999633789062 5.50029993057251 L -1394.000122070312 5.50029993057251 C -1394.275756835938 5.50029993057251 -1394.5 5.276050090789795 -1394.5 5.000400066375732 C -1394.5 4.724259853363037 -1394.275756835938 4.499599933624268 -1394.000122070312 4.499599933624268 L -1391.00048828125 4.499599933624268 L -1390.50048828125 4.499599933624268 L -1390.50048828125 3.999599933624268 L -1390.50048828125 0.9998999834060669 C -1390.50048828125 0.7242499589920044 -1390.275756835938 0.4999999701976776 -1389.999633789062 0.4999999701976776 C -1389.723999023438 0.4999999701976776 -1389.499755859375 0.7242499589920044 -1389.499755859375 0.9998999834060669 L -1389.499755859375 5.000400066375732 C -1389.499755859375 5.276050090789795 -1389.723999023438 5.50029993057251 -1389.999633789062 5.50029993057251 Z"/>
          <path class="cls-10" d="M -1389.999633789062 5.00029993057251 L -1389.999755859375 5.000400066375732 L -1390.00048828125 0.9998999834060669 L -1390.00048828125 4.999599933624268 L -1394.000122070312 5.00029993057251 L -1389.999633789062 5.00029993057251 M -1389.999633789062 6.00029993057251 L -1394.000122070312 6.00029993057251 C -1394.551879882812 6.00029993057251 -1395 5.55210018157959 -1395 5.000400066375732 C -1395 4.447800159454346 -1394.551879882812 3.999599933624268 -1394.000122070312 3.999599933624268 L -1391.00048828125 3.999599933624268 L -1391.00048828125 0.9998999834060669 C -1391.00048828125 0.4472999572753906 -1390.55224609375 -3.471374654395731e-08 -1389.999633789062 -3.471374654395731e-08 C -1389.447875976562 -3.471374654395731e-08 -1388.999755859375 0.4472999572753906 -1388.999755859375 0.9998999834060669 L -1388.999755859375 5.000400066375732 C -1388.999755859375 5.55210018157959 -1389.447875976562 6.00029993057251 -1389.999633789062 6.00029993057251 Z"/>
        </g>
      </g>
      <g id="arrow-3" data-name="arrow" transform="translate(-15 193)">
        <circle id="Ellipse_11-3" data-name="Ellipse 11" class="cls-4" cx="9" cy="9" r="9" transform="translate(337 164)"/>
        <g id="Union_1-3" data-name="Union 1" class="cls-5" transform="translate(1327.171 -813.414) rotate(-45)">
          <path class="cls-9" d="M -1389.999633789062 5.50029993057251 L -1394.000122070312 5.50029993057251 C -1394.275756835938 5.50029993057251 -1394.5 5.276050090789795 -1394.5 5.000400066375732 C -1394.5 4.724259853363037 -1394.275756835938 4.499599933624268 -1394.000122070312 4.499599933624268 L -1391.00048828125 4.499599933624268 L -1390.50048828125 4.499599933624268 L -1390.50048828125 3.999599933624268 L -1390.50048828125 0.9998999834060669 C -1390.50048828125 0.7242499589920044 -1390.275756835938 0.4999999701976776 -1389.999633789062 0.4999999701976776 C -1389.723999023438 0.4999999701976776 -1389.499755859375 0.7242499589920044 -1389.499755859375 0.9998999834060669 L -1389.499755859375 5.000400066375732 C -1389.499755859375 5.276050090789795 -1389.723999023438 5.50029993057251 -1389.999633789062 5.50029993057251 Z"/>
          <path class="cls-10" d="M -1389.999633789062 5.00029993057251 L -1389.999755859375 5.000400066375732 L -1390.00048828125 0.9998999834060669 L -1390.00048828125 4.999599933624268 L -1394.000122070312 5.00029993057251 L -1389.999633789062 5.00029993057251 M -1389.999633789062 6.00029993057251 L -1394.000122070312 6.00029993057251 C -1394.551879882812 6.00029993057251 -1395 5.55210018157959 -1395 5.000400066375732 C -1395 4.447800159454346 -1394.551879882812 3.999599933624268 -1394.000122070312 3.999599933624268 L -1391.00048828125 3.999599933624268 L -1391.00048828125 0.9998999834060669 C -1391.00048828125 0.4472999572753906 -1390.55224609375 -3.471374654395731e-08 -1389.999633789062 -3.471374654395731e-08 C -1389.447875976562 -3.471374654395731e-08 -1388.999755859375 0.4472999572753906 -1388.999755859375 0.9998999834060669 L -1388.999755859375 5.000400066375732 C -1388.999755859375 5.55210018157959 -1389.447875976562 6.00029993057251 -1389.999633789062 6.00029993057251 Z"/>
        </g>
      </g>
      <g id="arrow-4" data-name="arrow" transform="translate(-15 241)">
        <circle id="Ellipse_11-4" data-name="Ellipse 11" class="cls-4" cx="9" cy="9" r="9" transform="translate(337 164)"/>
        <g id="Union_1-4" data-name="Union 1" class="cls-5" transform="translate(1327.171 -813.414) rotate(-45)">
          <path class="cls-9" d="M -1389.999633789062 5.50029993057251 L -1394.000122070312 5.50029993057251 C -1394.275756835938 5.50029993057251 -1394.5 5.276050090789795 -1394.5 5.000400066375732 C -1394.5 4.724259853363037 -1394.275756835938 4.499599933624268 -1394.000122070312 4.499599933624268 L -1391.00048828125 4.499599933624268 L -1390.50048828125 4.499599933624268 L -1390.50048828125 3.999599933624268 L -1390.50048828125 0.9998999834060669 C -1390.50048828125 0.7242499589920044 -1390.275756835938 0.4999999701976776 -1389.999633789062 0.4999999701976776 C -1389.723999023438 0.4999999701976776 -1389.499755859375 0.7242499589920044 -1389.499755859375 0.9998999834060669 L -1389.499755859375 5.000400066375732 C -1389.499755859375 5.276050090789795 -1389.723999023438 5.50029993057251 -1389.999633789062 5.50029993057251 Z"/>
          <path class="cls-10" d="M -1389.999633789062 5.00029993057251 L -1389.999755859375 5.000400066375732 L -1390.00048828125 0.9998999834060669 L -1390.00048828125 4.999599933624268 L -1394.000122070312 5.00029993057251 L -1389.999633789062 5.00029993057251 M -1389.999633789062 6.00029993057251 L -1394.000122070312 6.00029993057251 C -1394.551879882812 6.00029993057251 -1395 5.55210018157959 -1395 5.000400066375732 C -1395 4.447800159454346 -1394.551879882812 3.999599933624268 -1394.000122070312 3.999599933624268 L -1391.00048828125 3.999599933624268 L -1391.00048828125 0.9998999834060669 C -1391.00048828125 0.4472999572753906 -1390.55224609375 -3.471374654395731e-08 -1389.999633789062 -3.471374654395731e-08 C -1389.447875976562 -3.471374654395731e-08 -1388.999755859375 0.4472999572753906 -1388.999755859375 0.9998999834060669 L -1388.999755859375 5.000400066375732 C -1388.999755859375 5.55210018157959 -1389.447875976562 6.00029993057251 -1389.999633789062 6.00029993057251 Z"/>
        </g>
      </g>
    </g>
    <g id="dividers">
      <line id="divider" class="cls-6" x2="263" transform="translate(77 294)"/>
      <line id="divider-2" data-name="divider" class="cls-6" x2="263" transform="translate(77 342)"/>
      <line id="divider-3" data-name="divider" class="cls-6" x2="263" transform="translate(77 390)"/>
    </g>
    <g id="icons">
      <g id="shipping" transform="translate(-23.865 258)">
        <g id="Group_100" data-name="Group 100" transform="translate(63.865)">
          <path id="Path_52" data-name="Path 52" class="cls-7" d="M71,11.662V8.046h8.668L77.679,4.06,79.659,0H69.637V11.662a6.455,6.455,0,1,0,1.367,0Zm0-10.3h6.468l-1.318,2.7L77.46,6.679H71Zm-.683,21.8a5.088,5.088,0,0,1-.683-10.129v5.041H71V13.04a5.088,5.088,0,0,1-.683,10.129Z" transform="translate(-63.865)"/>
        </g>
      </g>
      <g id="payment" transform="translate(36.968 224.312)">
        <g id="Group_102" data-name="Group 102" transform="translate(0 85.333)">
          <g id="Group_101" data-name="Group 101" transform="translate(0 0)">
            <path id="Path_53" data-name="Path 53" class="cls-8" d="M18.668,85.333H2.171A2.425,2.425,0,0,0,0,87.944V99.431a2.425,2.425,0,0,0,2.171,2.611h16.5a2.425,2.425,0,0,0,2.171-2.611V87.944A2.425,2.425,0,0,0,18.668,85.333Zm1.3,14.1a1.455,1.455,0,0,1-1.3,1.566H2.171a1.455,1.455,0,0,1-1.3-1.566V87.944a1.455,1.455,0,0,1,1.3-1.566h16.5a1.455,1.455,0,0,1,1.3,1.566V99.431Z" transform="translate(0 -85.333)"/>
          </g>
        </g>
        <g id="Group_104" data-name="Group 104" transform="translate(0 88.466)">
          <g id="Group_103" data-name="Group 103" transform="translate(0 0)">
            <path id="Path_54" data-name="Path 54" class="cls-8" d="M20.4,149.333H.434a.485.485,0,0,0-.434.522v3.133a.484.484,0,0,0,.434.522H20.4a.484.484,0,0,0,.434-.522v-3.133A.485.485,0,0,0,20.4,149.333Zm-.434,3.133H.868v-2.089h19.1v2.089Z" transform="translate(0 -149.333)"/>
          </g>
        </g>
        <g id="Group_106" data-name="Group 106" transform="translate(3.133 95.776)">
          <g id="Group_105" data-name="Group 105" transform="translate(0 0)">
            <path id="Path_55" data-name="Path 55" class="cls-8" d="M70.788,298.667H64.522a.522.522,0,1,0,0,1.044h6.266a.522.522,0,1,0,0-1.044Z" transform="translate(-64 -298.667)"/>
          </g>
        </g>
        <g id="Group_108" data-name="Group 108" transform="translate(3.133 97.865)">
          <g id="Group_107" data-name="Group 107" transform="translate(0 0)">
            <path id="Path_56" data-name="Path 56" class="cls-8" d="M70.788,341.333H64.522a.522.522,0,1,0,0,1.044h6.266a.522.522,0,1,0,0-1.044Z" transform="translate(-64 -341.333)"/>
          </g>
        </g>
        <g id="Group_110" data-name="Group 110" transform="translate(13.528 94.732)">
          <g id="Group_109" data-name="Group 109" transform="translate(0 0)">
            <path id="Path_57" data-name="Path 57" class="cls-8" d="M365.278,277.333h-1.044a1.568,1.568,0,0,0-1.566,1.566v1.044a1.568,1.568,0,0,0,1.566,1.566h1.044a1.568,1.568,0,0,0,1.567-1.566V278.9A1.568,1.568,0,0,0,365.278,277.333Zm.522,2.611a.522.522,0,0,1-.522.522h-1.044a.522.522,0,0,1-.522-.522V278.9a.522.522,0,0,1,.522-.522h1.044a.522.522,0,0,1,.522.522Z" transform="translate(-362.667 -277.333)"/>
          </g>
        </g>
      </g>
      <path id="currency-2" data-name="currency" class="cls-7" d="M20.386,8.939V5.793A1.858,1.858,0,0,0,18.53,3.937H16.021L12.766.681a.618.618,0,0,0-.875,0l-1.3,1.3-1.3-1.3a.618.618,0,0,0-.875,0L5.163,3.937H1.856A1.858,1.858,0,0,0,0,5.793V16.031a1.858,1.858,0,0,0,1.856,1.856H18.53a1.858,1.858,0,0,0,1.856-1.856V12.885a1.239,1.239,0,0,0,.729-1.127v-1.69A1.239,1.239,0,0,0,20.386,8.939ZM18.53,16.65H17.076a1.848,1.848,0,0,0,.106-.619V12.994h1.966v3.037A.619.619,0,0,1,18.53,16.65Zm-16.674,0a.619.619,0,0,1-.619-.619V5.793a.619.619,0,0,1,.619-.619H15.327a.619.619,0,0,1,.619.619V8.83H13.62a1.239,1.239,0,0,0-1.237,1.237v1.69a1.239,1.239,0,0,0,1.237,1.237h2.326v3.037a.619.619,0,0,1-.619.619ZM19.149,5.793V8.83H17.183V5.793a1.847,1.847,0,0,0-.106-.619H18.53A.619.619,0,0,1,19.149,5.793ZM13.62,11.757v-1.69h6.257v1.69H13.62Zm.652-7.82H10.385l1.943-1.943Zm-5.636,0H6.913L8.856,1.993l.861.861Zm0,0" transform="translate(36.959 357.113)"/>
      <g id="language-2" data-name="language" transform="translate(36.959 402.959)">
        <path id="Path_58" data-name="Path 58" class="cls-7" d="M14.09,18.677,17.4,21.156V18.677h3.76V7.479H13.677V0H0V11.2H3.76v2.479L7.066,11.2h.413v7.479Zm5.826-1.24h-3.76v1.24L14.5,17.437H8.719V8.719h11.2ZM6.653,9.958,5,11.2V9.958H1.24V1.24h11.2V7.479H9.721L6.859,1.754,3.825,7.822l1.109.554.758-1.517H8.026l.31.62H7.479V9.958ZM7.406,5.62H6.312l.547-1.093Zm0,0"/>
        <path id="Path_59" data-name="Path 59" class="cls-7" d="M273.23,245.107a3.209,3.209,0,0,1-1.61.851v1.24a4.383,4.383,0,0,0,2.479-1.2,4.383,4.383,0,0,0,2.479,1.2v-1.24a3.209,3.209,0,0,1-1.61-.851,4.535,4.535,0,0,0,.9-1.628H277.2v-1.24h-2.479V241h-1.24v1.24H271v1.24h1.326A4.534,4.534,0,0,0,273.23,245.107Zm.869-.9a3.823,3.823,0,0,1-.457-.732h.915A3.82,3.82,0,0,1,274.1,244.211Zm0,0" transform="translate(-259.802 -231.042)"/>
      </g>
    </g>
  </g>
</svg>
