<svg xmlns="http://www.w3.org/2000/svg" xmlns:xlink="http://www.w3.org/1999/xlink" width="380" height="237" viewBox="0 0 380 237">
  <defs>
    <style>
      .cls-1, .cls-4 {
        fill: #fff;
      }

      .cls-2 {
        fill: #515c6f;
        font-size: 15px;
        font-family: SegoeUI, Segoe UI;
      }

      .cls-3, .cls-6, .cls-7, .cls-8 {
        fill: #727c8e;
      }

      .cls-3 {
        opacity: 0.2;
      }

      .cls-5 {
        fill: none;
        opacity: 0.1;
      }

      .cls-5, .cls-6, .cls-8 {
        stroke: #727c8e;
      }

      .cls-6 {
        stroke-width: 0.2px;
      }

      .cls-8 {
        stroke-width: 0.5px;
      }

      .cls-10, .cls-9 {
        stroke: none;
      }

      .cls-10 {
        fill: #727c8e;
      }

      .cls-11 {
        filter: url(#base);
      }
    </style>
    <filter id="base" x="0" y="0" width="380" height="237" filterUnits="userSpaceOnUse">
      <feOffset dy="8" input="SourceAlpha"/>
      <feGaussianBlur stdDeviation="7.5" result="blur"/>
      <feFlood flood-color="#e7eaf0"/>
      <feComposite operator="in" in2="blur"/>
      <feComposite in="SourceGraphic"/>
    </filter>
  </defs>
  <g id="section_1" data-name="section 1" transform="translate(2.5 -231.5)">
    <g class="cls-11" transform="matrix(1, 0, 0, 1, -2.5, 231.5)">
      <rect id="base-2" data-name="base" class="cls-1" width="335" height="192" rx="10" transform="translate(22.5 14.5)"/>
    </g>
    <g id="text" transform="translate(0 -147)">
      <text id="All_My_Orders" data-name="All My Orders" class="cls-2" transform="translate(77 423)"><tspan x="0" y="0">All My Orders</tspan></text>
      <text id="Pending_Shipments" data-name="Pending Shipments" class="cls-2" transform="translate(77 471)"><tspan x="0" y="0">Pending Shipments</tspan></text>
      <text id="Pending_Payments" data-name="Pending Payments" class="cls-2" transform="translate(77 518)"><tspan x="0" y="0">Pending Payments</tspan></text>
      <text id="Finished_Orders" data-name="Finished Orders" class="cls-2" transform="translate(77 566)"><tspan x="0" y="0">Finished Orders</tspan></text>
    </g>
    <g id="arrows" transform="translate(0 -147)">
      <g id="arrow" transform="translate(-15 244)">
        <circle id="Ellipse_11" data-name="Ellipse 11" class="cls-3" cx="9" cy="9" r="9" transform="translate(337 164)"/>
        <g id="Union_1" data-name="Union 1" class="cls-4" transform="translate(1327.171 -813.414) rotate(-45)">
          <path class="cls-9" d="M -1389.999633789062 5.50029993057251 L -1394.000122070312 5.50029993057251 C -1394.275756835938 5.50029993057251 -1394.5 5.276050090789795 -1394.5 5.000400066375732 C -1394.5 4.724259853363037 -1394.275756835938 4.499599933624268 -1394.000122070312 4.499599933624268 L -1391.00048828125 4.499599933624268 L -1390.50048828125 4.499599933624268 L -1390.50048828125 3.999599933624268 L -1390.50048828125 0.9998999834060669 C -1390.50048828125 0.7242499589920044 -1390.275756835938 0.4999999701976776 -1389.999633789062 0.4999999701976776 C -1389.723999023438 0.4999999701976776 -1389.499755859375 0.7242499589920044 -1389.499755859375 0.9998999834060669 L -1389.499755859375 5.000400066375732 C -1389.499755859375 5.276050090789795 -1389.723999023438 5.50029993057251 -1389.999633789062 5.50029993057251 Z"/>
          <path class="cls-10" d="M -1389.999633789062 5.00029993057251 L -1389.999755859375 5.000400066375732 L -1390.00048828125 0.9998999834060669 L -1390.00048828125 4.999599933624268 L -1394.000122070312 5.00029993057251 L -1389.999633789062 5.00029993057251 M -1389.999633789062 6.00029993057251 L -1394.000122070312 6.00029993057251 C -1394.551879882812 6.00029993057251 -1395 5.55210018157959 -1395 5.000400066375732 C -1395 4.447800159454346 -1394.551879882812 3.999599933624268 -1394.000122070312 3.999599933624268 L -1391.00048828125 3.999599933624268 L -1391.00048828125 0.9998999834060669 C -1391.00048828125 0.4472999572753906 -1390.55224609375 -3.471374654395731e-08 -1389.999633789062 -3.471374654395731e-08 C -1389.447875976562 -3.471374654395731e-08 -1388.999755859375 0.4472999572753906 -1388.999755859375 0.9998999834060669 L -1388.999755859375 5.000400066375732 C -1388.999755859375 5.55210018157959 -1389.447875976562 6.00029993057251 -1389.999633789062 6.00029993057251 Z"/>
        </g>
      </g>
      <g id="arrow-2" data-name="arrow" transform="translate(-15 292)">
        <circle id="Ellipse_11-2" data-name="Ellipse 11" class="cls-3" cx="9" cy="9" r="9" transform="translate(337 164)"/>
        <g id="Union_1-2" data-name="Union 1" class="cls-4" transform="translate(1327.171 -813.414) rotate(-45)">
          <path class="cls-9" d="M -1389.999633789062 5.50029993057251 L -1394.000122070312 5.50029993057251 C -1394.275756835938 5.50029993057251 -1394.5 5.276050090789795 -1394.5 5.000400066375732 C -1394.5 4.724259853363037 -1394.275756835938 4.499599933624268 -1394.000122070312 4.499599933624268 L -1391.00048828125 4.499599933624268 L -1390.50048828125 4.499599933624268 L -1390.50048828125 3.999599933624268 L -1390.50048828125 0.9998999834060669 C -1390.50048828125 0.7242499589920044 -1390.275756835938 0.4999999701976776 -1389.999633789062 0.4999999701976776 C -1389.723999023438 0.4999999701976776 -1389.499755859375 0.7242499589920044 -1389.499755859375 0.9998999834060669 L -1389.499755859375 5.000400066375732 C -1389.499755859375 5.276050090789795 -1389.723999023438 5.50029993057251 -1389.999633789062 5.50029993057251 Z"/>
          <path class="cls-10" d="M -1389.999633789062 5.00029993057251 L -1389.999755859375 5.000400066375732 L -1390.00048828125 0.9998999834060669 L -1390.00048828125 4.999599933624268 L -1394.000122070312 5.00029993057251 L -1389.999633789062 5.00029993057251 M -1389.999633789062 6.00029993057251 L -1394.000122070312 6.00029993057251 C -1394.551879882812 6.00029993057251 -1395 5.55210018157959 -1395 5.000400066375732 C -1395 4.447800159454346 -1394.551879882812 3.999599933624268 -1394.000122070312 3.999599933624268 L -1391.00048828125 3.999599933624268 L -1391.00048828125 0.9998999834060669 C -1391.00048828125 0.4472999572753906 -1390.55224609375 -3.471374654395731e-08 -1389.999633789062 -3.471374654395731e-08 C -1389.447875976562 -3.471374654395731e-08 -1388.999755859375 0.4472999572753906 -1388.999755859375 0.9998999834060669 L -1388.999755859375 5.000400066375732 C -1388.999755859375 5.55210018157959 -1389.447875976562 6.00029993057251 -1389.999633789062 6.00029993057251 Z"/>
        </g>
      </g>
      <g id="arrow-3" data-name="arrow" transform="translate(-15 340)">
        <circle id="Ellipse_11-3" data-name="Ellipse 11" class="cls-3" cx="9" cy="9" r="9" transform="translate(337 164)"/>
        <g id="Union_1-3" data-name="Union 1" class="cls-4" transform="translate(1327.171 -813.414) rotate(-45)">
          <path class="cls-9" d="M -1389.999633789062 5.50029993057251 L -1394.000122070312 5.50029993057251 C -1394.275756835938 5.50029993057251 -1394.5 5.276050090789795 -1394.5 5.000400066375732 C -1394.5 4.724259853363037 -1394.275756835938 4.499599933624268 -1394.000122070312 4.499599933624268 L -1391.00048828125 4.499599933624268 L -1390.50048828125 4.499599933624268 L -1390.50048828125 3.999599933624268 L -1390.50048828125 0.9998999834060669 C -1390.50048828125 0.7242499589920044 -1390.275756835938 0.4999999701976776 -1389.999633789062 0.4999999701976776 C -1389.723999023438 0.4999999701976776 -1389.499755859375 0.7242499589920044 -1389.499755859375 0.9998999834060669 L -1389.499755859375 5.000400066375732 C -1389.499755859375 5.276050090789795 -1389.723999023438 5.50029993057251 -1389.999633789062 5.50029993057251 Z"/>
          <path class="cls-10" d="M -1389.999633789062 5.00029993057251 L -1389.999755859375 5.000400066375732 L -1390.00048828125 0.9998999834060669 L -1390.00048828125 4.999599933624268 L -1394.000122070312 5.00029993057251 L -1389.999633789062 5.00029993057251 M -1389.999633789062 6.00029993057251 L -1394.000122070312 6.00029993057251 C -1394.551879882812 6.00029993057251 -1395 5.55210018157959 -1395 5.000400066375732 C -1395 4.447800159454346 -1394.551879882812 3.999599933624268 -1394.000122070312 3.999599933624268 L -1391.00048828125 3.999599933624268 L -1391.00048828125 0.9998999834060669 C -1391.00048828125 0.4472999572753906 -1390.55224609375 -3.471374654395731e-08 -1389.999633789062 -3.471374654395731e-08 C -1389.447875976562 -3.471374654395731e-08 -1388.999755859375 0.4472999572753906 -1388.999755859375 0.9998999834060669 L -1388.999755859375 5.000400066375732 C -1388.999755859375 5.55210018157959 -1389.447875976562 6.00029993057251 -1389.999633789062 6.00029993057251 Z"/>
        </g>
      </g>
      <g id="arrow-4" data-name="arrow" transform="translate(-15 388)">
        <circle id="Ellipse_11-4" data-name="Ellipse 11" class="cls-3" cx="9" cy="9" r="9" transform="translate(337 164)"/>
        <g id="Union_1-4" data-name="Union 1" class="cls-4" transform="translate(1327.171 -813.414) rotate(-45)">
          <path class="cls-9" d="M -1389.999633789062 5.50029993057251 L -1394.000122070312 5.50029993057251 C -1394.275756835938 5.50029993057251 -1394.5 5.276050090789795 -1394.5 5.000400066375732 C -1394.5 4.724259853363037 -1394.275756835938 4.499599933624268 -1394.000122070312 4.499599933624268 L -1391.00048828125 4.499599933624268 L -1390.50048828125 4.499599933624268 L -1390.50048828125 3.999599933624268 L -1390.50048828125 0.9998999834060669 C -1390.50048828125 0.7242499589920044 -1390.275756835938 0.4999999701976776 -1389.999633789062 0.4999999701976776 C -1389.723999023438 0.4999999701976776 -1389.499755859375 0.7242499589920044 -1389.499755859375 0.9998999834060669 L -1389.499755859375 5.000400066375732 C -1389.499755859375 5.276050090789795 -1389.723999023438 5.50029993057251 -1389.999633789062 5.50029993057251 Z"/>
          <path class="cls-10" d="M -1389.999633789062 5.00029993057251 L -1389.999755859375 5.000400066375732 L -1390.00048828125 0.9998999834060669 L -1390.00048828125 4.999599933624268 L -1394.000122070312 5.00029993057251 L -1389.999633789062 5.00029993057251 M -1389.999633789062 6.00029993057251 L -1394.000122070312 6.00029993057251 C -1394.551879882812 6.00029993057251 -1395 5.55210018157959 -1395 5.000400066375732 C -1395 4.447800159454346 -1394.551879882812 3.999599933624268 -1394.000122070312 3.999599933624268 L -1391.00048828125 3.999599933624268 L -1391.00048828125 0.9998999834060669 C -1391.00048828125 0.4472999572753906 -1390.55224609375 -3.471374654395731e-08 -1389.999633789062 -3.471374654395731e-08 C -1389.447875976562 -3.471374654395731e-08 -1388.999755859375 0.4472999572753906 -1388.999755859375 0.9998999834060669 L -1388.999755859375 5.000400066375732 C -1388.999755859375 5.55210018157959 -1389.447875976562 6.00029993057251 -1389.999633789062 6.00029993057251 Z"/>
        </g>
      </g>
    </g>
    <g id="dividers" transform="translate(0 -147)">
      <line id="divider" class="cls-5" x2="263" transform="translate(77 441)"/>
      <line id="divider-2" data-name="divider" class="cls-5" x2="263" transform="translate(77 489)"/>
      <line id="divider-3" data-name="divider" class="cls-5" x2="263" transform="translate(77 537)"/>
    </g>
    <g id="icons" transform="translate(0 -147)">
      <path id="finished" class="cls-6" d="M-1377.4-318.3a3.6,3.6,0,0,1-2.628-1.147,3.6,3.6,0,0,1-.944-2.708l.983-12.384a1.547,1.547,0,0,1,1.535-1.42h1.941v-.087a4.257,4.257,0,0,1,4.252-4.253,4.257,4.257,0,0,1,4.252,4.253v.087h1.94a1.547,1.547,0,0,1,1.535,1.422l.983,12.38a3.6,3.6,0,0,1-.943,2.71,3.6,3.6,0,0,1-2.629,1.147Zm-1.3-16.139-.983,12.383a2.271,2.271,0,0,0,.6,1.733,2.272,2.272,0,0,0,1.683.734h10.279a2.272,2.272,0,0,0,1.683-.734,2.27,2.27,0,0,0,.6-1.734l-.982-12.379a.253.253,0,0,0-.251-.234h-1.94v1.587a.645.645,0,0,1-.644.644.645.645,0,0,1-.644-.644v-1.587h-5.928v1.587a.644.644,0,0,1-.644.644.644.644,0,0,1-.644-.644v-1.587h-1.941A.252.252,0,0,0-1378.7-334.44Zm3.479-1.608v.087h5.928v-.087a2.967,2.967,0,0,0-2.964-2.964A2.968,2.968,0,0,0-1375.223-336.048Zm1.4,11.182-1.824-1.824a.752.752,0,0,1,0-1.065.754.754,0,0,1,1.065,0l1.292,1.292,3.361-3.361a.751.751,0,0,1,1.064,0,.752.752,0,0,1,0,1.065l-3.892,3.892a.75.75,0,0,1-.533.221A.751.751,0,0,1-1373.825-324.866Z" transform="translate(1419.98 888.602)"/>
      <path id="pending_payment" data-name="pending payment" class="cls-7" d="M-1417.819-275.324a4.487,4.487,0,0,1-3.365-1.6,5.338,5.338,0,0,1-1.346-3.479v-3.025a.794.794,0,0,1,.47-.724l3.9-1.742a.785.785,0,0,1,.4-.066.787.787,0,0,1,.4.066l3.9,1.742a.793.793,0,0,1,.47.724v3.025a5.338,5.338,0,0,1-1.346,3.479,4.487,4.487,0,0,1-3.365,1.6Zm-3.123-7.591v2.509a3.465,3.465,0,0,0,3.123,3.493h.107a3.466,3.466,0,0,0,3.123-3.493v-2.509l-3.177-1.42Zm-8.933,3.535a3.121,3.121,0,0,1-3.125-3.11v-8.4a3.121,3.121,0,0,1,3.125-3.111h13.75a3.122,3.122,0,0,1,3.125,3.111v4.126a.78.78,0,0,1-.781.778.78.78,0,0,1-.781-.778v-1.555h-16.875v5.828a1.561,1.561,0,0,0,1.562,1.555h5.2a.78.78,0,0,1,.781.778.78.78,0,0,1-.781.778Zm-1.562-11.51v1.016h16.875v-1.016a1.561,1.561,0,0,0-1.562-1.555h-13.75A1.561,1.561,0,0,0-1431.437-290.889Z" transform="translate(1471 798)"/>
      <path id="pending_shipments-2" data-name="pending shipments" class="cls-7" d="M17.071,2.929A10,10,0,0,0,0,9.925s0,.008,0,.012L.045,10l5.489,7.8v5.836h8.949V17.8L19.971,10,20,9.959a.26.26,0,0,0,0-.029A9.931,9.931,0,0,0,17.071,2.929ZM10,1.385a8.629,8.629,0,0,1,8.509,7.259h0a3.275,3.275,0,0,0-1.646-.377,3.792,3.792,0,0,0-2.215.905,3.56,3.56,0,0,0-2.439-.905,3.794,3.794,0,0,0-2.215.905,3.563,3.563,0,0,0-2.439-.905,3.794,3.794,0,0,0-2.215.905A3.566,3.566,0,0,0,2.9,8.267a3.424,3.424,0,0,0-1.409.378h0A8.629,8.629,0,0,1,10,1.385Zm3.1,20.866H6.919V18.235H13.1Zm-3.824-5.4H8.645L6.159,10.291a2.463,2.463,0,0,1,1.451-.64,2.355,2.355,0,0,1,1.664.729Zm1.385,0V10.434a2.587,2.587,0,0,1,1.605-.783,2.274,2.274,0,0,1,1.559.637L11.335,16.85ZM1.79,10.072a2.251,2.251,0,0,1,1.174-.422,2.481,2.481,0,0,1,1.8.869l2.4,6.33h-.6ZM13.457,16.85h-.641l2.39-6.305a2.683,2.683,0,0,1,1.712-.894,2.1,2.1,0,0,1,1.3.435h0Zm0,0" transform="translate(38 453)"/>
      <g id="all_order" data-name="all order" transform="translate(38 378.75)">
        <g id="Group_82" data-name="Group 82" transform="translate(0 29.25)">
          <path id="Path_34" data-name="Path 34" class="cls-8" d="M2.152,33.559A2.154,2.154,0,1,0,0,31.4,2.155,2.155,0,0,0,2.152,33.559Zm0-3.308A1.152,1.152,0,1,1,1,31.4,1.153,1.153,0,0,1,2.152,30.251Z" transform="translate(0 -29.25)"/>
          <path id="Path_35" data-name="Path 35" class="cls-8" d="M2.152,196.455A2.152,2.152,0,1,0,0,194.3,2.155,2.155,0,0,0,2.152,196.455Zm0-3.3A1.152,1.152,0,1,1,1,194.3,1.153,1.153,0,0,1,2.152,193.151Z" transform="translate(0 -185.497)"/>
          <path id="Path_36" data-name="Path 36" class="cls-8" d="M2.152,359.355A2.152,2.152,0,1,0,0,357.2,2.155,2.155,0,0,0,2.152,359.355Zm0-3.308A1.152,1.152,0,1,1,1,357.2,1.153,1.153,0,0,1,2.152,356.047Z" transform="translate(0 -341.744)"/>
          <path id="Path_37" data-name="Path 37" class="cls-8" d="M164.1,70.655h12.314a.5.5,0,0,0,0-1H164.1a.5.5,0,0,0,0,1Z" transform="translate(-156.918 -68)"/>
          <path id="Path_38" data-name="Path 38" class="cls-8" d="M164.1,233.555h12.314a.5.5,0,0,0,0-1H164.1a.5.5,0,1,0,0,1Z" transform="translate(-156.918 -224.247)"/>
          <path id="Path_39" data-name="Path 39" class="cls-8" d="M164.1,396.355h12.314a.5.5,0,1,0,0-1H164.1a.5.5,0,1,0,0,1Z" transform="translate(-156.918 -380.398)"/>
        </g>
      </g>
    </g>
  </g>
</svg>
