<svg xmlns="http://www.w3.org/2000/svg" xmlns:xlink="http://www.w3.org/1999/xlink" width="380" height="237" viewBox="0 0 380 237">
  <defs>
    <style>
      .cls-1, .cls-4 {
        fill: #fff;
      }

      .cls-2 {
        fill: #515c6f;
        font-size: 15px;
        font-family: SegoeUI, Segoe UI;
      }

      .cls-3, .cls-6, .cls-7, .cls-8 {
        fill: #727c8e;
      }

      .cls-3 {
        opacity: 0.2;
      }

      .cls-5 {
        fill: none;
        opacity: 0.1;
      }

      .cls-5, .cls-6, .cls-8 {
        stroke: #727c8e;
      }

      .cls-6 {
        stroke-width: 0.4px;
      }

      .cls-8 {
        stroke-width: 0.1px;
      }

      .cls-10, .cls-9 {
        stroke: none;
      }

      .cls-10 {
        fill: #727c8e;
      }

      .cls-11 {
        filter: url(#base);
      }
    </style>
    <filter id="base" x="0" y="0" width="380" height="237" filterUnits="userSpaceOnUse">
      <feOffset dy="8" input="SourceAlpha"/>
      <feGaussianBlur stdDeviation="7.5" result="blur"/>
      <feFlood flood-color="#e7eaf0"/>
      <feComposite operator="in" in2="blur"/>
      <feComposite in="SourceGraphic"/>
    </filter>
  </defs>
  <g id="section_2" data-name="section 2" transform="translate(2.5 -231.5)">
    <g class="cls-11" transform="matrix(1, 0, 0, 1, -2.5, 231.5)">
      <rect id="base-2" data-name="base" class="cls-1" width="335" height="192" rx="10" transform="translate(22.5 14.5)"/>
    </g>
    <g id="text">
      <text id="Invite_Friends" data-name="Invite Friends" class="cls-2" transform="translate(77 276)"><tspan x="0" y="0">Invite Friends</tspan></text>
      <text id="Customer_Support" data-name="Customer Support" class="cls-2" transform="translate(77 324)"><tspan x="0" y="0">Customer Support</tspan></text>
      <text id="Rate_Our_App" data-name="Rate Our App" class="cls-2" transform="translate(77 371)"><tspan x="0" y="0">Rate Our App</tspan></text>
      <text id="Make_a_Suggestion" data-name="Make a Suggestion" class="cls-2" transform="translate(77 418)"><tspan x="0" y="0">Make a Suggestion</tspan></text>
    </g>
    <g id="arrows">
      <g id="arrow" transform="translate(-15 97)">
        <circle id="Ellipse_11" data-name="Ellipse 11" class="cls-3" cx="9" cy="9" r="9" transform="translate(337 164)"/>
        <g id="Union_1" data-name="Union 1" class="cls-4" transform="translate(1327.171 -813.414) rotate(-45)">
          <path class="cls-9" d="M -1389.999633789062 5.50029993057251 L -1394.000122070312 5.50029993057251 C -1394.275756835938 5.50029993057251 -1394.5 5.276050090789795 -1394.5 5.000400066375732 C -1394.5 4.724259853363037 -1394.275756835938 4.499599933624268 -1394.000122070312 4.499599933624268 L -1391.00048828125 4.499599933624268 L -1390.50048828125 4.499599933624268 L -1390.50048828125 3.999599933624268 L -1390.50048828125 0.9998999834060669 C -1390.50048828125 0.7242499589920044 -1390.275756835938 0.4999999701976776 -1389.999633789062 0.4999999701976776 C -1389.723999023438 0.4999999701976776 -1389.499755859375 0.7242499589920044 -1389.499755859375 0.9998999834060669 L -1389.499755859375 5.000400066375732 C -1389.499755859375 5.276050090789795 -1389.723999023438 5.50029993057251 -1389.999633789062 5.50029993057251 Z"/>
          <path class="cls-10" d="M -1389.999633789062 5.00029993057251 L -1389.999755859375 5.000400066375732 L -1390.00048828125 0.9998999834060669 L -1390.00048828125 4.999599933624268 L -1394.000122070312 5.00029993057251 L -1389.999633789062 5.00029993057251 M -1389.999633789062 6.00029993057251 L -1394.000122070312 6.00029993057251 C -1394.551879882812 6.00029993057251 -1395 5.55210018157959 -1395 5.000400066375732 C -1395 4.447800159454346 -1394.551879882812 3.999599933624268 -1394.000122070312 3.999599933624268 L -1391.00048828125 3.999599933624268 L -1391.00048828125 0.9998999834060669 C -1391.00048828125 0.4472999572753906 -1390.55224609375 -3.471374654395731e-08 -1389.999633789062 -3.471374654395731e-08 C -1389.447875976562 -3.471374654395731e-08 -1388.999755859375 0.4472999572753906 -1388.999755859375 0.9998999834060669 L -1388.999755859375 5.000400066375732 C -1388.999755859375 5.55210018157959 -1389.447875976562 6.00029993057251 -1389.999633789062 6.00029993057251 Z"/>
        </g>
      </g>
      <g id="arrow-2" data-name="arrow" transform="translate(-15 145)">
        <circle id="Ellipse_11-2" data-name="Ellipse 11" class="cls-3" cx="9" cy="9" r="9" transform="translate(337 164)"/>
        <g id="Union_1-2" data-name="Union 1" class="cls-4" transform="translate(1327.171 -813.414) rotate(-45)">
          <path class="cls-9" d="M -1389.999633789062 5.50029993057251 L -1394.000122070312 5.50029993057251 C -1394.275756835938 5.50029993057251 -1394.5 5.276050090789795 -1394.5 5.000400066375732 C -1394.5 4.724259853363037 -1394.275756835938 4.499599933624268 -1394.000122070312 4.499599933624268 L -1391.00048828125 4.499599933624268 L -1390.50048828125 4.499599933624268 L -1390.50048828125 3.999599933624268 L -1390.50048828125 0.9998999834060669 C -1390.50048828125 0.7242499589920044 -1390.275756835938 0.4999999701976776 -1389.999633789062 0.4999999701976776 C -1389.723999023438 0.4999999701976776 -1389.499755859375 0.7242499589920044 -1389.499755859375 0.9998999834060669 L -1389.499755859375 5.000400066375732 C -1389.499755859375 5.276050090789795 -1389.723999023438 5.50029993057251 -1389.999633789062 5.50029993057251 Z"/>
          <path class="cls-10" d="M -1389.999633789062 5.00029993057251 L -1389.999755859375 5.000400066375732 L -1390.00048828125 0.9998999834060669 L -1390.00048828125 4.999599933624268 L -1394.000122070312 5.00029993057251 L -1389.999633789062 5.00029993057251 M -1389.999633789062 6.00029993057251 L -1394.000122070312 6.00029993057251 C -1394.551879882812 6.00029993057251 -1395 5.55210018157959 -1395 5.000400066375732 C -1395 4.447800159454346 -1394.551879882812 3.999599933624268 -1394.000122070312 3.999599933624268 L -1391.00048828125 3.999599933624268 L -1391.00048828125 0.9998999834060669 C -1391.00048828125 0.4472999572753906 -1390.55224609375 -3.471374654395731e-08 -1389.999633789062 -3.471374654395731e-08 C -1389.447875976562 -3.471374654395731e-08 -1388.999755859375 0.4472999572753906 -1388.999755859375 0.9998999834060669 L -1388.999755859375 5.000400066375732 C -1388.999755859375 5.55210018157959 -1389.447875976562 6.00029993057251 -1389.999633789062 6.00029993057251 Z"/>
        </g>
      </g>
      <g id="arrow-3" data-name="arrow" transform="translate(-15 193)">
        <circle id="Ellipse_11-3" data-name="Ellipse 11" class="cls-3" cx="9" cy="9" r="9" transform="translate(337 164)"/>
        <g id="Union_1-3" data-name="Union 1" class="cls-4" transform="translate(1327.171 -813.414) rotate(-45)">
          <path class="cls-9" d="M -1389.999633789062 5.50029993057251 L -1394.000122070312 5.50029993057251 C -1394.275756835938 5.50029993057251 -1394.5 5.276050090789795 -1394.5 5.000400066375732 C -1394.5 4.724259853363037 -1394.275756835938 4.499599933624268 -1394.000122070312 4.499599933624268 L -1391.00048828125 4.499599933624268 L -1390.50048828125 4.499599933624268 L -1390.50048828125 3.999599933624268 L -1390.50048828125 0.9998999834060669 C -1390.50048828125 0.7242499589920044 -1390.275756835938 0.4999999701976776 -1389.999633789062 0.4999999701976776 C -1389.723999023438 0.4999999701976776 -1389.499755859375 0.7242499589920044 -1389.499755859375 0.9998999834060669 L -1389.499755859375 5.000400066375732 C -1389.499755859375 5.276050090789795 -1389.723999023438 5.50029993057251 -1389.999633789062 5.50029993057251 Z"/>
          <path class="cls-10" d="M -1389.999633789062 5.00029993057251 L -1389.999755859375 5.000400066375732 L -1390.00048828125 0.9998999834060669 L -1390.00048828125 4.999599933624268 L -1394.000122070312 5.00029993057251 L -1389.999633789062 5.00029993057251 M -1389.999633789062 6.00029993057251 L -1394.000122070312 6.00029993057251 C -1394.551879882812 6.00029993057251 -1395 5.55210018157959 -1395 5.000400066375732 C -1395 4.447800159454346 -1394.551879882812 3.999599933624268 -1394.000122070312 3.999599933624268 L -1391.00048828125 3.999599933624268 L -1391.00048828125 0.9998999834060669 C -1391.00048828125 0.4472999572753906 -1390.55224609375 -3.471374654395731e-08 -1389.999633789062 -3.471374654395731e-08 C -1389.447875976562 -3.471374654395731e-08 -1388.999755859375 0.4472999572753906 -1388.999755859375 0.9998999834060669 L -1388.999755859375 5.000400066375732 C -1388.999755859375 5.55210018157959 -1389.447875976562 6.00029993057251 -1389.999633789062 6.00029993057251 Z"/>
        </g>
      </g>
      <g id="arrow-4" data-name="arrow" transform="translate(-15 241)">
        <circle id="Ellipse_11-4" data-name="Ellipse 11" class="cls-3" cx="9" cy="9" r="9" transform="translate(337 164)"/>
        <g id="Union_1-4" data-name="Union 1" class="cls-4" transform="translate(1327.171 -813.414) rotate(-45)">
          <path class="cls-9" d="M -1389.999633789062 5.50029993057251 L -1394.000122070312 5.50029993057251 C -1394.275756835938 5.50029993057251 -1394.5 5.276050090789795 -1394.5 5.000400066375732 C -1394.5 4.724259853363037 -1394.275756835938 4.499599933624268 -1394.000122070312 4.499599933624268 L -1391.00048828125 4.499599933624268 L -1390.50048828125 4.499599933624268 L -1390.50048828125 3.999599933624268 L -1390.50048828125 0.9998999834060669 C -1390.50048828125 0.7242499589920044 -1390.275756835938 0.4999999701976776 -1389.999633789062 0.4999999701976776 C -1389.723999023438 0.4999999701976776 -1389.499755859375 0.7242499589920044 -1389.499755859375 0.9998999834060669 L -1389.499755859375 5.000400066375732 C -1389.499755859375 5.276050090789795 -1389.723999023438 5.50029993057251 -1389.999633789062 5.50029993057251 Z"/>
          <path class="cls-10" d="M -1389.999633789062 5.00029993057251 L -1389.999755859375 5.000400066375732 L -1390.00048828125 0.9998999834060669 L -1390.00048828125 4.999599933624268 L -1394.000122070312 5.00029993057251 L -1389.999633789062 5.00029993057251 M -1389.999633789062 6.00029993057251 L -1394.000122070312 6.00029993057251 C -1394.551879882812 6.00029993057251 -1395 5.55210018157959 -1395 5.000400066375732 C -1395 4.447800159454346 -1394.551879882812 3.999599933624268 -1394.000122070312 3.999599933624268 L -1391.00048828125 3.999599933624268 L -1391.00048828125 0.9998999834060669 C -1391.00048828125 0.4472999572753906 -1390.55224609375 -3.471374654395731e-08 -1389.999633789062 -3.471374654395731e-08 C -1389.447875976562 -3.471374654395731e-08 -1388.999755859375 0.4472999572753906 -1388.999755859375 0.9998999834060669 L -1388.999755859375 5.000400066375732 C -1388.999755859375 5.55210018157959 -1389.447875976562 6.00029993057251 -1389.999633789062 6.00029993057251 Z"/>
        </g>
      </g>
    </g>
    <g id="dividers">
      <line id="divider" class="cls-5" x2="263" transform="translate(77 294)"/>
      <line id="divider-2" data-name="divider" class="cls-5" x2="263" transform="translate(77 342)"/>
      <line id="divider-3" data-name="divider" class="cls-5" x2="263" transform="translate(77 390)"/>
    </g>
    <g id="icons">
      <path id="rate" class="cls-6" d="M-1433-480v-10a9.995,9.995,0,0,1,10-10,9.995,9.995,0,0,1,10,10,9.995,9.995,0,0,1-10,10Zm1.172-10v8.828H-1423a8.823,8.823,0,0,0,8.828-8.828,8.823,8.823,0,0,0-8.828-8.828A8.823,8.823,0,0,0-1431.828-490Zm8.828,4.646-4.1,1.566.221-4.387-2.758-3.419,4.241-1.145,2.4-3.679,2.4,3.679,4.241,1.145-2.758,3.419.221,4.387Zm2.843-.169-.154-3.038,1.911-2.369-2.938-.793-1.662-2.549-1.662,2.549-2.938.793,1.911,2.369-.154,3.038,2.843-1.085Z" transform="translate(1471 856)"/>
      <path id="support" class="cls-7" d="M-1424.562-433.562a1.562,1.562,0,0,1,1.563-1.562,1.561,1.561,0,0,1,1.367.806v-.024h2.383a.783.783,0,0,0,.781-.781v-8.164a.78.78,0,0,1,.781-.781h1.562a3.128,3.128,0,0,1,3.125,3.125v2.656a3.128,3.128,0,0,1-3.125,3.125h-.781v.04a2.346,2.346,0,0,1-2.344,2.344h-2.383v-.025A1.562,1.562,0,0,1-1423-432,1.562,1.562,0,0,1-1424.562-433.562Zm7.656-4.375v1.211h.781a1.565,1.565,0,0,0,1.563-1.562v-2.656a1.564,1.564,0,0,0-1.562-1.562h-.781Zm-12.969,2.773a3.128,3.128,0,0,1-3.125-3.125v-2.656a3.127,3.127,0,0,1,1.563-2.705,8.377,8.377,0,0,1,2.47-5.878A8.382,8.382,0,0,1-1423-452a8.382,8.382,0,0,1,4.873,1.549,8.421,8.421,0,0,1,3.042,3.961.782.782,0,0,1-.462,1,.782.782,0,0,1-1-.462,6.9,6.9,0,0,0-6.45-4.49,6.884,6.884,0,0,0-6.856,6.367h1.543a.78.78,0,0,1,.781.781v7.343a.78.78,0,0,1-.781.781Zm-1.562-5.781v2.656a1.564,1.564,0,0,0,1.562,1.562h.781v-5.781h-.781A1.564,1.564,0,0,0-1431.437-440.945Z" transform="translate(1471 760)"/>
      <path id="invite" class="cls-8" d="M19.454,7.55l-2.5-2.086v-1.1A1.523,1.523,0,0,0,15.435,2.84h-1.62L11.27.714a1.946,1.946,0,0,0-2.54,0L6.185,2.84H4.565A1.523,1.523,0,0,0,3.043,4.362v1.1L.546,7.55A1.523,1.523,0,0,0,0,8.718v9.55a1.959,1.959,0,0,0,1.957,1.957H18.043A1.959,1.959,0,0,0,20,18.268V8.718A1.523,1.523,0,0,0,19.454,7.55Zm-2.5-.386L18.33,8.311,16.957,9.459ZM9.569,1.713l.006-.005a.649.649,0,0,1,.849,0l.006.005L11.78,2.84H8.22ZM4.348,5.765h0v-1.4a.218.218,0,0,1,.217-.217h10.87a.218.218,0,0,1,.217.217v1.4h0v4.783l-5.221,4.361-.006.005a.649.649,0,0,1-.849,0l-.006-.005L4.348,10.548Zm-1.3,1.4v2.3L1.67,8.311ZM18.7,18.268a.653.653,0,0,1-.652.652H1.957a.653.653,0,0,1-.652-.652V9.706l7.426,6.2a1.946,1.946,0,0,0,2.54,0l5.45-4.551h0L18.7,9.706Z" transform="translate(38 259.757)"/>
      <g id="suggest" transform="translate(38 404)">
        <g id="Group_84" data-name="Group 84" transform="translate(0 1.839)">
          <g id="Group_83" data-name="Group 83">
            <path id="Path_40" data-name="Path 40" class="cls-7" d="M17.354,56.864a.808.808,0,0,0-.808.808V62.58a1.032,1.032,0,0,1-1.031,1.031H2.646A1.032,1.032,0,0,1,1.616,62.58V49.711a1.032,1.032,0,0,1,1.031-1.031H7.555a.808.808,0,1,0,0-1.616H2.646A2.649,2.649,0,0,0,0,49.711V62.58a2.649,2.649,0,0,0,2.646,2.646H15.515a2.649,2.649,0,0,0,2.646-2.646V57.672A.808.808,0,0,0,17.354,56.864Z" transform="translate(0 -47.065)"/>
          </g>
        </g>
        <g id="Group_86" data-name="Group 86" transform="translate(5.515 0)">
          <g id="Group_85" data-name="Group 85">
            <path id="Path_41" data-name="Path 41" class="cls-7" d="M155.439,3.914,151.762.237a.808.808,0,0,0-1.143,0l-9.192,9.192a.808.808,0,0,0-.237.571v3.677a.808.808,0,0,0,.808.808h3.677a.808.808,0,0,0,.571-.237l9.192-9.192a.808.808,0,0,0,0-1.143Zm-10.1,8.955h-2.534V10.335l8.384-8.384,2.534,2.534Z" transform="translate(-141.191 0)"/>
          </g>
        </g>
      </g>
    </g>
  </g>
</svg>
