<svg xmlns="http://www.w3.org/2000/svg" xmlns:xlink="http://www.w3.org/1999/xlink" width="110" height="110" viewBox="0 0 110 110">
  <defs>
    <style>
      .cls-1 {
        fill: #fff;
      }

      .cls-2 {
        fill: #ff6969;
      }

      .cls-3 {
        filter: url(#Ellipse_4);
      }
    </style>
    <filter id="Ellipse_4" x="0" y="0" width="110" height="110" filterUnits="userSpaceOnUse">
      <feOffset dy="8" input="SourceAlpha"/>
      <feGaussianBlur stdDeviation="7.5" result="blur"/>
      <feFlood flood-color="#e7eaf0"/>
      <feComposite operator="in" in2="blur"/>
      <feComposite in="SourceGraphic"/>
    </filter>
  </defs>
  <g id="see_all" data-name="see all" transform="translate(22.5 14.5)">
    <g class="cls-3" transform="matrix(1, 0, 0, 1, -22.5, -14.5)">
      <circle id="Ellipse_4-2" data-name="Ellipse 4" class="cls-1" cx="32.5" cy="32.5" r="32.5" transform="translate(22.5 14.5)"/>
    </g>
    <g id="arrow_right" transform="translate(9 13)">
      <g id="ARROW__x2F__RIGHT" transform="translate(20 11)">
        <g id="Group_1" data-name="Group 1">
          <path id="Path_2" data-name="Path 2" class="cls-2" d="M30.286,20v0a1.281,1.281,0,0,0-.393-.925h0l-7.714-7.714,0,0a1.285,1.285,0,1,0-1.727,1.9L27.185,20,20.36,26.822h0a1.285,1.285,0,0,0,1.818,1.818h0l7.714-7.714h0A1.281,1.281,0,0,0,30.286,20Z" transform="translate(-20 -11)"/>
        </g>
      </g>
    </g>
  </g>
</svg>
