<svg xmlns="http://www.w3.org/2000/svg" xmlns:xlink="http://www.w3.org/1999/xlink" width="325" height="64.823" viewBox="0 0 325 64.823">
  <defs>
    <style>
      .cls-1 {
        fill: none;
      }

      .cls-2 {
        clip-path: url(#clip-path);
      }

      .cls-3 {
        clip-path: url(#clip-path-2);
      }

      .cls-4 {
        fill: #ed5199;
      }

      .cls-5 {
        fill: #ff8c69;
      }

      .cls-6 {
        fill: #67b5f7;
      }

      .cls-10, .cls-7 {
        fill: #fff;
      }

      .cls-8 {
        fill: #c9c9c9;
      }

      .cls-9 {
        fill: #3e3a3a;
      }

      .cls-10 {
        stroke: #fff;
      }

      .cls-11 {
        fill: #515c6f;
        font-size: 12px;
        font-family: SegoeUI, Segoe UI;
        letter-spacing: 0.07em;
        opacity: 0.5;
      }

      .cls-12 {
        filter: url(#black);
      }

      .cls-13 {
        filter: url(#grey);
      }

      .cls-14 {
        filter: url(#white);
      }

      .cls-15 {
        filter: url(#blue);
      }

      .cls-16 {
        filter: url(#orange);
      }
    </style>
    <clipPath id="clip-path">
      <rect class="cls-1" width="325" height="64.823"/>
    </clipPath>
    <clipPath id="clip-path-2">
      <rect class="cls-1" width="325" height="38.823"/>
    </clipPath>
    <filter id="orange" x="42.236" y="16" width="68.823" height="68.823" filterUnits="userSpaceOnUse">
      <feOffset dy="5" input="SourceAlpha"/>
      <feGaussianBlur stdDeviation="5" result="blur"/>
      <feFlood flood-color="#ff8c69" flood-opacity="0.396"/>
      <feComposite operator="in" in2="blur"/>
      <feComposite in="SourceGraphic"/>
    </filter>
    <filter id="blue" x="99.471" y="16" width="68.823" height="68.823" filterUnits="userSpaceOnUse">
      <feOffset dy="5" input="SourceAlpha"/>
      <feGaussianBlur stdDeviation="5" result="blur-2"/>
      <feFlood flood-color="#67b5f7" flood-opacity="0.404"/>
      <feComposite operator="in" in2="blur-2"/>
      <feComposite in="SourceGraphic"/>
    </filter>
    <filter id="white" x="156.706" y="16" width="68.822" height="68.823" filterUnits="userSpaceOnUse">
      <feOffset dy="5" input="SourceAlpha"/>
      <feGaussianBlur stdDeviation="5" result="blur-3"/>
      <feFlood flood-color="#727c8e" flood-opacity="0.153"/>
      <feComposite operator="in" in2="blur-3"/>
      <feComposite in="SourceGraphic"/>
    </filter>
    <filter id="grey" x="213.942" y="16" width="68.823" height="68.823" filterUnits="userSpaceOnUse">
      <feOffset dy="5" input="SourceAlpha"/>
      <feGaussianBlur stdDeviation="5" result="blur-4"/>
      <feFlood flood-color="#727c8e" flood-opacity="0.169"/>
      <feComposite operator="in" in2="blur-4"/>
      <feComposite in="SourceGraphic"/>
    </filter>
    <filter id="black" x="271.177" y="16" width="68.823" height="68.823" filterUnits="userSpaceOnUse">
      <feOffset dy="5" input="SourceAlpha"/>
      <feGaussianBlur stdDeviation="5" result="blur-5"/>
      <feFlood flood-color="#727c8e" flood-opacity="0.169"/>
      <feComposite operator="in" in2="blur-5"/>
      <feComposite in="SourceGraphic"/>
    </filter>
  </defs>
  <g id="select_colour" data-name="select colour" class="cls-2">
    <g id="colours" transform="translate(-20 -399)">
      <g id="Repeat_Grid_21" data-name="Repeat Grid 21" class="cls-3" transform="translate(20 425)">
        <g transform="translate(-20 -425)">
          <rect id="pink" class="cls-4" width="38.823" height="38.823" rx="19.411" transform="translate(20 425)"/>
          <g class="cls-16" transform="matrix(1, 0, 0, 1, 20, 399)">
            <rect id="orange-2" data-name="orange" class="cls-5" width="38.823" height="38.823" rx="19.411" transform="translate(57.24 26)"/>
          </g>
          <g class="cls-15" transform="matrix(1, 0, 0, 1, 20, 399)">
            <rect id="blue-2" data-name="blue" class="cls-6" width="38.823" height="38.823" rx="19.411" transform="translate(114.47 26)"/>
          </g>
          <g class="cls-14" transform="matrix(1, 0, 0, 1, 20, 399)">
            <rect id="white-2" data-name="white" class="cls-7" width="38.823" height="38.823" rx="19.411" transform="translate(171.71 26)"/>
          </g>
          <g class="cls-13" transform="matrix(1, 0, 0, 1, 20, 399)">
            <rect id="grey-2" data-name="grey" class="cls-8" width="38.823" height="38.823" rx="19.411" transform="translate(228.94 26)"/>
          </g>
          <g class="cls-12" transform="matrix(1, 0, 0, 1, 20, 399)">
            <rect id="black-2" data-name="black" class="cls-9" width="38.823" height="38.823" rx="19.411" transform="translate(286.18 26)"/>
          </g>
        </g>
      </g>
      <path id="selected" class="cls-10" d="M11.4,10.94v0a.919.919,0,0,0-.282-.663h0L1.562.254l0,0A.921.921,0,1,0,.321,1.621L9.179,10.94,5.259,14.9h0a.921.921,0,0,0,1.3,1.3h0l4.558-4.6h0a.919.919,0,0,0,.282-.663Z" transform="translate(47.137 438.58) rotate(90)"/>
    </g>
    <text id="Page_Title" data-name="Page Title" class="cls-11" transform="translate(0 9)"><tspan x="0" y="0">SELECT COLOR</tspan></text>
  </g>
</svg>
