<svg xmlns="http://www.w3.org/2000/svg" xmlns:xlink="http://www.w3.org/1999/xlink" width="26" height="26" viewBox="0 0 26 26">
  <defs>
    <style>
      .cls-1 {
        fill: none;
      }

      .cls-2 {
        clip-path: url(#clip-path);
      }

      .cls-3 {
        fill: #ff6969;
      }

      .cls-4 {
        fill: #fff;
        stroke: #fff;
        stroke-width: 0.7px;
      }
    </style>
    <clipPath id="clip-path">
      <rect class="cls-1" width="26" height="26"/>
    </clipPath>
  </defs>
  <g id="send" class="cls-2">
    <rect id="Rectangle_2" data-name="Rectangle 2" class="cls-3" width="26" height="26" rx="13"/>
    <g id="share-arrow" transform="translate(7.985 6.556)">
      <g id="Group_27" data-name="Group 27">
        <path id="Path_14" data-name="Path 14" class="cls-4" d="M117.265,11.74a.667.667,0,0,0,.665-.665V2.363l2.663,2.2a.667.667,0,1,0,.887-1l-3.824-3.4A.669.669,0,0,0,116.8.143a.67.67,0,0,0-.288.266L113.2,3.59a.666.666,0,1,0,.92.964l2.48-2.191v8.712A.667.667,0,0,0,117.265,11.74Z" transform="translate(-111.993 1)"/>
      </g>
    </g>
  </g>
</svg>
