<svg xmlns="http://www.w3.org/2000/svg" width="335" height="151.5" viewBox="0 0 335 151.5">
  <defs>
    <style>
      .cls-1, .cls-2 {
        fill: #515c6f;
      }

      .cls-1 {
        font-size: 12px;
        letter-spacing: 0.07em;
        opacity: 0.5;
      }

      .cls-1, .cls-3 {
        font-family: SegoeUI, Segoe UI;
      }

      .cls-2 {
        font-size: 15px;
        font-family: SegoeUI-Bold, Segoe UI;
        font-weight: 700;
      }

      .cls-3 {
        font-weight: 400;
      }

      .cls-4 {
        fill: none;
        stroke: #727c8e;
        opacity: 0.15;
      }

      .cls-5 {
        fill: #727c8e;
        opacity: 0.2;
      }

      .cls-6 {
        fill: #fff;
      }

      .cls-7, .cls-8 {
        stroke: none;
      }

      .cls-8 {
        fill: #727c8e;
      }
    </style>
  </defs>
  <g id="shipping_add" data-name="shipping add" transform="translate(-20 -115)">
    <text id="Page_Title" data-name="Page Title" class="cls-1" transform="translate(25 128)"><tspan x="0" y="0">SHIPPING ADDRESS</tspan></text>
    <text id="John_Doe_No_123_Sub_Street_Main_Street_City_Name_Province_Country" data-name="John Doe
No 123, Sub Street, 
Main Street,
City Name, Province,
Country" class="cls-2" transform="translate(25 155)"><tspan x="0" y="0">John Doe</tspan><tspan class="cls-3"><tspan x="0" y="22">No 123, Sub Street, </tspan><tspan x="0" y="44">Main Street,</tspan><tspan x="0" y="66">City Name, Province,</tspan><tspan x="0" y="88">Country</tspan></tspan></text>
    <line id="Line_4" data-name="Line 4" class="cls-4" x2="335" transform="translate(20 266)"/>
    <g id="Group_36" data-name="Group 36" transform="translate(0 20)">
      <circle id="Ellipse_11" data-name="Ellipse 11" class="cls-5" cx="9" cy="9" r="9" transform="translate(337 164)"/>
      <g id="Union_1" data-name="Union 1" class="cls-6" transform="translate(1327.171 -813.414) rotate(-45)">
        <path class="cls-7" d="M -1389.999633789062 5.50029993057251 L -1394.000122070312 5.50029993057251 C -1394.275756835938 5.50029993057251 -1394.5 5.276050090789795 -1394.5 5.000400066375732 C -1394.5 4.724259853363037 -1394.275756835938 4.499599933624268 -1394.000122070312 4.499599933624268 L -1391.00048828125 4.499599933624268 L -1390.50048828125 4.499599933624268 L -1390.50048828125 3.999599933624268 L -1390.50048828125 0.9998999834060669 C -1390.50048828125 0.7242499589920044 -1390.275756835938 0.4999999701976776 -1389.999633789062 0.4999999701976776 C -1389.723999023438 0.4999999701976776 -1389.499755859375 0.7242499589920044 -1389.499755859375 0.9998999834060669 L -1389.499755859375 5.000400066375732 C -1389.499755859375 5.276050090789795 -1389.723999023438 5.50029993057251 -1389.999633789062 5.50029993057251 Z"/>
        <path class="cls-8" d="M -1389.999633789062 5.00029993057251 L -1389.999755859375 5.000400066375732 L -1390.00048828125 0.9998999834060669 L -1390.00048828125 4.999599933624268 L -1394.000122070312 5.00029993057251 L -1389.999633789062 5.00029993057251 M -1389.999633789062 6.00029993057251 L -1394.000122070312 6.00029993057251 C -1394.551879882812 6.00029993057251 -1395 5.55210018157959 -1395 5.000400066375732 C -1395 4.447800159454346 -1394.551879882812 3.999599933624268 -1394.000122070312 3.999599933624268 L -1391.00048828125 3.999599933624268 L -1391.00048828125 0.9998999834060669 C -1391.00048828125 0.4472999572753906 -1390.55224609375 -3.471374654395731e-08 -1389.999633789062 -3.471374654395731e-08 C -1389.447875976562 -3.471374654395731e-08 -1388.999755859375 0.4472999572753906 -1388.999755859375 0.9998999834060669 L -1388.999755859375 5.000400066375732 C -1388.999755859375 5.55210018157959 -1389.447875976562 6.00029993057251 -1389.999633789062 6.00029993057251 Z"/>
      </g>
    </g>
  </g>
</svg>
