<svg xmlns="http://www.w3.org/2000/svg" width="375" height="49" viewBox="0 0 375 49">
  <defs>
    <style>
      .cls-1, .cls-4, .cls-6 {
        fill: #fff;
      }

      .cls-2, .cls-3 {
        fill: #727c8e;
      }

      .cls-2 {
        font-size: 15px;
        font-family: SegoeUI, Segoe UI;
        opacity: 0.3;
      }

      .cls-3 {
        opacity: 0.2;
      }

      .cls-5 {
        fill: #ff6969;
      }

      .cls-6 {
        stroke: #fff;
        stroke-width: 0.7px;
      }

      .cls-7, .cls-8 {
        stroke: none;
      }

      .cls-8 {
        fill: #727c8e;
      }
    </style>
  </defs>
  <g id="type_message" data-name="type message" transform="translate(0 -618)">
    <rect id="base" class="cls-1" width="375" height="49" transform="translate(0 618)"/>
    <text id="Type_your_message..." data-name="Type your message..." class="cls-2" transform="translate(66 647)"><tspan x="0" y="0">Type your message...</tspan></text>
    <g id="add" transform="translate(-315 468)">
      <circle id="Ellipse_11" data-name="Ellipse 11" class="cls-3" cx="13" cy="13" r="13" transform="translate(335 162)"/>
      <g id="Union_1" data-name="Union 1" class="cls-4" transform="translate(342.078 169.078)">
        <path class="cls-7" d="M 6.106400012969971 10.8439998626709 L 5.737499713897705 10.8439998626709 L 5.737599849700928 7.106400012969971 L 5.737599849700928 6.106400012969971 L 4.737599849700928 6.106400012969971 L 0.9998999238014221 6.106400012969971 L 0.9999999403953552 5.737499713897705 L 4.737599849700928 5.737599849700928 L 5.737599849700928 5.737599849700928 L 5.737599849700928 4.737599849700928 L 5.737599849700928 0.9998999238014221 L 6.106500148773193 0.9999999403953552 L 6.106400012969971 4.737599849700928 L 6.106400012969971 5.737599849700928 L 7.106400012969971 5.737599849700928 L 10.84409999847412 5.737599849700928 L 10.8439998626709 6.106500148773193 L 7.106400012969971 6.106400012969971 L 6.106400012969971 6.106400012969971 L 6.106400012969971 7.106400012969971 L 6.106400012969971 10.84409999847412 L 6.106400012969971 10.8439998626709 Z"/>
        <path class="cls-8" d="M 6.106500148773193 11.8439998626709 L 5.737499713897705 11.8439998626709 C 5.184899806976318 11.8439998626709 4.737599849700928 11.39579963684082 4.737599849700928 10.84409999847412 L 4.737599849700928 7.106400012969971 L 0.9998999238014221 7.106400012969971 C 0.4472999274730682 7.106400012969971 -6.866454782539222e-08 6.658199787139893 -6.866454782539222e-08 6.106500148773193 L -6.866454782539222e-08 5.737499713897705 C -6.866454782539222e-08 5.184899806976318 0.4472999274730682 4.737599849700928 0.9998999238014221 4.737599849700928 L 4.737599849700928 4.737599849700928 L 4.737599849700928 0.9998999238014221 C 4.737599849700928 0.4472999274730682 5.184899806976318 -6.866454782539222e-08 5.737499713897705 -6.866454782539222e-08 L 6.106500148773193 -6.866454782539222e-08 C 6.658199787139893 -6.866454782539222e-08 7.106400012969971 0.4472999274730682 7.106400012969971 0.9998999238014221 L 7.106400012969971 4.737599849700928 L 10.84409999847412 4.737599849700928 C 11.39579963684082 4.737599849700928 11.8439998626709 5.184899806976318 11.8439998626709 5.737499713897705 L 11.8439998626709 6.106500148773193 C 11.8439998626709 6.658199787139893 11.39579963684082 7.106400012969971 10.84409999847412 7.106400012969971 L 7.106400012969971 7.106400012969971 L 7.106400012969971 10.84409999847412 C 7.106400012969971 11.39579963684082 6.658199787139893 11.8439998626709 6.106500148773193 11.8439998626709 Z"/>
      </g>
    </g>
    <g id="send" transform="translate(194.734 240.063)">
      <rect id="Rectangle_2" data-name="Rectangle 2" class="cls-5" width="26" height="26" rx="13" transform="translate(134.266 389.937)"/>
      <g id="share-arrow" transform="translate(142.251 396.492)">
        <g id="Group_27" data-name="Group 27">
          <path id="Path_14" data-name="Path 14" class="cls-6" d="M117.265,11.74a.667.667,0,0,0,.665-.665V2.363l2.663,2.2a.667.667,0,1,0,.887-1l-3.824-3.4A.669.669,0,0,0,116.8.143a.67.67,0,0,0-.288.266L113.2,3.59a.666.666,0,1,0,.92.964l2.48-2.191v8.712A.667.667,0,0,0,117.265,11.74Z" transform="translate(-111.993 1)"/>
        </g>
      </g>
    </g>
  </g>
</svg>
