<svg xmlns="http://www.w3.org/2000/svg" width="325" height="59" viewBox="0 0 325 59">
  <defs>
    <style>
      .cls-1 {
        fill: #fff;
      }

      .cls-2, .cls-3 {
        fill: #515c6f;
        font-family: SegoeUI, Segoe UI;
      }

      .cls-2 {
        font-size: 15px;
      }

      .cls-3 {
        font-size: 12px;
        letter-spacing: 0.07em;
        opacity: 0.5;
      }

      .cls-4 {
        fill: none;
        stroke: #ff6969;
        stroke-linecap: round;
        stroke-width: 2px;
      }

      .cls-5 {
        fill: #727c8e;
        stroke: #727c8e;
        stroke-width: 0.6px;
        opacity: 0.998;
      }
    </style>
  </defs>
  <g id="Username" transform="translate(-20 -393)">
    <rect id="Rectangle_33" data-name="Rectangle 33" class="cls-1" width="325" height="59" transform="translate(20 393)"/>
    <text id="janedoe12345" class="cls-2" transform="translate(77 437)"><tspan x="0" y="0">janedoe12345</tspan></text>
    <text id="USERNAME-2" data-name="USERNAME" class="cls-3" transform="translate(77 417)"><tspan x="0" y="0">USERNAME</tspan></text>
    <line id="Line_22" data-name="Line 22" class="cls-4" y2="15" transform="translate(174.5 424.5)"/>
    <path id="Profile" class="cls-5" d="M18.586,14.377a12.854,12.854,0,0,0-3.135-1.884,17.052,17.052,0,0,1-2.408-1.345,8.456,8.456,0,0,0,2.1-5.084A7.99,7.99,0,0,0,14.526,2.4C13.974,1.3,12.741,0,10,0S6.025,1.3,5.474,2.4a7.981,7.981,0,0,0-.613,3.669,8.449,8.449,0,0,0,2.1,5.084,16.968,16.968,0,0,1-2.409,1.345,12.863,12.863,0,0,0-3.135,1.884A6.148,6.148,0,0,0,0,18.308,1.667,1.667,0,0,0,1.666,20H18.333A1.667,1.667,0,0,0,20,18.307,6.15,6.15,0,0,0,18.586,14.377Zm.045,4.249a.417.417,0,0,1-.3.125H1.666a.417.417,0,0,1-.3-.125.422.422,0,0,1-.12-.3A4.991,4.991,0,0,1,2.3,15.261a12.7,12.7,0,0,1,2.811-1.65,13.709,13.709,0,0,0,2.708-1.555l.844-.8-.733-.9A7.234,7.234,0,0,1,6.111,6.065,6.91,6.91,0,0,1,6.59,2.959C7.163,1.825,8.309,1.25,10,1.25s2.837.575,3.41,1.708a6.914,6.914,0,0,1,.479,3.106,7.229,7.229,0,0,1-1.817,4.294l-.733.9.844.8a13.738,13.738,0,0,0,2.708,1.555,12.643,12.643,0,0,1,2.811,1.65,4.871,4.871,0,0,1,1.048,3.066A.417.417,0,0,1,18.63,18.626Z" transform="translate(37 412.5)"/>
  </g>
</svg>
